<?xml version="1.0" encoding="UTF-8" standalone="no"?>
<!DOCTYPE svg PUBLIC "-//W3C//DTD SVG 1.1//EN"
 "http://www.w3.org/Graphics/SVG/1.1/DTD/svg11.dtd">
<!-- Generated by graphviz version 2.43.0 (0)
 -->
<!-- Title: MiniBlogApp.Proxies.CachedBlogStorageProxy Pages: 1 -->
<svg width="255pt" height="115pt"
 viewBox="0.00 0.00 254.50 115.00" xmlns="http://www.w3.org/2000/svg" xmlns:xlink="http://www.w3.org/1999/xlink">
<g id="graph0" class="graph" transform="scale(1 1) rotate(0) translate(4 111)">
<title>MiniBlogApp.Proxies.CachedBlogStorageProxy</title>
<!-- Node1 -->
<g id="Node000001" class="node">
<title>Node1</title>
<g id="a_Node000001"><a xlink:title="ПАТЕРН PROXY (Замісник &#45; Кешуючий).">
<polygon fill="#999999" stroke="#666666" points="183.5,-30 27.5,-30 27.5,0 183.5,0 183.5,-30"/>
<text text-anchor="start" x="35.5" y="-18" font-family="Helvetica,sans-Serif" font-size="10.00">MiniBlogApp.Proxies.Cached</text>
<text text-anchor="middle" x="105.5" y="-7" font-family="Helvetica,sans-Serif" font-size="10.00">BlogStorageProxy</text>
</a>
</g>
</g>
<!-- Node2 -->
<g id="Node000002" class="node">
<title>Node2</title>
<g id="a_Node000002"><a xlink:href="interfaceMiniBlogApp_1_1Services_1_1IBlogStorage.html" target="_top" xlink:title="Інтерфейс для роботи зі сховищем дописів.">
<polygon fill="white" stroke="#666666" points="79,-101.5 0,-101.5 0,-82.5 79,-82.5 79,-101.5"/>
<text text-anchor="middle" x="39.5" y="-89.5" font-family="Helvetica,sans-Serif" font-size="10.00">IBlogStorage</text>
</a>
</g>
</g>
<!-- Node2&#45;&gt;Node1 -->
<g id="edge1_Node000001_Node000002" class="edge">
<title>Node2&#45;&gt;Node1</title>
<g id="a_edge1_Node000001_Node000002"><a xlink:title=" ">
<path fill="none" stroke="#63b8ff" d="M54,-74.53C65.69,-61.23 81.98,-42.73 93.08,-30.11"/>
<polygon fill="#63b8ff" stroke="#63b8ff" points="51.05,-72.58 47.07,-82.4 56.3,-77.2 51.05,-72.58"/>
</a>
</g>
</g>
<!-- Node3 -->
<g id="Node000003" class="node">
<title>Node3</title>
<g id="a_Node000003"><a xlink:href="interfaceMiniBlogApp_1_1Services_1_1IBlogStorage.html" target="_top" xlink:title="Інтерфейс для роботи зі сховищем дописів.">
<polygon fill="white" stroke="#666666" points="246.5,-107 96.5,-107 96.5,-77 246.5,-77 246.5,-107"/>
<text text-anchor="start" x="104.5" y="-95" font-family="Helvetica,sans-Serif" font-size="10.00">MiniBlogApp.Services.IBlog</text>
<text text-anchor="middle" x="171.5" y="-84" font-family="Helvetica,sans-Serif" font-size="10.00">Storage</text>
</a>
</g>
</g>
<!-- Node3&#45;&gt;Node1 -->
<g id="edge2_Node000001_Node000003" class="edge">
<title>Node3&#45;&gt;Node1</title>
<g id="a_edge2_Node000001_Node000003"><a xlink:title=" ">
<path fill="none" stroke="#9a32cd" stroke-dasharray="5,2" d="M152.23,-69.1C141.13,-56.49 127.52,-41.03 117.86,-30.04"/>
<polygon fill="#9a32cd" stroke="#9a32cd" points="149.85,-71.7 159.09,-76.89 155.11,-67.07 149.85,-71.7"/>
</a>
</g>
<text text-anchor="middle" x="174" y="-51" font-family="Helvetica,sans-Serif" font-size="10.00" fill="grey"> _realStorage</text>
</g>
</g>
</svg>
