<?xml version="1.0" encoding="UTF-8" standalone="no"?>
<!DOCTYPE svg PUBLIC "-//W3C//DTD SVG 1.1//EN"
 "http://www.w3.org/Graphics/SVG/1.1/DTD/svg11.dtd">
<!-- Generated by graphviz version 2.43.0 (0)
 -->
<!-- Title: MiniBlogApp.Tests.ServiceTests.BlogStorageAddLikeTests.AddLike_ShouldAddLike_WhenUserHasNotLikedBefore Pages: 1 -->
<svg width="605pt" height="86pt"
 viewBox="0.00 0.00 605.00 86.00" xmlns="http://www.w3.org/2000/svg" xmlns:xlink="http://www.w3.org/1999/xlink">
<g id="graph0" class="graph" transform="scale(1 1) rotate(0) translate(4 82)">
<title>MiniBlogApp.Tests.ServiceTests.BlogStorageAddLikeTests.AddLike_ShouldAddLike_WhenUserHasNotLikedBefore</title>
<!-- Node1 -->
<g id="Node000001" class="node">
<title>Node1</title>
<g id="a_Node000001"><a xlink:title="Verifies that a like is added when the user has not liked the post before.">
<polygon fill="#999999" stroke="#666666" points="223,-65 0,-65 0,-13 223,-13 223,-65"/>
<text text-anchor="start" x="8" y="-53" font-family="Helvetica,sans-Serif" font-size="10.00">MiniBlogApp.Tests.Service</text>
<text text-anchor="start" x="8" y="-42" font-family="Helvetica,sans-Serif" font-size="10.00">Tests.BlogStorageAddLikeTests.</text>
<text text-anchor="start" x="8" y="-31" font-family="Helvetica,sans-Serif" font-size="10.00">AddLike_ShouldAddLike_WhenUserHasNot</text>
<text text-anchor="middle" x="111.5" y="-20" font-family="Helvetica,sans-Serif" font-size="10.00">LikedBefore</text>
</a>
</g>
</g>
<!-- Node2 -->
<g id="Node000002" class="node">
<title>Node2</title>
<g id="a_Node000002"><a xlink:href="classMiniBlogApp_1_1Services_1_1BlogStorage.html#a1b858ba0dd0de0e695ea806daaf09fd7" target="_top" xlink:title=" ">
<polygon fill="white" stroke="#666666" points="406,-78 259,-78 259,-48 406,-48 406,-78"/>
<text text-anchor="start" x="267" y="-66" font-family="Helvetica,sans-Serif" font-size="10.00">MiniBlogApp.Services.Blog</text>
<text text-anchor="middle" x="332.5" y="-55" font-family="Helvetica,sans-Serif" font-size="10.00">Storage.AddLike</text>
</a>
</g>
</g>
<!-- Node1&#45;&gt;Node2 -->
<g id="edge1_Node000001_Node000002" class="edge">
<title>Node1&#45;&gt;Node2</title>
<g id="a_edge1_Node000001_Node000002"><a xlink:title=" ">
<path fill="none" stroke="#63b8ff" d="M223.28,-51.14C231.88,-52.08 240.47,-53.02 248.83,-53.94"/>
<polygon fill="#63b8ff" stroke="#63b8ff" points="248.59,-57.44 258.91,-55.05 249.35,-50.48 248.59,-57.44"/>
</a>
</g>
</g>
<!-- Node4 -->
<g id="Node000004" class="node">
<title>Node4</title>
<g id="a_Node000004"><a xlink:href="classMiniBlogApp_1_1Services_1_1BlogStorage.html#a4cdac58bbe3cef687f389421ad64d784" target="_top" xlink:title=" ">
<polygon fill="white" stroke="#666666" points="406,-30 259,-30 259,0 406,0 406,-30"/>
<text text-anchor="start" x="267" y="-18" font-family="Helvetica,sans-Serif" font-size="10.00">MiniBlogApp.Services.Blog</text>
<text text-anchor="middle" x="332.5" y="-7" font-family="Helvetica,sans-Serif" font-size="10.00">Storage.AddPost</text>
</a>
</g>
</g>
<!-- Node1&#45;&gt;Node4 -->
<g id="edge3_Node000001_Node000004" class="edge">
<title>Node1&#45;&gt;Node4</title>
<g id="a_edge3_Node000001_Node000004"><a xlink:title=" ">
<path fill="none" stroke="#63b8ff" d="M223.28,-26.86C231.88,-25.92 240.47,-24.98 248.83,-24.06"/>
<polygon fill="#63b8ff" stroke="#63b8ff" points="249.35,-27.52 258.91,-22.95 248.59,-20.56 249.35,-27.52"/>
</a>
</g>
</g>
<!-- Node3 -->
<g id="Node000003" class="node">
<title>Node3</title>
<g id="a_Node000003"><a xlink:href="classMiniBlogApp_1_1Services_1_1BlogStorage.html#a170b5b0c311e8124d77dcc785672da16" target="_top" xlink:title=" ">
<polygon fill="white" stroke="#666666" points="597,-78 442,-78 442,-48 597,-48 597,-78"/>
<text text-anchor="start" x="450" y="-66" font-family="Helvetica,sans-Serif" font-size="10.00">MiniBlogApp.Services.Blog</text>
<text text-anchor="middle" x="519.5" y="-55" font-family="Helvetica,sans-Serif" font-size="10.00">Storage.GetPostByIdInternal</text>
</a>
</g>
</g>
<!-- Node2&#45;&gt;Node3 -->
<g id="edge2_Node000002_Node000003" class="edge">
<title>Node2&#45;&gt;Node3</title>
<g id="a_edge2_Node000002_Node000003"><a xlink:title=" ">
<path fill="none" stroke="#63b8ff" d="M406.09,-63C414.53,-63 423.2,-63 431.8,-63"/>
<polygon fill="#63b8ff" stroke="#63b8ff" points="431.86,-66.5 441.86,-63 431.86,-59.5 431.86,-66.5"/>
</a>
</g>
</g>
</g>
</svg>
