<?xml version="1.0" encoding="UTF-8" standalone="no"?>
<!DOCTYPE svg PUBLIC "-//W3C//DTD SVG 1.1//EN"
 "http://www.w3.org/Graphics/SVG/1.1/DTD/svg11.dtd">
<!-- Generated by graphviz version 2.43.0 (0)
 -->
<!-- Title: MiniBlogApp.Facades.BlogFacade Pages: 1 -->
<svg width="479pt" height="172pt"
 viewBox="0.00 0.00 479.00 171.50" xmlns="http://www.w3.org/2000/svg" xmlns:xlink="http://www.w3.org/1999/xlink">
<g id="graph0" class="graph" transform="scale(1 1) rotate(0) translate(4 167.5)">
<title>MiniBlogApp.Facades.BlogFacade</title>
<!-- Node1 -->
<g id="Node000001" class="node">
<title>Node1</title>
<g id="a_Node000001"><a xlink:title=" ">
<polygon fill="#999999" stroke="#666666" points="471,-102 326,-102 326,-72 471,-72 471,-102"/>
<text text-anchor="start" x="334" y="-90" font-family="Helvetica,sans-Serif" font-size="10.00">MiniBlogApp.Facades.Blog</text>
<text text-anchor="middle" x="398.5" y="-79" font-family="Helvetica,sans-Serif" font-size="10.00">Facade</text>
</a>
</g>
</g>
<!-- Node2 -->
<g id="Node000002" class="node">
<title>Node2</title>
<g id="a_Node000002"><a xlink:href="interfaceMiniBlogApp_1_1Facades_1_1IBlogFacade.html" target="_top" xlink:title="Контракт для Фасаду, що об&#39;єднує всі патерни.">
<polygon fill="white" stroke="#666666" points="132.5,-163.5 57.5,-163.5 57.5,-144.5 132.5,-144.5 132.5,-163.5"/>
<text text-anchor="middle" x="95" y="-151.5" font-family="Helvetica,sans-Serif" font-size="10.00">IBlogFacade</text>
</a>
</g>
</g>
<!-- Node2&#45;&gt;Node1 -->
<g id="edge1_Node000001_Node000002" class="edge">
<title>Node2&#45;&gt;Node1</title>
<g id="a_edge1_Node000001_Node000002"><a xlink:title=" ">
<path fill="none" stroke="#63b8ff" d="M142.65,-147.51C185.86,-141.05 251.75,-130.08 308,-116 323.53,-112.11 340.28,-106.95 355.05,-102.06"/>
<polygon fill="#63b8ff" stroke="#63b8ff" points="142.09,-144.05 132.71,-148.97 143.11,-150.97 142.09,-144.05"/>
</a>
</g>
</g>
<!-- Node3 -->
<g id="Node000003" class="node">
<title>Node3</title>
<g id="a_Node000003"><a xlink:href="interfaceMiniBlogApp_1_1Services_1_1IBlogStorage.html" target="_top" xlink:title="Інтерфейс для роботи зі сховищем дописів.">
<polygon fill="white" stroke="#666666" points="170,-126 20,-126 20,-96 170,-96 170,-126"/>
<text text-anchor="start" x="28" y="-114" font-family="Helvetica,sans-Serif" font-size="10.00">MiniBlogApp.Services.IBlog</text>
<text text-anchor="middle" x="95" y="-103" font-family="Helvetica,sans-Serif" font-size="10.00">Storage</text>
</a>
</g>
</g>
<!-- Node3&#45;&gt;Node1 -->
<g id="edge2_Node000001_Node000003" class="edge">
<title>Node3&#45;&gt;Node1</title>
<g id="a_edge2_Node000001_Node000003"><a xlink:title=" ">
<path fill="none" stroke="#9a32cd" stroke-dasharray="5,2" d="M180.36,-104.28C226.21,-100.64 282.3,-96.17 325.98,-92.69"/>
<polygon fill="#9a32cd" stroke="#9a32cd" points="179.83,-100.82 170.14,-105.1 180.39,-107.79 179.83,-100.82"/>
</a>
</g>
<text text-anchor="middle" x="258" y="-104" font-family="Helvetica,sans-Serif" font-size="10.00" fill="grey"> _blogStorage</text>
</g>
<!-- Node4 -->
<g id="Node000004" class="node">
<title>Node4</title>
<g id="a_Node000004"><a xlink:href="interfaceMiniBlogApp_1_1Services_1_1IMarkdownParser.html" target="_top" xlink:title="Інтерфейс для патерну Adapter.">
<polygon fill="white" stroke="#666666" points="184.5,-78 5.5,-78 5.5,-48 184.5,-48 184.5,-78"/>
<text text-anchor="start" x="13.5" y="-66" font-family="Helvetica,sans-Serif" font-size="10.00">MiniBlogApp.Services.IMarkdown</text>
<text text-anchor="middle" x="95" y="-55" font-family="Helvetica,sans-Serif" font-size="10.00">Parser</text>
</a>
</g>
</g>
<!-- Node4&#45;&gt;Node1 -->
<g id="edge3_Node000001_Node000004" class="edge">
<title>Node4&#45;&gt;Node1</title>
<g id="a_edge3_Node000001_Node000004"><a xlink:title=" ">
<path fill="none" stroke="#9a32cd" stroke-dasharray="5,2" d="M195.12,-70.2C230.72,-72.86 271.17,-75.96 308,-79 313.75,-79.47 319.71,-79.98 325.7,-80.49"/>
<polygon fill="#9a32cd" stroke="#9a32cd" points="194.96,-66.67 184.73,-69.42 194.44,-73.66 194.96,-66.67"/>
</a>
</g>
<text text-anchor="middle" x="258" y="-82" font-family="Helvetica,sans-Serif" font-size="10.00" fill="grey"> _markdownParser</text>
</g>
<!-- Node5 -->
<g id="Node000005" class="node">
<title>Node5</title>
<g id="a_Node000005"><a xlink:href="classMiniBlogApp_1_1Commands_1_1CommandManager.html" target="_top" xlink:title=" ">
<polygon fill="white" stroke="#666666" points="190,-30 0,-30 0,0 190,0 190,-30"/>
<text text-anchor="start" x="8" y="-18" font-family="Helvetica,sans-Serif" font-size="10.00">MiniBlogApp.Commands.Command</text>
<text text-anchor="middle" x="95" y="-7" font-family="Helvetica,sans-Serif" font-size="10.00">Manager</text>
</a>
</g>
</g>
<!-- Node5&#45;&gt;Node1 -->
<g id="edge4_Node000001_Node000005" class="edge">
<title>Node5&#45;&gt;Node1</title>
<g id="a_edge4_Node000001_Node000005"><a xlink:title=" ">
<path fill="none" stroke="#9a32cd" stroke-dasharray="5,2" d="M199.19,-31.91C233.99,-38.42 272.9,-46.58 308,-56 324.52,-60.43 342.38,-66.38 357.78,-71.88"/>
<polygon fill="#9a32cd" stroke="#9a32cd" points="199.47,-28.4 189.01,-30.03 198.2,-35.28 199.47,-28.4"/>
</a>
</g>
<text text-anchor="middle" x="258" y="-59" font-family="Helvetica,sans-Serif" font-size="10.00" fill="grey"> _commandManager</text>
</g>
</g>
</svg>
