<?xml version="1.0" encoding="UTF-8" standalone="no"?>
<!DOCTYPE svg PUBLIC "-//W3C//DTD SVG 1.1//EN"
 "http://www.w3.org/Graphics/SVG/1.1/DTD/svg11.dtd">
<!-- Generated by graphviz version 2.43.0 (0)
 -->
<!-- Title: MiniBlogApp.Services.UserService.Authenticate Pages: 1 -->
<svg width="446pt" height="226pt"
 viewBox="0.00 0.00 446.00 226.00" xmlns="http://www.w3.org/2000/svg" xmlns:xlink="http://www.w3.org/1999/xlink">
<g id="graph0" class="graph" transform="scale(1 1) rotate(0) translate(4 222)">
<title>MiniBlogApp.Services.UserService.Authenticate</title>
<!-- Node1 -->
<g id="Node000001" class="node">
<title>Node1</title>
<g id="a_Node000001"><a xlink:title=" ">
<polygon fill="#999999" stroke="#666666" points="438,-123.5 290,-123.5 290,-93.5 438,-93.5 438,-123.5"/>
<text text-anchor="start" x="298" y="-111.5" font-family="Helvetica,sans-Serif" font-size="10.00">MiniBlogApp.Services.User</text>
<text text-anchor="middle" x="364" y="-100.5" font-family="Helvetica,sans-Serif" font-size="10.00">Service.Authenticate</text>
</a>
</g>
</g>
<!-- Node2 -->
<g id="Node000002" class="node">
<title>Node2</title>
<g id="a_Node000002"><a xlink:href="classMiniBlogApp_1_1Tests_1_1ServiceTests_1_1UserServiceAdvancedTests.html#a0487261745dce2d1150c19a9ce977a87" target="_top" xlink:title=" ">
<polygon fill="white" stroke="#666666" points="226.5,-218 27.5,-218 27.5,-177 226.5,-177 226.5,-218"/>
<text text-anchor="start" x="35.5" y="-206" font-family="Helvetica,sans-Serif" font-size="10.00">MiniBlogApp.Tests.Service</text>
<text text-anchor="start" x="35.5" y="-195" font-family="Helvetica,sans-Serif" font-size="10.00">Tests.UserServiceAdvancedTests.</text>
<text text-anchor="middle" x="127" y="-184" font-family="Helvetica,sans-Serif" font-size="10.00">Authenticate_ShouldBeCaseSensitive</text>
</a>
</g>
</g>
<!-- Node1&#45;&gt;Node2 -->
<g id="edge1_Node000001_Node000002" class="edge">
<title>Node1&#45;&gt;Node2</title>
<g id="a_edge1_Node000001_Node000002"><a xlink:title=" ">
<path fill="none" stroke="#63b8ff" d="M331.52,-128.89C310.33,-141.83 281.37,-158.05 254,-168.5 245.3,-171.82 236.1,-174.83 226.81,-177.54"/>
<polygon fill="#63b8ff" stroke="#63b8ff" points="333.44,-131.82 340.09,-123.57 329.75,-125.87 333.44,-131.82"/>
</a>
</g>
</g>
<!-- Node3 -->
<g id="Node000003" class="node">
<title>Node3</title>
<g id="a_Node000003"><a xlink:href="classMiniBlogApp_1_1Tests_1_1ServiceTests_1_1UserServiceAdvancedTests.html#a145ff4a8f8275e43ed73a3e2ee9d630c" target="_top" xlink:title=" ">
<polygon fill="white" stroke="#666666" points="240,-159 14,-159 14,-118 240,-118 240,-159"/>
<text text-anchor="start" x="22" y="-147" font-family="Helvetica,sans-Serif" font-size="10.00">MiniBlogApp.Tests.Service</text>
<text text-anchor="start" x="22" y="-136" font-family="Helvetica,sans-Serif" font-size="10.00">Tests.UserServiceAdvancedTests.</text>
<text text-anchor="middle" x="127" y="-125" font-family="Helvetica,sans-Serif" font-size="10.00">Authenticate_ShouldFailForEmptyPassword</text>
</a>
</g>
</g>
<!-- Node1&#45;&gt;Node3 -->
<g id="edge2_Node000001_Node000003" class="edge">
<title>Node1&#45;&gt;Node3</title>
<g id="a_edge2_Node000001_Node000003"><a xlink:title=" ">
<path fill="none" stroke="#63b8ff" d="M279.8,-119.12C267,-120.76 253.59,-122.47 240.28,-124.17"/>
<polygon fill="#63b8ff" stroke="#63b8ff" points="280.46,-122.57 289.93,-117.83 279.57,-115.62 280.46,-122.57"/>
</a>
</g>
</g>
<!-- Node4 -->
<g id="Node000004" class="node">
<title>Node4</title>
<g id="a_Node000004"><a xlink:href="classMiniBlogApp_1_1Tests_1_1ServiceTests_1_1UserServiceTests.html#a509b496fbc1f51fb26faec4cc49393b5" target="_top" xlink:title=" ">
<polygon fill="white" stroke="#666666" points="254,-100 0,-100 0,-59 254,-59 254,-100"/>
<text text-anchor="start" x="8" y="-88" font-family="Helvetica,sans-Serif" font-size="10.00">MiniBlogApp.Tests.Service</text>
<text text-anchor="start" x="8" y="-77" font-family="Helvetica,sans-Serif" font-size="10.00">Tests.UserServiceTests.Authenticate</text>
<text text-anchor="middle" x="127" y="-66" font-family="Helvetica,sans-Serif" font-size="10.00">_ShouldReturnNull_WhenCredentialsAreIncorrect</text>
</a>
</g>
</g>
<!-- Node1&#45;&gt;Node4 -->
<g id="edge3_Node000001_Node000004" class="edge">
<title>Node1&#45;&gt;Node4</title>
<g id="a_edge3_Node000001_Node000004"><a xlink:title=" ">
<path fill="none" stroke="#63b8ff" d="M279.85,-98.24C271.47,-97.2 262.83,-96.14 254.13,-95.06"/>
<polygon fill="#63b8ff" stroke="#63b8ff" points="279.58,-101.73 289.93,-99.48 280.44,-94.78 279.58,-101.73"/>
</a>
</g>
</g>
<!-- Node5 -->
<g id="Node000005" class="node">
<title>Node5</title>
<g id="a_Node000005"><a xlink:href="classMiniBlogApp_1_1Tests_1_1ServiceTests_1_1UserServiceTests.html#a545d54e3116d553796aba9ea45eddf7a" target="_top" xlink:title=" ">
<polygon fill="white" stroke="#666666" points="252,-41 2,-41 2,0 252,0 252,-41"/>
<text text-anchor="start" x="10" y="-29" font-family="Helvetica,sans-Serif" font-size="10.00">MiniBlogApp.Tests.Service</text>
<text text-anchor="start" x="10" y="-18" font-family="Helvetica,sans-Serif" font-size="10.00">Tests.UserServiceTests.Authenticate</text>
<text text-anchor="middle" x="127" y="-7" font-family="Helvetica,sans-Serif" font-size="10.00">_ShouldReturnUser_WhenCredentialsAreCorrect</text>
</a>
</g>
</g>
<!-- Node1&#45;&gt;Node5 -->
<g id="edge4_Node000001_Node000005" class="edge">
<title>Node1&#45;&gt;Node5</title>
<g id="a_edge4_Node000001_Node000005"><a xlink:title=" ">
<path fill="none" stroke="#63b8ff" d="M329.88,-88.01C308.79,-75.7 280.55,-60.53 254,-50.5 244.85,-47.04 235.17,-43.89 225.41,-41.05"/>
<polygon fill="#63b8ff" stroke="#63b8ff" points="328.35,-91.18 338.74,-93.26 331.92,-85.16 328.35,-91.18"/>
</a>
</g>
</g>
</g>
</svg>
