<?xml version="1.0" encoding="UTF-8" standalone="no"?>
<!DOCTYPE svg PUBLIC "-//W3C//DTD SVG 1.1//EN"
 "http://www.w3.org/Graphics/SVG/1.1/DTD/svg11.dtd">
<!-- Generated by graphviz version 2.43.0 (0)
 -->
<!-- Title: MiniBlogApp.Services.LoggingBlogStorageDecorator Pages: 1 -->
<svg width="445pt" height="124pt"
 viewBox="0.00 0.00 445.00 123.50" xmlns="http://www.w3.org/2000/svg" xmlns:xlink="http://www.w3.org/1999/xlink">
<g id="graph0" class="graph" transform="scale(1 1) rotate(0) translate(4 119.5)">
<title>MiniBlogApp.Services.LoggingBlogStorageDecorator</title>
<!-- Node1 -->
<g id="Node000001" class="node">
<title>Node1</title>
<g id="a_Node000001"><a xlink:title=" ">
<polygon fill="#999999" stroke="#666666" points="437,-78 273,-78 273,-48 437,-48 437,-78"/>
<text text-anchor="start" x="281" y="-66" font-family="Helvetica,sans-Serif" font-size="10.00">MiniBlogApp.Services.Logging</text>
<text text-anchor="middle" x="355" y="-55" font-family="Helvetica,sans-Serif" font-size="10.00">BlogStorageDecorator</text>
</a>
</g>
</g>
<!-- Node2 -->
<g id="Node000002" class="node">
<title>Node2</title>
<g id="a_Node000002"><a xlink:href="interfaceMiniBlogApp_1_1Services_1_1IBlogStorage.html" target="_top" xlink:title="Інтерфейс для роботи зі сховищем дописів.">
<polygon fill="white" stroke="#666666" points="122.5,-115.5 43.5,-115.5 43.5,-96.5 122.5,-96.5 122.5,-115.5"/>
<text text-anchor="middle" x="83" y="-103.5" font-family="Helvetica,sans-Serif" font-size="10.00">IBlogStorage</text>
</a>
</g>
</g>
<!-- Node2&#45;&gt;Node1 -->
<g id="edge1_Node000001_Node000002" class="edge">
<title>Node2&#45;&gt;Node1</title>
<g id="a_edge1_Node000001_Node000002"><a xlink:title=" ">
<path fill="none" stroke="#63b8ff" d="M132.72,-98.24C171.68,-92.04 227.16,-83.2 272.82,-75.93"/>
<polygon fill="#63b8ff" stroke="#63b8ff" points="132.01,-94.81 122.68,-99.84 133.11,-101.72 132.01,-94.81"/>
</a>
</g>
</g>
<!-- Node3 -->
<g id="Node000003" class="node">
<title>Node3</title>
<g id="a_Node000003"><a xlink:href="interfaceMiniBlogApp_1_1Services_1_1IBlogStorage.html" target="_top" xlink:title="Інтерфейс для роботи зі сховищем дописів.">
<polygon fill="white" stroke="#666666" points="158,-78 8,-78 8,-48 158,-48 158,-78"/>
<text text-anchor="start" x="16" y="-66" font-family="Helvetica,sans-Serif" font-size="10.00">MiniBlogApp.Services.IBlog</text>
<text text-anchor="middle" x="83" y="-55" font-family="Helvetica,sans-Serif" font-size="10.00">Storage</text>
</a>
</g>
</g>
<!-- Node3&#45;&gt;Node1 -->
<g id="edge2_Node000001_Node000003" class="edge">
<title>Node3&#45;&gt;Node1</title>
<g id="a_edge2_Node000001_Node000003"><a xlink:title=" ">
<path fill="none" stroke="#9a32cd" stroke-dasharray="5,2" d="M168.32,-63C201.69,-63 239.88,-63 272.92,-63"/>
<polygon fill="#9a32cd" stroke="#9a32cd" points="168.14,-59.5 158.14,-63 168.14,-66.5 168.14,-59.5"/>
</a>
</g>
<text text-anchor="middle" x="219.5" y="-66" font-family="Helvetica,sans-Serif" font-size="10.00" fill="grey"> _innerStorage</text>
</g>
<!-- Node4 -->
<g id="Node000004" class="node">
<title>Node4</title>
<g id="a_Node000004"><a xlink:href="interfaceMiniBlogApp_1_1Services_1_1IActivityLogger.html" target="_top" xlink:title=" ">
<polygon fill="white" stroke="#666666" points="166,-30 0,-30 0,0 166,0 166,-30"/>
<text text-anchor="start" x="8" y="-18" font-family="Helvetica,sans-Serif" font-size="10.00">MiniBlogApp.Services.IActivity</text>
<text text-anchor="middle" x="83" y="-7" font-family="Helvetica,sans-Serif" font-size="10.00">Logger</text>
</a>
</g>
</g>
<!-- Node4&#45;&gt;Node1 -->
<g id="edge3_Node000001_Node000004" class="edge">
<title>Node4&#45;&gt;Node1</title>
<g id="a_edge3_Node000001_Node000004"><a xlink:title=" ">
<path fill="none" stroke="#9a32cd" stroke-dasharray="5,2" d="M176.16,-31.38C207.51,-36.96 242.31,-43.14 272.75,-48.55"/>
<polygon fill="#9a32cd" stroke="#9a32cd" points="176.57,-27.9 166.11,-29.6 175.34,-34.79 176.57,-27.9"/>
</a>
</g>
<text text-anchor="middle" x="219.5" y="-48" font-family="Helvetica,sans-Serif" font-size="10.00" fill="grey"> _logger</text>
</g>
</g>
</svg>
