<?xml version="1.0" encoding="UTF-8" standalone="no"?>
<!DOCTYPE svg PUBLIC "-//W3C//DTD SVG 1.1//EN"
 "http://www.w3.org/Graphics/SVG/1.1/DTD/svg11.dtd">
<!-- Generated by graphviz version 2.43.0 (0)
 -->
<!-- Title: MiniBlogApp.Services.BlogStorage.AddPost Pages: 1 -->
<svg width="451pt" height="662pt"
 viewBox="0.00 0.00 451.00 662.00" xmlns="http://www.w3.org/2000/svg" xmlns:xlink="http://www.w3.org/1999/xlink">
<g id="graph0" class="graph" transform="scale(1 1) rotate(0) translate(4 658)">
<title>MiniBlogApp.Services.BlogStorage.AddPost</title>
<!-- Node1 -->
<g id="Node000001" class="node">
<title>Node1</title>
<g id="a_Node000001"><a xlink:title=" ">
<polygon fill="#999999" stroke="#666666" points="443,-330.5 296,-330.5 296,-300.5 443,-300.5 443,-330.5"/>
<text text-anchor="start" x="304" y="-318.5" font-family="Helvetica,sans-Serif" font-size="10.00">MiniBlogApp.Services.Blog</text>
<text text-anchor="middle" x="369.5" y="-307.5" font-family="Helvetica,sans-Serif" font-size="10.00">Storage.AddPost</text>
</a>
</g>
</g>
<!-- Node2 -->
<g id="Node000002" class="node">
<title>Node2</title>
<g id="a_Node000002"><a xlink:href="classMiniBlogApp_1_1Tests_1_1ServiceTests_1_1BlogStorageAdvancedTests.html#a926a950518d2aefff07bfd0838ac5111" target="_top" xlink:title="Tests adding a comment to a post.">
<polygon fill="white" stroke="#666666" points="255.5,-654 4.5,-654 4.5,-613 255.5,-613 255.5,-654"/>
<text text-anchor="start" x="12.5" y="-642" font-family="Helvetica,sans-Serif" font-size="10.00">MiniBlogApp.Tests.Service</text>
<text text-anchor="start" x="12.5" y="-631" font-family="Helvetica,sans-Serif" font-size="10.00">Tests.BlogStorageAdvancedTests.</text>
<text text-anchor="middle" x="130" y="-620" font-family="Helvetica,sans-Serif" font-size="10.00">AddComment_ShouldAddToPostAndLogMessage</text>
</a>
</g>
</g>
<!-- Node1&#45;&gt;Node2 -->
<g id="edge1_Node000001_Node000002" class="edge">
<title>Node1&#45;&gt;Node2</title>
<g id="a_edge1_Node000001_Node000002"><a xlink:title=" ">
<path fill="none" stroke="#63b8ff" d="M366.81,-340.7C361.62,-397.1 340.9,-534.06 260,-604.5 256.45,-607.59 252.64,-610.37 248.64,-612.87"/>
<polygon fill="#63b8ff" stroke="#63b8ff" points="370.32,-340.79 367.66,-330.54 363.34,-340.21 370.32,-340.79"/>
</a>
</g>
</g>
<!-- Node3 -->
<g id="Node000003" class="node">
<title>Node3</title>
<g id="a_Node000003"><a xlink:href="classMiniBlogApp_1_1Tests_1_1ServiceTests_1_1BlogStorageEdgeCaseTests.html#a77050fdef1a23f31b5a132396de535cd" target="_top" xlink:title="Tests adding a comment with empty text.">
<polygon fill="white" stroke="#666666" points="234,-595 26,-595 26,-554 234,-554 234,-595"/>
<text text-anchor="start" x="34" y="-583" font-family="Helvetica,sans-Serif" font-size="10.00">MiniBlogApp.Tests.Service</text>
<text text-anchor="start" x="34" y="-572" font-family="Helvetica,sans-Serif" font-size="10.00">Tests.BlogStorageEdgeCaseTests.</text>
<text text-anchor="middle" x="130" y="-561" font-family="Helvetica,sans-Serif" font-size="10.00">AddComment_ShouldHandleEmptyText</text>
</a>
</g>
</g>
<!-- Node1&#45;&gt;Node3 -->
<g id="edge2_Node000001_Node000003" class="edge">
<title>Node1&#45;&gt;Node3</title>
<g id="a_edge2_Node000001_Node000003"><a xlink:title=" ">
<path fill="none" stroke="#63b8ff" d="M364.03,-340.62C354.2,-388.15 326.1,-491.22 260,-544.5 252.3,-550.7 243.55,-555.67 234.32,-559.64"/>
<polygon fill="#63b8ff" stroke="#63b8ff" points="367.51,-341.06 366,-330.58 360.64,-339.71 367.51,-341.06"/>
</a>
</g>
</g>
<!-- Node4 -->
<g id="Node000004" class="node">
<title>Node4</title>
<g id="a_Node000004"><a xlink:href="classMiniBlogApp_1_1Tests_1_1ServiceTests_1_1BlogStorageAddLikeTests.html#a94481ba55790720f50e31095d7f5d30d" target="_top" xlink:title="Verifies that a like is added when the user has not liked the post before.">
<polygon fill="white" stroke="#666666" points="241.5,-535.5 18.5,-535.5 18.5,-483.5 241.5,-483.5 241.5,-535.5"/>
<text text-anchor="start" x="26.5" y="-523.5" font-family="Helvetica,sans-Serif" font-size="10.00">MiniBlogApp.Tests.Service</text>
<text text-anchor="start" x="26.5" y="-512.5" font-family="Helvetica,sans-Serif" font-size="10.00">Tests.BlogStorageAddLikeTests.</text>
<text text-anchor="start" x="26.5" y="-501.5" font-family="Helvetica,sans-Serif" font-size="10.00">AddLike_ShouldAddLike_WhenUserHasNot</text>
<text text-anchor="middle" x="130" y="-490.5" font-family="Helvetica,sans-Serif" font-size="10.00">LikedBefore</text>
</a>
</g>
</g>
<!-- Node1&#45;&gt;Node4 -->
<g id="edge3_Node000001_Node000004" class="edge">
<title>Node1&#45;&gt;Node4</title>
<g id="a_edge3_Node000001_Node000004"><a xlink:title=" ">
<path fill="none" stroke="#63b8ff" d="M358.26,-340.41C342.48,-375.69 308.82,-439.76 260,-474.5 254.23,-478.6 248.01,-482.23 241.52,-485.42"/>
<polygon fill="#63b8ff" stroke="#63b8ff" points="361.64,-341.43 362.41,-330.86 355.22,-338.64 361.64,-341.43"/>
</a>
</g>
</g>
<!-- Node5 -->
<g id="Node000005" class="node">
<title>Node5</title>
<g id="a_Node000005"><a xlink:href="classMiniBlogApp_1_1Tests_1_1ServiceTests_1_1BlogStorageEdgeCaseTests.html#aec8ec0acfe2096ca777d79eda97e521a" target="_top" xlink:title="Tests case sensitivity for usernames when adding likes.">
<polygon fill="white" stroke="#666666" points="219.5,-465.5 40.5,-465.5 40.5,-413.5 219.5,-413.5 219.5,-465.5"/>
<text text-anchor="start" x="48.5" y="-453.5" font-family="Helvetica,sans-Serif" font-size="10.00">MiniBlogApp.Tests.Service</text>
<text text-anchor="start" x="48.5" y="-442.5" font-family="Helvetica,sans-Serif" font-size="10.00">Tests.BlogStorageEdgeCaseTests.</text>
<text text-anchor="start" x="48.5" y="-431.5" font-family="Helvetica,sans-Serif" font-size="10.00">AddLike_ShouldBeCaseSensitive</text>
<text text-anchor="middle" x="130" y="-420.5" font-family="Helvetica,sans-Serif" font-size="10.00">_Usernames</text>
</a>
</g>
</g>
<!-- Node1&#45;&gt;Node5 -->
<g id="edge4_Node000001_Node000005" class="edge">
<title>Node1&#45;&gt;Node5</title>
<g id="a_edge4_Node000001_Node000005"><a xlink:title=" ">
<path fill="none" stroke="#63b8ff" d="M346.9,-337.98C326.33,-358.15 293.6,-387.18 260,-404.5 247.42,-410.99 233.51,-416.37 219.62,-420.8"/>
<polygon fill="#63b8ff" stroke="#63b8ff" points="349.57,-340.27 354.17,-330.72 344.62,-335.32 349.57,-340.27"/>
</a>
</g>
</g>
<!-- Node6 -->
<g id="Node000006" class="node">
<title>Node6</title>
<g id="a_Node000006"><a xlink:href="classMiniBlogApp_1_1Tests_1_1ServiceTests_1_1BlogStorageAdvancedTests.html#ada5c45f0037e44547feb1500b704843d" target="_top" xlink:title="Tests adding likes to a post.">
<polygon fill="white" stroke="#666666" points="249.5,-395 10.5,-395 10.5,-354 249.5,-354 249.5,-395"/>
<text text-anchor="start" x="18.5" y="-383" font-family="Helvetica,sans-Serif" font-size="10.00">MiniBlogApp.Tests.Service</text>
<text text-anchor="start" x="18.5" y="-372" font-family="Helvetica,sans-Serif" font-size="10.00">Tests.BlogStorageAdvancedTests.</text>
<text text-anchor="middle" x="130" y="-361" font-family="Helvetica,sans-Serif" font-size="10.00">AddLike_ShouldLogMessageOnlyOncePerUser</text>
</a>
</g>
</g>
<!-- Node1&#45;&gt;Node6 -->
<g id="edge5_Node000001_Node000006" class="edge">
<title>Node1&#45;&gt;Node6</title>
<g id="a_edge5_Node000001_Node000006"><a xlink:title=" ">
<path fill="none" stroke="#63b8ff" d="M306.42,-333.22C291.27,-337.39 275.08,-341.72 260,-345.5 248.64,-348.34 236.69,-351.21 224.83,-353.97"/>
<polygon fill="#63b8ff" stroke="#63b8ff" points="307.51,-336.55 316.21,-330.51 305.64,-329.81 307.51,-336.55"/>
</a>
</g>
</g>
<!-- Node7 -->
<g id="Node000007" class="node">
<title>Node7</title>
<g id="a_Node000007"><a xlink:href="classMiniBlogApp_1_1Tests_1_1ServiceTests_1_1BlogStorageAddLikeTests.html#ac1474c69a66afa195cf84cd0e36d3d78" target="_top" xlink:title="Ensures that duplicate likes from the same user are not added.">
<polygon fill="white" stroke="#666666" points="230,-336 30,-336 30,-295 230,-295 230,-336"/>
<text text-anchor="start" x="38" y="-324" font-family="Helvetica,sans-Serif" font-size="10.00">MiniBlogApp.Tests.Service</text>
<text text-anchor="start" x="38" y="-313" font-family="Helvetica,sans-Serif" font-size="10.00">Tests.BlogStorageAddLikeTests.</text>
<text text-anchor="middle" x="130" y="-302" font-family="Helvetica,sans-Serif" font-size="10.00">AddLike_ShouldNotAddDuplicateLikes</text>
</a>
</g>
</g>
<!-- Node1&#45;&gt;Node7 -->
<g id="edge6_Node000001_Node000007" class="edge">
<title>Node1&#45;&gt;Node7</title>
<g id="a_edge6_Node000001_Node000007"><a xlink:title=" ">
<path fill="none" stroke="#63b8ff" d="M285.83,-315.5C267.89,-315.5 248.73,-315.5 230.22,-315.5"/>
<polygon fill="#63b8ff" stroke="#63b8ff" points="285.95,-319 295.95,-315.5 285.95,-312 285.95,-319"/>
</a>
</g>
</g>
<!-- Node8 -->
<g id="Node000008" class="node">
<title>Node8</title>
<g id="a_Node000008"><a xlink:href="classMiniBlogApp_1_1Tests_1_1ServiceTests_1_1BlogStorageAddPostTests.html#ae9c84756161500aefa09cfbd90bdb7d2" target="_top" xlink:title="Verifies that a new post is correctly added to storage.">
<polygon fill="white" stroke="#666666" points="219.5,-277 40.5,-277 40.5,-236 219.5,-236 219.5,-277"/>
<text text-anchor="start" x="48.5" y="-265" font-family="Helvetica,sans-Serif" font-size="10.00">MiniBlogApp.Tests.Service</text>
<text text-anchor="start" x="48.5" y="-254" font-family="Helvetica,sans-Serif" font-size="10.00">Tests.BlogStorageAddPostTests.</text>
<text text-anchor="middle" x="130" y="-243" font-family="Helvetica,sans-Serif" font-size="10.00">AddPost_ShouldAddPostCorrectly</text>
</a>
</g>
</g>
<!-- Node1&#45;&gt;Node8 -->
<g id="edge7_Node000001_Node000008" class="edge">
<title>Node1&#45;&gt;Node8</title>
<g id="a_edge7_Node000001_Node000008"><a xlink:title=" ">
<path fill="none" stroke="#63b8ff" d="M303.85,-297.85C289.44,-294.02 274.22,-290.05 260,-286.5 246.95,-283.24 233.13,-279.9 219.57,-276.69"/>
<polygon fill="#63b8ff" stroke="#63b8ff" points="303.11,-301.27 313.67,-300.47 304.91,-294.51 303.11,-301.27"/>
</a>
</g>
</g>
<!-- Node9 -->
<g id="Node000009" class="node">
<title>Node9</title>
<g id="a_Node000009"><a xlink:href="classMiniBlogApp_1_1Tests_1_1ServiceTests_1_1BlogStorageAdvancedTests.html#ae0300ebf08f5bd96b83210576857689f" target="_top" xlink:title="Tests adding multiple posts.">
<polygon fill="white" stroke="#666666" points="260,-218 0,-218 0,-177 260,-177 260,-218"/>
<text text-anchor="start" x="8" y="-206" font-family="Helvetica,sans-Serif" font-size="10.00">MiniBlogApp.Tests.Service</text>
<text text-anchor="start" x="8" y="-195" font-family="Helvetica,sans-Serif" font-size="10.00">Tests.BlogStorageAdvancedTests.</text>
<text text-anchor="middle" x="130" y="-184" font-family="Helvetica,sans-Serif" font-size="10.00">AddPost_ShouldAssignUniqueIdsAndLogMessages</text>
</a>
</g>
</g>
<!-- Node1&#45;&gt;Node9 -->
<g id="edge8_Node000001_Node000009" class="edge">
<title>Node1&#45;&gt;Node9</title>
<g id="a_edge8_Node000001_Node000009"><a xlink:title=" ">
<path fill="none" stroke="#63b8ff" d="M347,-293C326.5,-272.86 293.81,-244.04 260,-227.5 252.77,-223.96 245.11,-220.83 237.26,-218.06"/>
<polygon fill="#63b8ff" stroke="#63b8ff" points="344.7,-295.64 354.24,-300.25 349.65,-290.7 344.7,-295.64"/>
</a>
</g>
</g>
<!-- Node10 -->
<g id="Node000010" class="node">
<title>Node10</title>
<g id="a_Node000010"><a xlink:href="classMiniBlogApp_1_1Tests_1_1ServiceTests_1_1BlogStorageEdgeCaseTests.html#a8aa093384864a6a5cb4a9645b57a8d06" target="_top" xlink:title="Tests adding a post with very long content.">
<polygon fill="white" stroke="#666666" points="236,-159 24,-159 24,-118 236,-118 236,-159"/>
<text text-anchor="start" x="32" y="-147" font-family="Helvetica,sans-Serif" font-size="10.00">MiniBlogApp.Tests.Service</text>
<text text-anchor="start" x="32" y="-136" font-family="Helvetica,sans-Serif" font-size="10.00">Tests.BlogStorageEdgeCaseTests.</text>
<text text-anchor="middle" x="130" y="-125" font-family="Helvetica,sans-Serif" font-size="10.00">AddPost_ShouldHandleVeryLongContent</text>
</a>
</g>
</g>
<!-- Node1&#45;&gt;Node10 -->
<g id="edge9_Node000001_Node000010" class="edge">
<title>Node1&#45;&gt;Node10</title>
<g id="a_edge9_Node000001_Node000010"><a xlink:title=" ">
<path fill="none" stroke="#63b8ff" d="M357.2,-290.8C340.71,-257.63 306.83,-199.3 260,-168.5 252.6,-163.64 244.51,-159.56 236.11,-156.14"/>
<polygon fill="#63b8ff" stroke="#63b8ff" points="354.26,-292.75 361.76,-300.23 360.56,-289.7 354.26,-292.75"/>
</a>
</g>
</g>
<!-- Node11 -->
<g id="Node000011" class="node">
<title>Node11</title>
<g id="a_Node000011"><a xlink:href="classMiniBlogApp_1_1Tests_1_1ServiceTests_1_1BlogStorageAdvancedTests.html#a8b4f3244ca995d5fbdf1147eba81690d" target="_top" xlink:title="Tests deleting a post.">
<polygon fill="white" stroke="#666666" points="219.5,-100 40.5,-100 40.5,-59 219.5,-59 219.5,-100"/>
<text text-anchor="start" x="48.5" y="-88" font-family="Helvetica,sans-Serif" font-size="10.00">MiniBlogApp.Tests.Service</text>
<text text-anchor="start" x="48.5" y="-77" font-family="Helvetica,sans-Serif" font-size="10.00">Tests.BlogStorageAdvancedTests.</text>
<text text-anchor="middle" x="130" y="-66" font-family="Helvetica,sans-Serif" font-size="10.00">DeletePost_ShouldRemovePost</text>
</a>
</g>
</g>
<!-- Node1&#45;&gt;Node11 -->
<g id="edge10_Node000001_Node000011" class="edge">
<title>Node1&#45;&gt;Node11</title>
<g id="a_edge10_Node000001_Node000011"><a xlink:title=" ">
<path fill="none" stroke="#63b8ff" d="M362.59,-290.41C350.92,-246.58 320.6,-156.27 260,-109.5 248.17,-100.37 234.03,-93.94 219.51,-89.43"/>
<polygon fill="#63b8ff" stroke="#63b8ff" points="359.24,-291.43 365.11,-300.26 366.02,-289.7 359.24,-291.43"/>
</a>
</g>
</g>
<!-- Node12 -->
<g id="Node000012" class="node">
<title>Node12</title>
<g id="a_Node000012"><a xlink:href="classMiniBlogApp_1_1Tests_1_1ServiceTests_1_1BlogStorageAdvancedTests.html#abb350cdef01b43c174685877d4b88370" target="_top" xlink:title="Tests updating the content of a post.">
<polygon fill="white" stroke="#666666" points="223,-41 37,-41 37,0 223,0 223,-41"/>
<text text-anchor="start" x="45" y="-29" font-family="Helvetica,sans-Serif" font-size="10.00">MiniBlogApp.Tests.Service</text>
<text text-anchor="start" x="45" y="-18" font-family="Helvetica,sans-Serif" font-size="10.00">Tests.BlogStorageAdvancedTests.</text>
<text text-anchor="middle" x="130" y="-7" font-family="Helvetica,sans-Serif" font-size="10.00">UpdatePost_ShouldChangeContent</text>
</a>
</g>
</g>
<!-- Node1&#45;&gt;Node12 -->
<g id="edge11_Node000001_Node000012" class="edge">
<title>Node1&#45;&gt;Node12</title>
<g id="a_edge11_Node000001_Node000012"><a xlink:title=" ">
<path fill="none" stroke="#63b8ff" d="M365.8,-290.25C358.73,-237.26 334.74,-114.14 260,-50.5 249.41,-41.48 236.62,-35.05 223.26,-30.49"/>
<polygon fill="#63b8ff" stroke="#63b8ff" points="362.36,-290.95 367.06,-300.44 369.31,-290.09 362.36,-290.95"/>
</a>
</g>
</g>
</g>
</svg>
