<?xml version="1.0" encoding="UTF-8" standalone="no"?>
<!DOCTYPE svg PUBLIC "-//W3C//DTD SVG 1.1//EN"
 "http://www.w3.org/Graphics/SVG/1.1/DTD/svg11.dtd">
<!-- Generated by graphviz version 2.43.0 (0)
 -->
<!-- Title: MiniBlogApp.Services.BlogStorage.GetPostByIdInternal Pages: 1 -->
<svg width="633pt" height="625pt"
 viewBox="0.00 0.00 633.00 625.00" xmlns="http://www.w3.org/2000/svg" xmlns:xlink="http://www.w3.org/1999/xlink">
<g id="graph0" class="graph" transform="scale(1 1) rotate(0) translate(4 621)">
<title>MiniBlogApp.Services.BlogStorage.GetPostByIdInternal</title>
<!-- Node1 -->
<g id="Node000001" class="node">
<title>Node1</title>
<g id="a_Node000001"><a xlink:title=" ">
<polygon fill="#999999" stroke="#666666" points="625,-376.5 470,-376.5 470,-346.5 625,-346.5 625,-376.5"/>
<text text-anchor="start" x="478" y="-364.5" font-family="Helvetica,sans-Serif" font-size="10.00">MiniBlogApp.Services.Blog</text>
<text text-anchor="middle" x="547.5" y="-353.5" font-family="Helvetica,sans-Serif" font-size="10.00">Storage.GetPostByIdInternal</text>
</a>
</g>
</g>
<!-- Node2 -->
<g id="Node000002" class="node">
<title>Node2</title>
<g id="a_Node000002"><a xlink:href="classMiniBlogApp_1_1Services_1_1BlogStorage.html#aab4b12aa767418faa1604f0005fddec6" target="_top" xlink:title=" ">
<polygon fill="white" stroke="#666666" points="434,-552.5 287,-552.5 287,-522.5 434,-522.5 434,-552.5"/>
<text text-anchor="start" x="295" y="-540.5" font-family="Helvetica,sans-Serif" font-size="10.00">MiniBlogApp.Services.Blog</text>
<text text-anchor="middle" x="360.5" y="-529.5" font-family="Helvetica,sans-Serif" font-size="10.00">Storage.AddComment</text>
</a>
</g>
</g>
<!-- Node1&#45;&gt;Node2 -->
<g id="edge1_Node000001_Node000002" class="edge">
<title>Node1&#45;&gt;Node2</title>
<g id="a_edge1_Node000001_Node000002"><a xlink:title=" ">
<path fill="none" stroke="#63b8ff" d="M532.08,-385.65C512.87,-416.14 476.37,-468.69 434,-502.5 424.17,-510.35 412.29,-517 401.02,-522.33"/>
<polygon fill="#63b8ff" stroke="#63b8ff" points="535.18,-387.28 537.47,-376.94 529.23,-383.6 535.18,-387.28"/>
</a>
</g>
</g>
<!-- Node5 -->
<g id="Node000005" class="node">
<title>Node5</title>
<g id="a_Node000005"><a xlink:href="classMiniBlogApp_1_1Services_1_1BlogStorage.html#a1b858ba0dd0de0e695ea806daaf09fd7" target="_top" xlink:title=" ">
<polygon fill="white" stroke="#666666" points="434,-264.5 287,-264.5 287,-234.5 434,-234.5 434,-264.5"/>
<text text-anchor="start" x="295" y="-252.5" font-family="Helvetica,sans-Serif" font-size="10.00">MiniBlogApp.Services.Blog</text>
<text text-anchor="middle" x="360.5" y="-241.5" font-family="Helvetica,sans-Serif" font-size="10.00">Storage.AddLike</text>
</a>
</g>
</g>
<!-- Node1&#45;&gt;Node5 -->
<g id="edge4_Node000001_Node000005" class="edge">
<title>Node1&#45;&gt;Node5</title>
<g id="a_edge4_Node000001_Node000005"><a xlink:title=" ">
<path fill="none" stroke="#63b8ff" d="M512.75,-341.07C476.25,-318.97 418.94,-284.27 386.35,-264.54"/>
<polygon fill="#63b8ff" stroke="#63b8ff" points="511.18,-344.21 521.55,-346.4 514.81,-338.22 511.18,-344.21"/>
</a>
</g>
</g>
<!-- Node11 -->
<g id="Node000011" class="node">
<title>Node11</title>
<g id="a_Node000011"><a xlink:href="classMiniBlogApp_1_1Services_1_1BlogStorage.html#af4a20aaddcf64ed90f707b385ea36ce9" target="_top" xlink:title=" ">
<polygon fill="white" stroke="#666666" points="434,-216.5 287,-216.5 287,-186.5 434,-186.5 434,-216.5"/>
<text text-anchor="start" x="295" y="-204.5" font-family="Helvetica,sans-Serif" font-size="10.00">MiniBlogApp.Services.Blog</text>
<text text-anchor="middle" x="360.5" y="-193.5" font-family="Helvetica,sans-Serif" font-size="10.00">Storage.AddReply</text>
</a>
</g>
</g>
<!-- Node1&#45;&gt;Node11 -->
<g id="edge10_Node000001_Node000011" class="edge">
<title>Node1&#45;&gt;Node11</title>
<g id="a_edge10_Node000001_Node000011"><a xlink:title=" ">
<path fill="none" stroke="#63b8ff" d="M532.81,-337.84C514.17,-307.61 478.01,-255.59 434,-225.5 428.97,-222.06 423.4,-219.08 417.65,-216.51"/>
<polygon fill="#63b8ff" stroke="#63b8ff" points="529.86,-339.72 538.03,-346.48 535.86,-336.11 529.86,-339.72"/>
</a>
</g>
</g>
<!-- Node12 -->
<g id="Node000012" class="node">
<title>Node12</title>
<g id="a_Node000012"><a xlink:href="classMiniBlogApp_1_1Services_1_1BlogStorage.html#ad6f8ac6276913167d0618544fcac3647" target="_top" xlink:title=" ">
<polygon fill="white" stroke="#666666" points="434,-431.5 287,-431.5 287,-401.5 434,-401.5 434,-431.5"/>
<text text-anchor="start" x="295" y="-419.5" font-family="Helvetica,sans-Serif" font-size="10.00">MiniBlogApp.Services.Blog</text>
<text text-anchor="middle" x="360.5" y="-408.5" font-family="Helvetica,sans-Serif" font-size="10.00">Storage.DeletePost</text>
</a>
</g>
</g>
<!-- Node1&#45;&gt;Node12 -->
<g id="edge11_Node000001_Node000012" class="edge">
<title>Node1&#45;&gt;Node12</title>
<g id="a_edge11_Node000001_Node000012"><a xlink:title=" ">
<path fill="none" stroke="#63b8ff" d="M486.24,-379.42C462.24,-386.55 434.93,-394.67 411.99,-401.49"/>
<polygon fill="#63b8ff" stroke="#63b8ff" points="487.36,-382.73 495.95,-376.53 485.37,-376.02 487.36,-382.73"/>
</a>
</g>
</g>
<!-- Node14 -->
<g id="Node000014" class="node">
<title>Node14</title>
<g id="a_Node000014"><a xlink:href="classMiniBlogApp_1_1Services_1_1BlogStorage.html#ab51db63cff22415b1638db17e6cfbe2e" target="_top" xlink:title=" ">
<polygon fill="white" stroke="#666666" points="434,-493.5 287,-493.5 287,-463.5 434,-463.5 434,-493.5"/>
<text text-anchor="start" x="295" y="-481.5" font-family="Helvetica,sans-Serif" font-size="10.00">MiniBlogApp.Services.Blog</text>
<text text-anchor="middle" x="360.5" y="-470.5" font-family="Helvetica,sans-Serif" font-size="10.00">Storage.GetPostById</text>
</a>
</g>
</g>
<!-- Node1&#45;&gt;Node14 -->
<g id="edge13_Node000001_Node000014" class="edge">
<title>Node1&#45;&gt;Node14</title>
<g id="a_edge13_Node000001_Node000014"><a xlink:title=" ">
<path fill="none" stroke="#63b8ff" d="M518.66,-382.57C496.3,-399.12 463.81,-422.32 434,-440.5 420.65,-448.64 405.39,-456.8 392.32,-463.46"/>
<polygon fill="#63b8ff" stroke="#63b8ff" points="520.77,-385.36 526.71,-376.58 516.59,-379.74 520.77,-385.36"/>
</a>
</g>
</g>
<!-- Node16 -->
<g id="Node000016" class="node">
<title>Node16</title>
<g id="a_Node000016"><a xlink:href="classMiniBlogApp_1_1Services_1_1BlogStorage.html#adc4d633db45f90b3aa8503a3ade2f89a" target="_top" xlink:title=" ">
<polygon fill="white" stroke="#666666" points="434,-168.5 287,-168.5 287,-138.5 434,-138.5 434,-168.5"/>
<text text-anchor="start" x="295" y="-156.5" font-family="Helvetica,sans-Serif" font-size="10.00">MiniBlogApp.Services.Blog</text>
<text text-anchor="middle" x="360.5" y="-145.5" font-family="Helvetica,sans-Serif" font-size="10.00">Storage.RemoveLike</text>
</a>
</g>
</g>
<!-- Node1&#45;&gt;Node16 -->
<g id="edge18_Node000001_Node000016" class="edge">
<title>Node1&#45;&gt;Node16</title>
<g id="a_edge18_Node000001_Node000016"><a xlink:title=" ">
<path fill="none" stroke="#63b8ff" d="M537.85,-336.81C522.84,-297.45 488.25,-220.55 434,-177.5 429.64,-174.04 424.76,-171.07 419.64,-168.52"/>
<polygon fill="#63b8ff" stroke="#63b8ff" points="534.65,-338.25 541.41,-346.41 541.22,-335.82 534.65,-338.25"/>
</a>
</g>
</g>
<!-- Node17 -->
<g id="Node000017" class="node">
<title>Node17</title>
<g id="a_Node000017"><a xlink:href="classMiniBlogApp_1_1Services_1_1BlogStorage.html#a8382aab441976b6e4be64008f419c294" target="_top" xlink:title=" ">
<polygon fill="white" stroke="#666666" points="434,-376.5 287,-376.5 287,-346.5 434,-346.5 434,-376.5"/>
<text text-anchor="start" x="295" y="-364.5" font-family="Helvetica,sans-Serif" font-size="10.00">MiniBlogApp.Services.Blog</text>
<text text-anchor="middle" x="360.5" y="-353.5" font-family="Helvetica,sans-Serif" font-size="10.00">Storage.UpdatePost</text>
</a>
</g>
</g>
<!-- Node1&#45;&gt;Node17 -->
<g id="edge19_Node000001_Node000017" class="edge">
<title>Node1&#45;&gt;Node17</title>
<g id="a_edge19_Node000001_Node000017"><a xlink:title=" ">
<path fill="none" stroke="#63b8ff" d="M459.87,-361.5C451.27,-361.5 442.6,-361.5 434.16,-361.5"/>
<polygon fill="#63b8ff" stroke="#63b8ff" points="459.92,-365 469.92,-361.5 459.92,-358 459.92,-365"/>
</a>
</g>
</g>
<!-- Node3 -->
<g id="Node000003" class="node">
<title>Node3</title>
<g id="a_Node000003"><a xlink:href="classMiniBlogApp_1_1Tests_1_1ServiceTests_1_1BlogStorageAdvancedTests.html#a926a950518d2aefff07bfd0838ac5111" target="_top" xlink:title="Tests adding a comment to a post.">
<polygon fill="white" stroke="#666666" points="251,-617 0,-617 0,-576 251,-576 251,-617"/>
<text text-anchor="start" x="8" y="-605" font-family="Helvetica,sans-Serif" font-size="10.00">MiniBlogApp.Tests.Service</text>
<text text-anchor="start" x="8" y="-594" font-family="Helvetica,sans-Serif" font-size="10.00">Tests.BlogStorageAdvancedTests.</text>
<text text-anchor="middle" x="125.5" y="-583" font-family="Helvetica,sans-Serif" font-size="10.00">AddComment_ShouldAddToPostAndLogMessage</text>
</a>
</g>
</g>
<!-- Node2&#45;&gt;Node3 -->
<g id="edge2_Node000002_Node000003" class="edge">
<title>Node2&#45;&gt;Node3</title>
<g id="a_edge2_Node000002_Node000003"><a xlink:title=" ">
<path fill="none" stroke="#63b8ff" d="M297.17,-555.2C282.09,-559.36 265.99,-563.68 251,-567.5 239.92,-570.32 228.27,-573.18 216.71,-575.95"/>
<polygon fill="#63b8ff" stroke="#63b8ff" points="298.21,-558.55 306.91,-552.51 296.34,-551.8 298.21,-558.55"/>
</a>
</g>
</g>
<!-- Node4 -->
<g id="Node000004" class="node">
<title>Node4</title>
<g id="a_Node000004"><a xlink:href="classMiniBlogApp_1_1Tests_1_1ServiceTests_1_1BlogStorageEdgeCaseTests.html#a77050fdef1a23f31b5a132396de535cd" target="_top" xlink:title="Tests adding a comment with empty text.">
<polygon fill="white" stroke="#666666" points="229.5,-558 21.5,-558 21.5,-517 229.5,-517 229.5,-558"/>
<text text-anchor="start" x="29.5" y="-546" font-family="Helvetica,sans-Serif" font-size="10.00">MiniBlogApp.Tests.Service</text>
<text text-anchor="start" x="29.5" y="-535" font-family="Helvetica,sans-Serif" font-size="10.00">Tests.BlogStorageEdgeCaseTests.</text>
<text text-anchor="middle" x="125.5" y="-524" font-family="Helvetica,sans-Serif" font-size="10.00">AddComment_ShouldHandleEmptyText</text>
</a>
</g>
</g>
<!-- Node2&#45;&gt;Node4 -->
<g id="edge3_Node000002_Node000004" class="edge">
<title>Node2&#45;&gt;Node4</title>
<g id="a_edge3_Node000002_Node000004"><a xlink:title=" ">
<path fill="none" stroke="#63b8ff" d="M276.44,-537.5C261.35,-537.5 245.45,-537.5 229.87,-537.5"/>
<polygon fill="#63b8ff" stroke="#63b8ff" points="276.74,-541 286.74,-537.5 276.74,-534 276.74,-541"/>
</a>
</g>
</g>
<!-- Node6 -->
<g id="Node000006" class="node">
<title>Node6</title>
<g id="a_Node000006"><a xlink:href="classMiniBlogApp_1_1Tests_1_1ServiceTests_1_1BlogStorageAddLikeTests.html#a94481ba55790720f50e31095d7f5d30d" target="_top" xlink:title="Verifies that a like is added when the user has not liked the post before.">
<polygon fill="white" stroke="#666666" points="237,-310.5 14,-310.5 14,-258.5 237,-258.5 237,-310.5"/>
<text text-anchor="start" x="22" y="-298.5" font-family="Helvetica,sans-Serif" font-size="10.00">MiniBlogApp.Tests.Service</text>
<text text-anchor="start" x="22" y="-287.5" font-family="Helvetica,sans-Serif" font-size="10.00">Tests.BlogStorageAddLikeTests.</text>
<text text-anchor="start" x="22" y="-276.5" font-family="Helvetica,sans-Serif" font-size="10.00">AddLike_ShouldAddLike_WhenUserHasNot</text>
<text text-anchor="middle" x="125.5" y="-265.5" font-family="Helvetica,sans-Serif" font-size="10.00">LikedBefore</text>
</a>
</g>
</g>
<!-- Node5&#45;&gt;Node6 -->
<g id="edge5_Node000005_Node000006" class="edge">
<title>Node5&#45;&gt;Node6</title>
<g id="a_edge5_Node000005_Node000006"><a xlink:title=" ">
<path fill="none" stroke="#63b8ff" d="M276.61,-261.95C263.81,-263.87 250.42,-265.88 237.13,-267.88"/>
<polygon fill="#63b8ff" stroke="#63b8ff" points="277.37,-265.38 286.74,-260.43 276.33,-258.45 277.37,-265.38"/>
</a>
</g>
</g>
<!-- Node7 -->
<g id="Node000007" class="node">
<title>Node7</title>
<g id="a_Node000007"><a xlink:href="classMiniBlogApp_1_1Tests_1_1ServiceTests_1_1BlogStorageEdgeCaseTests.html#aec8ec0acfe2096ca777d79eda97e521a" target="_top" xlink:title="Tests case sensitivity for usernames when adding likes.">
<polygon fill="white" stroke="#666666" points="215,-240.5 36,-240.5 36,-188.5 215,-188.5 215,-240.5"/>
<text text-anchor="start" x="44" y="-228.5" font-family="Helvetica,sans-Serif" font-size="10.00">MiniBlogApp.Tests.Service</text>
<text text-anchor="start" x="44" y="-217.5" font-family="Helvetica,sans-Serif" font-size="10.00">Tests.BlogStorageEdgeCaseTests.</text>
<text text-anchor="start" x="44" y="-206.5" font-family="Helvetica,sans-Serif" font-size="10.00">AddLike_ShouldBeCaseSensitive</text>
<text text-anchor="middle" x="125.5" y="-195.5" font-family="Helvetica,sans-Serif" font-size="10.00">_Usernames</text>
</a>
</g>
</g>
<!-- Node5&#45;&gt;Node7 -->
<g id="edge6_Node000005_Node000007" class="edge">
<title>Node5&#45;&gt;Node7</title>
<g id="a_edge6_Node000005_Node000007"><a xlink:title=" ">
<path fill="none" stroke="#63b8ff" d="M276.74,-237.07C256.76,-234.07 235.33,-230.85 215.09,-227.81"/>
<polygon fill="#63b8ff" stroke="#63b8ff" points="276.33,-240.55 286.74,-238.57 277.37,-233.62 276.33,-240.55"/>
</a>
</g>
</g>
<!-- Node8 -->
<g id="Node000008" class="node">
<title>Node8</title>
<g id="a_Node000008"><a xlink:href="classMiniBlogApp_1_1Tests_1_1ServiceTests_1_1BlogStorageAddLikeTests.html#a71aa18a48357b1b3b7f2ee5f5375d572" target="_top" xlink:title="Verifies behavior when attempting to add a like to a non&#45;existent post.">
<polygon fill="white" stroke="#666666" points="237.5,-170.5 13.5,-170.5 13.5,-118.5 237.5,-118.5 237.5,-170.5"/>
<text text-anchor="start" x="21.5" y="-158.5" font-family="Helvetica,sans-Serif" font-size="10.00">MiniBlogApp.Tests.Service</text>
<text text-anchor="start" x="21.5" y="-147.5" font-family="Helvetica,sans-Serif" font-size="10.00">Tests.BlogStorageAddLikeTests.</text>
<text text-anchor="start" x="21.5" y="-136.5" font-family="Helvetica,sans-Serif" font-size="10.00">AddLike_ShouldDoNothing_WhenPostDoes</text>
<text text-anchor="middle" x="125.5" y="-125.5" font-family="Helvetica,sans-Serif" font-size="10.00">NotExist</text>
</a>
</g>
</g>
<!-- Node5&#45;&gt;Node8 -->
<g id="edge7_Node000005_Node000008" class="edge">
<title>Node5&#45;&gt;Node8</title>
<g id="a_edge7_Node000005_Node000008"><a xlink:title=" ">
<path fill="none" stroke="#63b8ff" d="M293.68,-229.74C291.37,-228.42 289.13,-227 287,-225.5 265.77,-210.56 272.57,-193.95 251,-179.5 246.15,-176.25 241,-173.3 235.66,-170.62"/>
<polygon fill="#63b8ff" stroke="#63b8ff" points="292.38,-233.01 302.88,-234.46 295.58,-226.78 292.38,-233.01"/>
</a>
</g>
</g>
<!-- Node9 -->
<g id="Node000009" class="node">
<title>Node9</title>
<g id="a_Node000009"><a xlink:href="classMiniBlogApp_1_1Tests_1_1ServiceTests_1_1BlogStorageAdvancedTests.html#ada5c45f0037e44547feb1500b704843d" target="_top" xlink:title="Tests adding likes to a post.">
<polygon fill="white" stroke="#666666" points="245,-100 6,-100 6,-59 245,-59 245,-100"/>
<text text-anchor="start" x="14" y="-88" font-family="Helvetica,sans-Serif" font-size="10.00">MiniBlogApp.Tests.Service</text>
<text text-anchor="start" x="14" y="-77" font-family="Helvetica,sans-Serif" font-size="10.00">Tests.BlogStorageAdvancedTests.</text>
<text text-anchor="middle" x="125.5" y="-66" font-family="Helvetica,sans-Serif" font-size="10.00">AddLike_ShouldLogMessageOnlyOncePerUser</text>
</a>
</g>
</g>
<!-- Node5&#45;&gt;Node9 -->
<g id="edge8_Node000005_Node000009" class="edge">
<title>Node5&#45;&gt;Node9</title>
<g id="a_edge8_Node000005_Node000009"><a xlink:title=" ">
<path fill="none" stroke="#63b8ff" d="M289.93,-228.26C288.92,-227.38 287.94,-226.46 287,-225.5 249.19,-186.97 290.38,-146.42 251,-109.5 247.27,-106 243.2,-102.89 238.89,-100.13"/>
<polygon fill="#63b8ff" stroke="#63b8ff" points="288.16,-231.3 298.31,-234.34 292.27,-225.63 288.16,-231.3"/>
</a>
</g>
</g>
<!-- Node10 -->
<g id="Node000010" class="node">
<title>Node10</title>
<g id="a_Node000010"><a xlink:href="classMiniBlogApp_1_1Tests_1_1ServiceTests_1_1BlogStorageAddLikeTests.html#ac1474c69a66afa195cf84cd0e36d3d78" target="_top" xlink:title="Ensures that duplicate likes from the same user are not added.">
<polygon fill="white" stroke="#666666" points="225.5,-41 25.5,-41 25.5,0 225.5,0 225.5,-41"/>
<text text-anchor="start" x="33.5" y="-29" font-family="Helvetica,sans-Serif" font-size="10.00">MiniBlogApp.Tests.Service</text>
<text text-anchor="start" x="33.5" y="-18" font-family="Helvetica,sans-Serif" font-size="10.00">Tests.BlogStorageAddLikeTests.</text>
<text text-anchor="middle" x="125.5" y="-7" font-family="Helvetica,sans-Serif" font-size="10.00">AddLike_ShouldNotAddDuplicateLikes</text>
</a>
</g>
</g>
<!-- Node5&#45;&gt;Node10 -->
<g id="edge9_Node000005_Node000010" class="edge">
<title>Node5&#45;&gt;Node10</title>
<g id="a_edge9_Node000005_Node000010"><a xlink:title=" ">
<path fill="none" stroke="#63b8ff" d="M289.4,-228.01C288.57,-227.2 287.77,-226.37 287,-225.5 233.97,-165.81 306.69,-106.72 251,-49.5 243.8,-42.1 235.11,-36.44 225.71,-32.12"/>
<polygon fill="#63b8ff" stroke="#63b8ff" points="287.57,-231.02 297.59,-234.48 291.91,-225.53 287.57,-231.02"/>
</a>
</g>
</g>
<!-- Node13 -->
<g id="Node000013" class="node">
<title>Node13</title>
<g id="a_Node000013"><a xlink:href="classMiniBlogApp_1_1Tests_1_1ServiceTests_1_1BlogStorageAdvancedTests.html#a8b4f3244ca995d5fbdf1147eba81690d" target="_top" xlink:title="Tests deleting a post.">
<polygon fill="white" stroke="#666666" points="215,-499 36,-499 36,-458 215,-458 215,-499"/>
<text text-anchor="start" x="44" y="-487" font-family="Helvetica,sans-Serif" font-size="10.00">MiniBlogApp.Tests.Service</text>
<text text-anchor="start" x="44" y="-476" font-family="Helvetica,sans-Serif" font-size="10.00">Tests.BlogStorageAdvancedTests.</text>
<text text-anchor="middle" x="125.5" y="-465" font-family="Helvetica,sans-Serif" font-size="10.00">DeletePost_ShouldRemovePost</text>
</a>
</g>
</g>
<!-- Node12&#45;&gt;Node13 -->
<g id="edge12_Node000012_Node000013" class="edge">
<title>Node12&#45;&gt;Node13</title>
<g id="a_edge12_Node000012_Node000013"><a xlink:title=" ">
<path fill="none" stroke="#63b8ff" d="M302.85,-434.51C286.21,-439.59 267.93,-444.96 251,-449.5 239.42,-452.6 227.19,-455.69 215.1,-458.63"/>
<polygon fill="#63b8ff" stroke="#63b8ff" points="303.9,-437.84 312.43,-431.56 301.84,-431.15 303.9,-437.84"/>
</a>
</g>
</g>
<!-- Node14&#45;&gt;Node3 -->
<g id="edge14_Node000014_Node000003" class="edge">
<title>Node14&#45;&gt;Node3</title>
<g id="a_edge14_Node000014_Node000003"><a xlink:title=" ">
<path fill="none" stroke="#63b8ff" d="M309.69,-498.13C301.64,-502.51 293.74,-507.63 287,-513.5 265.24,-532.44 274.71,-551.07 251,-567.5 246.44,-570.66 241.58,-573.48 236.53,-575.99"/>
<polygon fill="#63b8ff" stroke="#63b8ff" points="311.47,-501.15 318.8,-493.5 308.3,-494.92 311.47,-501.15"/>
</a>
</g>
</g>
<!-- Node14&#45;&gt;Node4 -->
<g id="edge15_Node000014_Node000004" class="edge">
<title>Node14&#45;&gt;Node4</title>
<g id="a_edge15_Node000014_Node000004"><a xlink:title=" ">
<path fill="none" stroke="#63b8ff" d="M297.17,-496.2C282.09,-500.36 265.99,-504.68 251,-508.5 239.92,-511.32 228.27,-514.18 216.71,-516.95"/>
<polygon fill="#63b8ff" stroke="#63b8ff" points="298.21,-499.55 306.91,-493.51 296.34,-492.8 298.21,-499.55"/>
</a>
</g>
</g>
<!-- Node14&#45;&gt;Node13 -->
<g id="edge16_Node000014_Node000013" class="edge">
<title>Node14&#45;&gt;Node13</title>
<g id="a_edge16_Node000014_Node000013"><a xlink:title=" ">
<path fill="none" stroke="#63b8ff" d="M276.47,-478.5C256.56,-478.5 235.23,-478.5 215.09,-478.5"/>
<polygon fill="#63b8ff" stroke="#63b8ff" points="276.74,-482 286.74,-478.5 276.74,-475 276.74,-482"/>
</a>
</g>
</g>
<!-- Node15 -->
<g id="Node000015" class="node">
<title>Node15</title>
<g id="a_Node000015"><a xlink:href="classMiniBlogApp_1_1Tests_1_1ServiceTests_1_1BlogStorageAdvancedTests.html#abb350cdef01b43c174685877d4b88370" target="_top" xlink:title="Tests updating the content of a post.">
<polygon fill="white" stroke="#666666" points="218.5,-440 32.5,-440 32.5,-399 218.5,-399 218.5,-440"/>
<text text-anchor="start" x="40.5" y="-428" font-family="Helvetica,sans-Serif" font-size="10.00">MiniBlogApp.Tests.Service</text>
<text text-anchor="start" x="40.5" y="-417" font-family="Helvetica,sans-Serif" font-size="10.00">Tests.BlogStorageAdvancedTests.</text>
<text text-anchor="middle" x="125.5" y="-406" font-family="Helvetica,sans-Serif" font-size="10.00">UpdatePost_ShouldChangeContent</text>
</a>
</g>
</g>
<!-- Node14&#45;&gt;Node15 -->
<g id="edge17_Node000014_Node000015" class="edge">
<title>Node14&#45;&gt;Node15</title>
<g id="a_edge17_Node000014_Node000015"><a xlink:title=" ">
<path fill="none" stroke="#63b8ff" d="M294.59,-460.87C280.25,-457.05 265.13,-453.09 251,-449.5 238.72,-446.38 225.73,-443.16 212.97,-440.04"/>
<polygon fill="#63b8ff" stroke="#63b8ff" points="293.81,-464.28 304.37,-463.48 295.61,-457.52 293.81,-464.28"/>
</a>
</g>
</g>
<!-- Node17&#45;&gt;Node15 -->
<g id="edge20_Node000017_Node000015" class="edge">
<title>Node17&#45;&gt;Node15</title>
<g id="a_edge20_Node000017_Node000015"><a xlink:title=" ">
<path fill="none" stroke="#63b8ff" d="M292.06,-379.08C278.48,-382.57 264.29,-386.18 251,-389.5 238.6,-392.59 225.48,-395.81 212.61,-398.94"/>
<polygon fill="#63b8ff" stroke="#63b8ff" points="293.02,-382.45 301.83,-376.57 291.27,-375.67 293.02,-382.45"/>
</a>
</g>
</g>
<!-- Node18 -->
<g id="Node000018" class="node">
<title>Node18</title>
<g id="a_Node000018"><a xlink:href="classMiniBlogApp_1_1Tests_1_1ServiceTests_1_1BlogStorageEdgeCaseTests.html#a14b447df63ab31278a1db44729736b58" target="_top" xlink:title="Tests updating a post that does not exist.">
<polygon fill="white" stroke="#666666" points="215,-380.5 36,-380.5 36,-328.5 215,-328.5 215,-380.5"/>
<text text-anchor="start" x="44" y="-368.5" font-family="Helvetica,sans-Serif" font-size="10.00">MiniBlogApp.Tests.Service</text>
<text text-anchor="start" x="44" y="-357.5" font-family="Helvetica,sans-Serif" font-size="10.00">Tests.BlogStorageEdgeCaseTests.</text>
<text text-anchor="start" x="44" y="-346.5" font-family="Helvetica,sans-Serif" font-size="10.00">UpdatePost_ShouldFailGracefully</text>
<text text-anchor="middle" x="125.5" y="-335.5" font-family="Helvetica,sans-Serif" font-size="10.00">_WhenPostDoesNotExist</text>
</a>
</g>
</g>
<!-- Node17&#45;&gt;Node18 -->
<g id="edge21_Node000017_Node000018" class="edge">
<title>Node17&#45;&gt;Node18</title>
<g id="a_edge21_Node000017_Node000018"><a xlink:title=" ">
<path fill="none" stroke="#63b8ff" d="M276.47,-359.01C256.56,-358.41 235.23,-357.77 215.09,-357.16"/>
<polygon fill="#63b8ff" stroke="#63b8ff" points="276.64,-362.51 286.74,-359.31 276.85,-355.52 276.64,-362.51"/>
</a>
</g>
</g>
</g>
</svg>
