<?xml version="1.0" encoding="UTF-8" standalone="no"?>
<!DOCTYPE svg PUBLIC "-//W3C//DTD SVG 1.1//EN"
 "http://www.w3.org/Graphics/SVG/1.1/DTD/svg11.dtd">
<!-- Generated by graphviz version 2.43.0 (0)
 -->
<!-- Title: MiniBlogApp.Services.BlogStorage.AddLike Pages: 1 -->
<svg width="430pt" height="319pt"
 viewBox="0.00 0.00 430.00 318.50" xmlns="http://www.w3.org/2000/svg" xmlns:xlink="http://www.w3.org/1999/xlink">
<g id="graph0" class="graph" transform="scale(1 1) rotate(0) translate(4 314.5)">
<title>MiniBlogApp.Services.BlogStorage.AddLike</title>
<!-- Node1 -->
<g id="Node000001" class="node">
<title>Node1</title>
<g id="a_Node000001"><a xlink:title=" ">
<polygon fill="#999999" stroke="#666666" points="422,-159.5 275,-159.5 275,-129.5 422,-129.5 422,-159.5"/>
<text text-anchor="start" x="283" y="-147.5" font-family="Helvetica,sans-Serif" font-size="10.00">MiniBlogApp.Services.Blog</text>
<text text-anchor="middle" x="348.5" y="-136.5" font-family="Helvetica,sans-Serif" font-size="10.00">Storage.AddLike</text>
</a>
</g>
</g>
<!-- Node2 -->
<g id="Node000002" class="node">
<title>Node2</title>
<g id="a_Node000002"><a xlink:href="classMiniBlogApp_1_1Tests_1_1ServiceTests_1_1BlogStorageAddLikeTests.html#a94481ba55790720f50e31095d7f5d30d" target="_top" xlink:title="Verifies that a like is added when the user has not liked the post before.">
<polygon fill="white" stroke="#666666" points="231,-310.5 8,-310.5 8,-258.5 231,-258.5 231,-310.5"/>
<text text-anchor="start" x="16" y="-298.5" font-family="Helvetica,sans-Serif" font-size="10.00">MiniBlogApp.Tests.Service</text>
<text text-anchor="start" x="16" y="-287.5" font-family="Helvetica,sans-Serif" font-size="10.00">Tests.BlogStorageAddLikeTests.</text>
<text text-anchor="start" x="16" y="-276.5" font-family="Helvetica,sans-Serif" font-size="10.00">AddLike_ShouldAddLike_WhenUserHasNot</text>
<text text-anchor="middle" x="119.5" y="-265.5" font-family="Helvetica,sans-Serif" font-size="10.00">LikedBefore</text>
</a>
</g>
</g>
<!-- Node1&#45;&gt;Node2 -->
<g id="edge1_Node000001_Node000002" class="edge">
<title>Node1&#45;&gt;Node2</title>
<g id="a_edge1_Node000001_Node000002"><a xlink:title=" ">
<path fill="none" stroke="#63b8ff" d="M329.49,-167.56C309.72,-191.38 275.86,-228 239,-249.5 233.44,-252.74 227.56,-255.71 221.5,-258.41"/>
<polygon fill="#63b8ff" stroke="#63b8ff" points="332.27,-169.69 335.87,-159.72 326.84,-165.27 332.27,-169.69"/>
</a>
</g>
</g>
<!-- Node3 -->
<g id="Node000003" class="node">
<title>Node3</title>
<g id="a_Node000003"><a xlink:href="classMiniBlogApp_1_1Tests_1_1ServiceTests_1_1BlogStorageEdgeCaseTests.html#aec8ec0acfe2096ca777d79eda97e521a" target="_top" xlink:title="Tests case sensitivity for usernames when adding likes.">
<polygon fill="white" stroke="#666666" points="209,-240.5 30,-240.5 30,-188.5 209,-188.5 209,-240.5"/>
<text text-anchor="start" x="38" y="-228.5" font-family="Helvetica,sans-Serif" font-size="10.00">MiniBlogApp.Tests.Service</text>
<text text-anchor="start" x="38" y="-217.5" font-family="Helvetica,sans-Serif" font-size="10.00">Tests.BlogStorageEdgeCaseTests.</text>
<text text-anchor="start" x="38" y="-206.5" font-family="Helvetica,sans-Serif" font-size="10.00">AddLike_ShouldBeCaseSensitive</text>
<text text-anchor="middle" x="119.5" y="-195.5" font-family="Helvetica,sans-Serif" font-size="10.00">_Usernames</text>
</a>
</g>
</g>
<!-- Node1&#45;&gt;Node3 -->
<g id="edge2_Node000001_Node000003" class="edge">
<title>Node1&#45;&gt;Node3</title>
<g id="a_edge2_Node000001_Node000003"><a xlink:title=" ">
<path fill="none" stroke="#63b8ff" d="M291.89,-162.73C274.94,-168.21 256.23,-174.18 239,-179.5 229.37,-182.48 219.28,-185.54 209.22,-188.56"/>
<polygon fill="#63b8ff" stroke="#63b8ff" points="293.22,-165.98 301.65,-159.57 291.06,-159.32 293.22,-165.98"/>
</a>
</g>
</g>
<!-- Node4 -->
<g id="Node000004" class="node">
<title>Node4</title>
<g id="a_Node000004"><a xlink:href="classMiniBlogApp_1_1Tests_1_1ServiceTests_1_1BlogStorageAddLikeTests.html#a71aa18a48357b1b3b7f2ee5f5375d572" target="_top" xlink:title="Verifies behavior when attempting to add a like to a non&#45;existent post.">
<polygon fill="white" stroke="#666666" points="231.5,-170.5 7.5,-170.5 7.5,-118.5 231.5,-118.5 231.5,-170.5"/>
<text text-anchor="start" x="15.5" y="-158.5" font-family="Helvetica,sans-Serif" font-size="10.00">MiniBlogApp.Tests.Service</text>
<text text-anchor="start" x="15.5" y="-147.5" font-family="Helvetica,sans-Serif" font-size="10.00">Tests.BlogStorageAddLikeTests.</text>
<text text-anchor="start" x="15.5" y="-136.5" font-family="Helvetica,sans-Serif" font-size="10.00">AddLike_ShouldDoNothing_WhenPostDoes</text>
<text text-anchor="middle" x="119.5" y="-125.5" font-family="Helvetica,sans-Serif" font-size="10.00">NotExist</text>
</a>
</g>
</g>
<!-- Node1&#45;&gt;Node4 -->
<g id="edge3_Node000001_Node000004" class="edge">
<title>Node1&#45;&gt;Node4</title>
<g id="a_edge3_Node000001_Node000004"><a xlink:title=" ">
<path fill="none" stroke="#63b8ff" d="M264.6,-144.5C253.89,-144.5 242.79,-144.5 231.71,-144.5"/>
<polygon fill="#63b8ff" stroke="#63b8ff" points="264.74,-148 274.74,-144.5 264.74,-141 264.74,-148"/>
</a>
</g>
</g>
<!-- Node5 -->
<g id="Node000005" class="node">
<title>Node5</title>
<g id="a_Node000005"><a xlink:href="classMiniBlogApp_1_1Tests_1_1ServiceTests_1_1BlogStorageAdvancedTests.html#ada5c45f0037e44547feb1500b704843d" target="_top" xlink:title="Tests adding likes to a post.">
<polygon fill="white" stroke="#666666" points="239,-100 0,-100 0,-59 239,-59 239,-100"/>
<text text-anchor="start" x="8" y="-88" font-family="Helvetica,sans-Serif" font-size="10.00">MiniBlogApp.Tests.Service</text>
<text text-anchor="start" x="8" y="-77" font-family="Helvetica,sans-Serif" font-size="10.00">Tests.BlogStorageAdvancedTests.</text>
<text text-anchor="middle" x="119.5" y="-66" font-family="Helvetica,sans-Serif" font-size="10.00">AddLike_ShouldLogMessageOnlyOncePerUser</text>
</a>
</g>
</g>
<!-- Node1&#45;&gt;Node5 -->
<g id="edge4_Node000001_Node000005" class="edge">
<title>Node1&#45;&gt;Node5</title>
<g id="a_edge4_Node000001_Node000005"><a xlink:title=" ">
<path fill="none" stroke="#63b8ff" d="M293.18,-126.23C275.93,-120.62 256.73,-114.6 239,-109.5 227.88,-106.3 216.13,-103.11 204.52,-100.06"/>
<polygon fill="#63b8ff" stroke="#63b8ff" points="292.5,-129.68 303.09,-129.46 294.67,-123.03 292.5,-129.68"/>
</a>
</g>
</g>
<!-- Node6 -->
<g id="Node000006" class="node">
<title>Node6</title>
<g id="a_Node000006"><a xlink:href="classMiniBlogApp_1_1Tests_1_1ServiceTests_1_1BlogStorageAddLikeTests.html#ac1474c69a66afa195cf84cd0e36d3d78" target="_top" xlink:title="Ensures that duplicate likes from the same user are not added.">
<polygon fill="white" stroke="#666666" points="219.5,-41 19.5,-41 19.5,0 219.5,0 219.5,-41"/>
<text text-anchor="start" x="27.5" y="-29" font-family="Helvetica,sans-Serif" font-size="10.00">MiniBlogApp.Tests.Service</text>
<text text-anchor="start" x="27.5" y="-18" font-family="Helvetica,sans-Serif" font-size="10.00">Tests.BlogStorageAddLikeTests.</text>
<text text-anchor="middle" x="119.5" y="-7" font-family="Helvetica,sans-Serif" font-size="10.00">AddLike_ShouldNotAddDuplicateLikes</text>
</a>
</g>
</g>
<!-- Node1&#45;&gt;Node6 -->
<g id="edge5_Node000001_Node000006" class="edge">
<title>Node1&#45;&gt;Node6</title>
<g id="a_edge5_Node000001_Node000006"><a xlink:title=" ">
<path fill="none" stroke="#63b8ff" d="M327.53,-121.95C307.28,-100.47 274.03,-68.78 239,-50.5 232.23,-46.97 225.02,-43.83 217.62,-41.06"/>
<polygon fill="#63b8ff" stroke="#63b8ff" points="325.02,-124.39 334.37,-129.35 330.16,-119.64 325.02,-124.39"/>
</a>
</g>
</g>
</g>
</svg>
