<?xml version="1.0" encoding="UTF-8" standalone="no"?>
<!DOCTYPE svg PUBLIC "-//W3C//DTD SVG 1.1//EN"
 "http://www.w3.org/Graphics/SVG/1.1/DTD/svg11.dtd">
<!-- Generated by graphviz version 2.43.0 (0)
 -->
<!-- Title: LoggerServiceAdvancedTests.AddLog_ShouldStoreMessagesForDifferentActions Pages: 1 -->
<svg width="425pt" height="86pt"
 viewBox="0.00 0.00 425.00 86.00" xmlns="http://www.w3.org/2000/svg" xmlns:xlink="http://www.w3.org/1999/xlink">
<g id="graph0" class="graph" transform="scale(1 1) rotate(0) translate(4 82)">
<title>LoggerServiceAdvancedTests.AddLog_ShouldStoreMessagesForDifferentActions</title>
<!-- Node1 -->
<g id="Node000001" class="node">
<title>Node1</title>
<g id="a_Node000001"><a xlink:title="Verifies that LoggerService stores messages for different types of user actions.">
<polygon fill="#999999" stroke="#666666" points="223,-59.5 0,-59.5 0,-18.5 223,-18.5 223,-59.5"/>
<text text-anchor="start" x="8" y="-47.5" font-family="Helvetica,sans-Serif" font-size="10.00">LoggerServiceAdvancedTests.</text>
<text text-anchor="start" x="8" y="-36.5" font-family="Helvetica,sans-Serif" font-size="10.00">AddLog_ShouldStoreMessagesForDifferent</text>
<text text-anchor="middle" x="111.5" y="-25.5" font-family="Helvetica,sans-Serif" font-size="10.00">Actions</text>
</a>
</g>
</g>
<!-- Node2 -->
<g id="Node000002" class="node">
<title>Node2</title>
<g id="a_Node000002"><a xlink:href="classMiniBlogApp_1_1Services_1_1LoggerService.html#add864e8d9754449b461e58af4b51ac7f" target="_top" xlink:title=" ">
<polygon fill="white" stroke="#666666" points="417,-78 259,-78 259,-48 417,-48 417,-78"/>
<text text-anchor="start" x="267" y="-66" font-family="Helvetica,sans-Serif" font-size="10.00">MiniBlogApp.Services.Logger</text>
<text text-anchor="middle" x="338" y="-55" font-family="Helvetica,sans-Serif" font-size="10.00">Service.AddLog</text>
</a>
</g>
</g>
<!-- Node1&#45;&gt;Node2 -->
<g id="edge1_Node000001_Node000002" class="edge">
<title>Node1&#45;&gt;Node2</title>
<g id="a_edge1_Node000001_Node000002"><a xlink:title=" ">
<path fill="none" stroke="#63b8ff" d="M223.11,-50.82C231.68,-51.74 240.27,-52.66 248.67,-53.56"/>
<polygon fill="#63b8ff" stroke="#63b8ff" points="248.5,-57.06 258.82,-54.64 249.24,-50.1 248.5,-57.06"/>
</a>
</g>
</g>
<!-- Node3 -->
<g id="Node000003" class="node">
<title>Node3</title>
<g id="a_Node000003"><a xlink:href="classMiniBlogApp_1_1Services_1_1LoggerService.html#ae78818587f366479feac87ec7b0c33f5" target="_top" xlink:title=" ">
<polygon fill="white" stroke="#666666" points="417,-30 259,-30 259,0 417,0 417,-30"/>
<text text-anchor="start" x="267" y="-18" font-family="Helvetica,sans-Serif" font-size="10.00">MiniBlogApp.Services.Logger</text>
<text text-anchor="middle" x="338" y="-7" font-family="Helvetica,sans-Serif" font-size="10.00">Service.GetLogs</text>
</a>
</g>
</g>
<!-- Node1&#45;&gt;Node3 -->
<g id="edge2_Node000001_Node000003" class="edge">
<title>Node1&#45;&gt;Node3</title>
<g id="a_edge2_Node000001_Node000003"><a xlink:title=" ">
<path fill="none" stroke="#63b8ff" d="M223.11,-27.18C231.68,-26.26 240.27,-25.34 248.67,-24.44"/>
<polygon fill="#63b8ff" stroke="#63b8ff" points="249.24,-27.9 258.82,-23.36 248.5,-20.94 249.24,-27.9"/>
</a>
</g>
</g>
</g>
</svg>
