<?xml version="1.0" encoding="UTF-8" standalone="no"?>
<!DOCTYPE svg PUBLIC "-//W3C//DTD SVG 1.1//EN"
 "http://www.w3.org/Graphics/SVG/1.1/DTD/svg11.dtd">
<!-- Generated by graphviz version 2.43.0 (0)
 -->
<!-- Title: MiniBlogApp.Pages.CreatePostModel Pages: 1 -->
<svg width="412pt" height="115pt"
 viewBox="0.00 0.00 412.00 115.00" xmlns="http://www.w3.org/2000/svg" xmlns:xlink="http://www.w3.org/1999/xlink">
<g id="graph0" class="graph" transform="scale(1 1) rotate(0) translate(4 111)">
<title>MiniBlogApp.Pages.CreatePostModel</title>
<!-- Node1 -->
<g id="Node000001" class="node">
<title>Node1</title>
<g id="a_Node000001"><a xlink:title=" ">
<polygon fill="#999999" stroke="#666666" points="235.5,-30 90.5,-30 90.5,0 235.5,0 235.5,-30"/>
<text text-anchor="start" x="98.5" y="-18" font-family="Helvetica,sans-Serif" font-size="10.00">MiniBlogApp.Pages.Create</text>
<text text-anchor="middle" x="163" y="-7" font-family="Helvetica,sans-Serif" font-size="10.00">PostModel</text>
</a>
</g>
</g>
<!-- Node2 -->
<g id="Node000002" class="node">
<title>Node2</title>
<g id="a_Node000002"><a xlink:title=" ">
<polygon fill="white" stroke="#666666" points="70,-101.5 0,-101.5 0,-82.5 70,-82.5 70,-101.5"/>
<text text-anchor="middle" x="35" y="-89.5" font-family="Helvetica,sans-Serif" font-size="10.00">PageModel</text>
</a>
</g>
</g>
<!-- Node2&#45;&gt;Node1 -->
<g id="edge1_Node000001_Node000002" class="edge">
<title>Node2&#45;&gt;Node1</title>
<g id="a_edge1_Node000001_Node000002"><a xlink:title=" ">
<path fill="none" stroke="#63b8ff" d="M58.39,-77.29C81.24,-63.91 115.84,-43.63 138.91,-30.11"/>
<polygon fill="#63b8ff" stroke="#63b8ff" points="56.54,-74.32 49.68,-82.4 60.08,-80.36 56.54,-74.32"/>
</a>
</g>
</g>
<!-- Node3 -->
<g id="Node000003" class="node">
<title>Node3</title>
<g id="a_Node000003"><a xlink:href="interfaceMiniBlogApp_1_1Services_1_1IBlogStorage.html" target="_top" xlink:title="Інтерфейс для роботи зі сховищем дописів.">
<polygon fill="white" stroke="#666666" points="238,-107 88,-107 88,-77 238,-77 238,-107"/>
<text text-anchor="start" x="96" y="-95" font-family="Helvetica,sans-Serif" font-size="10.00">MiniBlogApp.Services.IBlog</text>
<text text-anchor="middle" x="163" y="-84" font-family="Helvetica,sans-Serif" font-size="10.00">Storage</text>
</a>
</g>
</g>
<!-- Node3&#45;&gt;Node1 -->
<g id="edge2_Node000001_Node000003" class="edge">
<title>Node3&#45;&gt;Node1</title>
<g id="a_edge2_Node000001_Node000003"><a xlink:title=" ">
<path fill="none" stroke="#9a32cd" stroke-dasharray="5,2" d="M163,-66.54C163,-54.45 163,-40.29 163,-30.04"/>
<polygon fill="#9a32cd" stroke="#9a32cd" points="159.5,-66.89 163,-76.89 166.5,-66.89 159.5,-66.89"/>
</a>
</g>
<text text-anchor="middle" x="196.5" y="-51" font-family="Helvetica,sans-Serif" font-size="10.00" fill="grey"> _blogStorage</text>
</g>
<!-- Node4 -->
<g id="Node000004" class="node">
<title>Node4</title>
<g id="a_Node000004"><a xlink:href="interfaceMiniBlogApp_1_1Builders_1_1IPostBuilder.html" target="_top" xlink:title=" ">
<polygon fill="white" stroke="#666666" points="404,-107 256,-107 256,-77 404,-77 404,-107"/>
<text text-anchor="start" x="264" y="-95" font-family="Helvetica,sans-Serif" font-size="10.00">MiniBlogApp.Builders.IPost</text>
<text text-anchor="middle" x="330" y="-84" font-family="Helvetica,sans-Serif" font-size="10.00">Builder</text>
</a>
</g>
</g>
<!-- Node4&#45;&gt;Node1 -->
<g id="edge3_Node000001_Node000004" class="edge">
<title>Node4&#45;&gt;Node1</title>
<g id="a_edge3_Node000001_Node000004"><a xlink:title=" ">
<path fill="none" stroke="#9a32cd" stroke-dasharray="5,2" d="M289.45,-72.79C260.15,-59.63 221.17,-42.12 194.27,-30.04"/>
<polygon fill="#9a32cd" stroke="#9a32cd" points="288.03,-75.99 298.59,-76.89 290.9,-69.6 288.03,-75.99"/>
</a>
</g>
<text text-anchor="middle" x="288" y="-51" font-family="Helvetica,sans-Serif" font-size="10.00" fill="grey"> _postBuilder</text>
</g>
</g>
</svg>
