<?xml version="1.0" encoding="UTF-8" standalone="no"?>
<!DOCTYPE svg PUBLIC "-//W3C//DTD SVG 1.1//EN"
 "http://www.w3.org/Graphics/SVG/1.1/DTD/svg11.dtd">
<!-- Generated by graphviz version 2.43.0 (0)
 -->
<!-- Title: MiniBlogApp.Services.BaseLogEntry Pages: 1 -->
<svg width="464pt" height="134pt"
 viewBox="0.00 0.00 464.00 134.00" xmlns="http://www.w3.org/2000/svg" xmlns:xlink="http://www.w3.org/1999/xlink">
<g id="graph0" class="graph" transform="scale(1 1) rotate(0) translate(4 130)">
<title>MiniBlogApp.Services.BaseLogEntry</title>
<!-- Node1 -->
<g id="Node000001" class="node">
<title>Node1</title>
<g id="a_Node000001"><a xlink:title="ПАТЕРН TEMPLATE METHOD (Шаблонний метод).">
<polygon fill="#999999" stroke="#666666" points="247,-78 98,-78 98,-48 247,-48 247,-78"/>
<text text-anchor="start" x="106" y="-66" font-family="Helvetica,sans-Serif" font-size="10.00">MiniBlogApp.Services.Base</text>
<text text-anchor="middle" x="172.5" y="-55" font-family="Helvetica,sans-Serif" font-size="10.00">LogEntry</text>
</a>
</g>
</g>
<!-- Node3 -->
<g id="Node000003" class="node">
<title>Node3</title>
<g id="a_Node000003"><a xlink:href="classMiniBlogApp_1_1Services_1_1CommentLogger.html" target="_top" xlink:title=" ">
<polygon fill="white" stroke="#666666" points="456,-126 283,-126 283,-96 456,-96 456,-126"/>
<text text-anchor="start" x="291" y="-114" font-family="Helvetica,sans-Serif" font-size="10.00">MiniBlogApp.Services.Comment</text>
<text text-anchor="middle" x="369.5" y="-103" font-family="Helvetica,sans-Serif" font-size="10.00">Logger</text>
</a>
</g>
</g>
<!-- Node1&#45;&gt;Node3 -->
<g id="edge2_Node000001_Node000003" class="edge">
<title>Node1&#45;&gt;Node3</title>
<g id="a_edge2_Node000001_Node000003"><a xlink:title=" ">
<path fill="none" stroke="#63b8ff" d="M244.64,-80.51C265.27,-85.59 287.6,-91.09 307.55,-96"/>
<polygon fill="#63b8ff" stroke="#63b8ff" points="245.21,-77.05 234.66,-78.06 243.54,-83.84 245.21,-77.05"/>
</a>
</g>
</g>
<!-- Node4 -->
<g id="Node000004" class="node">
<title>Node4</title>
<g id="a_Node000004"><a xlink:href="classMiniBlogApp_1_1Services_1_1LikeLogger.html" target="_top" xlink:title=" ">
<polygon fill="white" stroke="#666666" points="442,-78 297,-78 297,-48 442,-48 442,-78"/>
<text text-anchor="start" x="305" y="-66" font-family="Helvetica,sans-Serif" font-size="10.00">MiniBlogApp.Services.Like</text>
<text text-anchor="middle" x="369.5" y="-55" font-family="Helvetica,sans-Serif" font-size="10.00">Logger</text>
</a>
</g>
</g>
<!-- Node1&#45;&gt;Node4 -->
<g id="edge3_Node000001_Node000004" class="edge">
<title>Node1&#45;&gt;Node4</title>
<g id="a_edge3_Node000001_Node000004"><a xlink:title=" ">
<path fill="none" stroke="#63b8ff" d="M257.25,-63C270.46,-63 284.03,-63 296.93,-63"/>
<polygon fill="#63b8ff" stroke="#63b8ff" points="257.22,-59.5 247.22,-63 257.22,-66.5 257.22,-59.5"/>
</a>
</g>
</g>
<!-- Node5 -->
<g id="Node000005" class="node">
<title>Node5</title>
<g id="a_Node000005"><a xlink:href="classMiniBlogApp_1_1Services_1_1PostLogger.html" target="_top" xlink:title=" ">
<polygon fill="white" stroke="#666666" points="442.5,-30 296.5,-30 296.5,0 442.5,0 442.5,-30"/>
<text text-anchor="start" x="304.5" y="-18" font-family="Helvetica,sans-Serif" font-size="10.00">MiniBlogApp.Services.Post</text>
<text text-anchor="middle" x="369.5" y="-7" font-family="Helvetica,sans-Serif" font-size="10.00">Logger</text>
</a>
</g>
</g>
<!-- Node1&#45;&gt;Node5 -->
<g id="edge4_Node000001_Node000005" class="edge">
<title>Node1&#45;&gt;Node5</title>
<g id="a_edge4_Node000001_Node000005"><a xlink:title=" ">
<path fill="none" stroke="#63b8ff" d="M244.64,-45.49C265.27,-40.41 287.6,-34.91 307.55,-30"/>
<polygon fill="#63b8ff" stroke="#63b8ff" points="243.54,-42.16 234.66,-47.94 245.21,-48.95 243.54,-42.16"/>
</a>
</g>
</g>
<!-- Node2 -->
<g id="Node000002" class="node">
<title>Node2</title>
<g id="a_Node000002"><a xlink:href="interfaceMiniBlogApp_1_1Services_1_1ILogEntry.html" target="_top" xlink:title="Інтерфейс для об&#39;єктів записів у лог.">
<polygon fill="white" stroke="#666666" points="62,-72.5 0,-72.5 0,-53.5 62,-53.5 62,-72.5"/>
<text text-anchor="middle" x="31" y="-60.5" font-family="Helvetica,sans-Serif" font-size="10.00">ILogEntry</text>
</a>
</g>
</g>
<!-- Node2&#45;&gt;Node1 -->
<g id="edge1_Node000001_Node000002" class="edge">
<title>Node2&#45;&gt;Node1</title>
<g id="a_edge1_Node000001_Node000002"><a xlink:title=" ">
<path fill="none" stroke="#63b8ff" d="M72.39,-63C80.41,-63 89.06,-63 97.79,-63"/>
<polygon fill="#63b8ff" stroke="#63b8ff" points="72.27,-59.5 62.27,-63 72.27,-66.5 72.27,-59.5"/>
</a>
</g>
</g>
</g>
</svg>
