<?xml version="1.0" encoding="UTF-8" standalone="no"?>
<!DOCTYPE svg PUBLIC "-//W3C//DTD SVG 1.1//EN"
 "http://www.w3.org/Graphics/SVG/1.1/DTD/svg11.dtd">
<!-- Generated by graphviz version 2.43.0 (0)
 -->
<!-- Title: MiniBlogApp.Tests.ServiceTests.BlogStorageAdvancedTests.UpdatePost_ShouldChangeContent Pages: 1 -->
<svg width="568pt" height="134pt"
 viewBox="0.00 0.00 568.00 134.00" xmlns="http://www.w3.org/2000/svg" xmlns:xlink="http://www.w3.org/1999/xlink">
<g id="graph0" class="graph" transform="scale(1 1) rotate(0) translate(4 130)">
<title>MiniBlogApp.Tests.ServiceTests.BlogStorageAdvancedTests.UpdatePost_ShouldChangeContent</title>
<!-- Node1 -->
<g id="Node000001" class="node">
<title>Node1</title>
<g id="a_Node000001"><a xlink:title="Tests updating the content of a post.">
<polygon fill="#999999" stroke="#666666" points="186,-83.5 0,-83.5 0,-42.5 186,-42.5 186,-83.5"/>
<text text-anchor="start" x="8" y="-71.5" font-family="Helvetica,sans-Serif" font-size="10.00">MiniBlogApp.Tests.Service</text>
<text text-anchor="start" x="8" y="-60.5" font-family="Helvetica,sans-Serif" font-size="10.00">Tests.BlogStorageAdvancedTests.</text>
<text text-anchor="middle" x="93" y="-49.5" font-family="Helvetica,sans-Serif" font-size="10.00">UpdatePost_ShouldChangeContent</text>
</a>
</g>
</g>
<!-- Node2 -->
<g id="Node000002" class="node">
<title>Node2</title>
<g id="a_Node000002"><a xlink:href="classMiniBlogApp_1_1Services_1_1BlogStorage.html#a4cdac58bbe3cef687f389421ad64d784" target="_top" xlink:title=" ">
<polygon fill="white" stroke="#666666" points="369,-126 222,-126 222,-96 369,-96 369,-126"/>
<text text-anchor="start" x="230" y="-114" font-family="Helvetica,sans-Serif" font-size="10.00">MiniBlogApp.Services.Blog</text>
<text text-anchor="middle" x="295.5" y="-103" font-family="Helvetica,sans-Serif" font-size="10.00">Storage.AddPost</text>
</a>
</g>
</g>
<!-- Node1&#45;&gt;Node2 -->
<g id="edge1_Node000001_Node000002" class="edge">
<title>Node1&#45;&gt;Node2</title>
<g id="a_edge1_Node000001_Node000002"><a xlink:title=" ">
<path fill="none" stroke="#63b8ff" d="M179.9,-83.57C193.93,-86.92 208.34,-90.37 222,-93.64"/>
<polygon fill="#63b8ff" stroke="#63b8ff" points="221.26,-97.07 231.8,-95.99 222.89,-90.26 221.26,-97.07"/>
</a>
</g>
</g>
<!-- Node3 -->
<g id="Node000003" class="node">
<title>Node3</title>
<g id="a_Node000003"><a xlink:href="classMiniBlogApp_1_1Services_1_1BlogStorage.html#ab51db63cff22415b1638db17e6cfbe2e" target="_top" xlink:title=" ">
<polygon fill="white" stroke="#666666" points="369,-78 222,-78 222,-48 369,-48 369,-78"/>
<text text-anchor="start" x="230" y="-66" font-family="Helvetica,sans-Serif" font-size="10.00">MiniBlogApp.Services.Blog</text>
<text text-anchor="middle" x="295.5" y="-55" font-family="Helvetica,sans-Serif" font-size="10.00">Storage.GetPostById</text>
</a>
</g>
</g>
<!-- Node1&#45;&gt;Node3 -->
<g id="edge2_Node000001_Node000003" class="edge">
<title>Node1&#45;&gt;Node3</title>
<g id="a_edge2_Node000001_Node000003"><a xlink:title=" ">
<path fill="none" stroke="#63b8ff" d="M186.03,-63C194.6,-63 203.24,-63 211.71,-63"/>
<polygon fill="#63b8ff" stroke="#63b8ff" points="211.94,-66.5 221.94,-63 211.94,-59.5 211.94,-66.5"/>
</a>
</g>
</g>
<!-- Node5 -->
<g id="Node000005" class="node">
<title>Node5</title>
<g id="a_Node000005"><a xlink:href="classMiniBlogApp_1_1Services_1_1BlogStorage.html#a8382aab441976b6e4be64008f419c294" target="_top" xlink:title=" ">
<polygon fill="white" stroke="#666666" points="369,-30 222,-30 222,0 369,0 369,-30"/>
<text text-anchor="start" x="230" y="-18" font-family="Helvetica,sans-Serif" font-size="10.00">MiniBlogApp.Services.Blog</text>
<text text-anchor="middle" x="295.5" y="-7" font-family="Helvetica,sans-Serif" font-size="10.00">Storage.UpdatePost</text>
</a>
</g>
</g>
<!-- Node1&#45;&gt;Node5 -->
<g id="edge4_Node000001_Node000005" class="edge">
<title>Node1&#45;&gt;Node5</title>
<g id="a_edge4_Node000001_Node000005"><a xlink:title=" ">
<path fill="none" stroke="#63b8ff" d="M179.9,-42.43C193.93,-39.08 208.34,-35.63 222,-32.36"/>
<polygon fill="#63b8ff" stroke="#63b8ff" points="222.89,-35.74 231.8,-30.01 221.26,-28.93 222.89,-35.74"/>
</a>
</g>
</g>
<!-- Node4 -->
<g id="Node000004" class="node">
<title>Node4</title>
<g id="a_Node000004"><a xlink:href="classMiniBlogApp_1_1Services_1_1BlogStorage.html#a170b5b0c311e8124d77dcc785672da16" target="_top" xlink:title=" ">
<polygon fill="white" stroke="#666666" points="560,-54 405,-54 405,-24 560,-24 560,-54"/>
<text text-anchor="start" x="413" y="-42" font-family="Helvetica,sans-Serif" font-size="10.00">MiniBlogApp.Services.Blog</text>
<text text-anchor="middle" x="482.5" y="-31" font-family="Helvetica,sans-Serif" font-size="10.00">Storage.GetPostByIdInternal</text>
</a>
</g>
</g>
<!-- Node3&#45;&gt;Node4 -->
<g id="edge3_Node000003_Node000004" class="edge">
<title>Node3&#45;&gt;Node4</title>
<g id="a_edge3_Node000003_Node000004"><a xlink:title=" ">
<path fill="none" stroke="#63b8ff" d="M369.09,-53.58C377.53,-52.49 386.2,-51.36 394.8,-50.25"/>
<polygon fill="#63b8ff" stroke="#63b8ff" points="395.39,-53.7 404.86,-48.94 394.49,-46.76 395.39,-53.7"/>
</a>
</g>
</g>
<!-- Node5&#45;&gt;Node4 -->
<g id="edge5_Node000005_Node000004" class="edge">
<title>Node5&#45;&gt;Node4</title>
<g id="a_edge5_Node000005_Node000004"><a xlink:title=" ">
<path fill="none" stroke="#63b8ff" d="M369.09,-24.42C377.53,-25.51 386.2,-26.64 394.8,-27.75"/>
<polygon fill="#63b8ff" stroke="#63b8ff" points="394.49,-31.24 404.86,-29.06 395.39,-24.3 394.49,-31.24"/>
</a>
</g>
</g>
</g>
</svg>
