<?xml version="1.0" encoding="UTF-8" standalone="no"?>
<!DOCTYPE svg PUBLIC "-//W3C//DTD SVG 1.1//EN"
 "http://www.w3.org/Graphics/SVG/1.1/DTD/svg11.dtd">
<!-- Generated by graphviz version 2.43.0 (0)
 -->
<!-- Title: MiniBlogApp.Services.BlogStorage.GetPostById Pages: 1 -->
<svg width="442pt" height="226pt"
 viewBox="0.00 0.00 442.00 226.00" xmlns="http://www.w3.org/2000/svg" xmlns:xlink="http://www.w3.org/1999/xlink">
<g id="graph0" class="graph" transform="scale(1 1) rotate(0) translate(4 222)">
<title>MiniBlogApp.Services.BlogStorage.GetPostById</title>
<!-- Node1 -->
<g id="Node000001" class="node">
<title>Node1</title>
<g id="a_Node000001"><a xlink:title=" ">
<polygon fill="#999999" stroke="#666666" points="434,-123.5 287,-123.5 287,-93.5 434,-93.5 434,-123.5"/>
<text text-anchor="start" x="295" y="-111.5" font-family="Helvetica,sans-Serif" font-size="10.00">MiniBlogApp.Services.Blog</text>
<text text-anchor="middle" x="360.5" y="-100.5" font-family="Helvetica,sans-Serif" font-size="10.00">Storage.GetPostById</text>
</a>
</g>
</g>
<!-- Node2 -->
<g id="Node000002" class="node">
<title>Node2</title>
<g id="a_Node000002"><a xlink:href="classMiniBlogApp_1_1Tests_1_1ServiceTests_1_1BlogStorageAdvancedTests.html#a926a950518d2aefff07bfd0838ac5111" target="_top" xlink:title="Tests adding a comment to a post.">
<polygon fill="white" stroke="#666666" points="251,-218 0,-218 0,-177 251,-177 251,-218"/>
<text text-anchor="start" x="8" y="-206" font-family="Helvetica,sans-Serif" font-size="10.00">MiniBlogApp.Tests.Service</text>
<text text-anchor="start" x="8" y="-195" font-family="Helvetica,sans-Serif" font-size="10.00">Tests.BlogStorageAdvancedTests.</text>
<text text-anchor="middle" x="125.5" y="-184" font-family="Helvetica,sans-Serif" font-size="10.00">AddComment_ShouldAddToPostAndLogMessage</text>
</a>
</g>
</g>
<!-- Node1&#45;&gt;Node2 -->
<g id="edge1_Node000001_Node000002" class="edge">
<title>Node1&#45;&gt;Node2</title>
<g id="a_edge1_Node000001_Node000002"><a xlink:title=" ">
<path fill="none" stroke="#63b8ff" d="M328.17,-128.87C307.08,-141.81 278.25,-158.03 251,-168.5 243.02,-171.57 234.63,-174.37 226.13,-176.91"/>
<polygon fill="#63b8ff" stroke="#63b8ff" points="330.06,-131.82 336.7,-123.56 326.36,-125.87 330.06,-131.82"/>
</a>
</g>
</g>
<!-- Node3 -->
<g id="Node000003" class="node">
<title>Node3</title>
<g id="a_Node000003"><a xlink:href="classMiniBlogApp_1_1Tests_1_1ServiceTests_1_1BlogStorageEdgeCaseTests.html#a77050fdef1a23f31b5a132396de535cd" target="_top" xlink:title="Tests adding a comment with empty text.">
<polygon fill="white" stroke="#666666" points="229.5,-159 21.5,-159 21.5,-118 229.5,-118 229.5,-159"/>
<text text-anchor="start" x="29.5" y="-147" font-family="Helvetica,sans-Serif" font-size="10.00">MiniBlogApp.Tests.Service</text>
<text text-anchor="start" x="29.5" y="-136" font-family="Helvetica,sans-Serif" font-size="10.00">Tests.BlogStorageEdgeCaseTests.</text>
<text text-anchor="middle" x="125.5" y="-125" font-family="Helvetica,sans-Serif" font-size="10.00">AddComment_ShouldHandleEmptyText</text>
</a>
</g>
</g>
<!-- Node1&#45;&gt;Node3 -->
<g id="edge2_Node000001_Node000003" class="edge">
<title>Node1&#45;&gt;Node3</title>
<g id="a_edge2_Node000001_Node000003"><a xlink:title=" ">
<path fill="none" stroke="#63b8ff" d="M276.44,-119.19C261.35,-121.14 245.45,-123.18 229.87,-125.19"/>
<polygon fill="#63b8ff" stroke="#63b8ff" points="277.26,-122.62 286.74,-117.87 276.37,-115.67 277.26,-122.62"/>
</a>
</g>
</g>
<!-- Node4 -->
<g id="Node000004" class="node">
<title>Node4</title>
<g id="a_Node000004"><a xlink:href="classMiniBlogApp_1_1Tests_1_1ServiceTests_1_1BlogStorageAdvancedTests.html#a8b4f3244ca995d5fbdf1147eba81690d" target="_top" xlink:title="Tests deleting a post.">
<polygon fill="white" stroke="#666666" points="215,-100 36,-100 36,-59 215,-59 215,-100"/>
<text text-anchor="start" x="44" y="-88" font-family="Helvetica,sans-Serif" font-size="10.00">MiniBlogApp.Tests.Service</text>
<text text-anchor="start" x="44" y="-77" font-family="Helvetica,sans-Serif" font-size="10.00">Tests.BlogStorageAdvancedTests.</text>
<text text-anchor="middle" x="125.5" y="-66" font-family="Helvetica,sans-Serif" font-size="10.00">DeletePost_ShouldRemovePost</text>
</a>
</g>
</g>
<!-- Node1&#45;&gt;Node4 -->
<g id="edge3_Node000001_Node000004" class="edge">
<title>Node1&#45;&gt;Node4</title>
<g id="a_edge3_Node000001_Node000004"><a xlink:title=" ">
<path fill="none" stroke="#63b8ff" d="M276.74,-98.2C256.76,-95.71 235.33,-93.04 215.09,-90.53"/>
<polygon fill="#63b8ff" stroke="#63b8ff" points="276.38,-101.68 286.74,-99.44 277.24,-94.74 276.38,-101.68"/>
</a>
</g>
</g>
<!-- Node5 -->
<g id="Node000005" class="node">
<title>Node5</title>
<g id="a_Node000005"><a xlink:href="classMiniBlogApp_1_1Tests_1_1ServiceTests_1_1BlogStorageAdvancedTests.html#abb350cdef01b43c174685877d4b88370" target="_top" xlink:title="Tests updating the content of a post.">
<polygon fill="white" stroke="#666666" points="218.5,-41 32.5,-41 32.5,0 218.5,0 218.5,-41"/>
<text text-anchor="start" x="40.5" y="-29" font-family="Helvetica,sans-Serif" font-size="10.00">MiniBlogApp.Tests.Service</text>
<text text-anchor="start" x="40.5" y="-18" font-family="Helvetica,sans-Serif" font-size="10.00">Tests.BlogStorageAdvancedTests.</text>
<text text-anchor="middle" x="125.5" y="-7" font-family="Helvetica,sans-Serif" font-size="10.00">UpdatePost_ShouldChangeContent</text>
</a>
</g>
</g>
<!-- Node1&#45;&gt;Node5 -->
<g id="edge4_Node000001_Node000005" class="edge">
<title>Node1&#45;&gt;Node5</title>
<g id="a_edge4_Node000001_Node000005"><a xlink:title=" ">
<path fill="none" stroke="#63b8ff" d="M326.53,-88.03C305.55,-75.73 277.43,-60.56 251,-50.5 240.71,-46.59 229.75,-43.06 218.76,-39.93"/>
<polygon fill="#63b8ff" stroke="#63b8ff" points="324.97,-91.17 335.35,-93.28 328.55,-85.16 324.97,-91.17"/>
</a>
</g>
</g>
</g>
</svg>
