<?xml version="1.0" encoding="UTF-8" standalone="no"?>
<!DOCTYPE svg PUBLIC "-//W3C//DTD SVG 1.1//EN"
 "http://www.w3.org/Graphics/SVG/1.1/DTD/svg11.dtd">
<!-- Generated by graphviz version 2.43.0 (0)
 -->
<!-- Title: MiniBlogApp.Services.LoggerService.GetLogs Pages: 1 -->
<svg width="462pt" height="226pt"
 viewBox="0.00 0.00 462.00 226.00" xmlns="http://www.w3.org/2000/svg" xmlns:xlink="http://www.w3.org/1999/xlink">
<g id="graph0" class="graph" transform="scale(1 1) rotate(0) translate(4 222)">
<title>MiniBlogApp.Services.LoggerService.GetLogs</title>
<!-- Node1 -->
<g id="Node000001" class="node">
<title>Node1</title>
<g id="a_Node000001"><a xlink:title=" ">
<polygon fill="#999999" stroke="#666666" points="454,-123.5 296,-123.5 296,-93.5 454,-93.5 454,-123.5"/>
<text text-anchor="start" x="304" y="-111.5" font-family="Helvetica,sans-Serif" font-size="10.00">MiniBlogApp.Services.Logger</text>
<text text-anchor="middle" x="375" y="-100.5" font-family="Helvetica,sans-Serif" font-size="10.00">Service.GetLogs</text>
</a>
</g>
</g>
<!-- Node2 -->
<g id="Node000002" class="node">
<title>Node2</title>
<g id="a_Node000002"><a xlink:href="classMiniBlogApp_1_1Tests_1_1ServiceTests_1_1BlogStorageAdvancedTests.html#a926a950518d2aefff07bfd0838ac5111" target="_top" xlink:title="Tests adding a comment to a post.">
<polygon fill="white" stroke="#666666" points="255.5,-218 4.5,-218 4.5,-177 255.5,-177 255.5,-218"/>
<text text-anchor="start" x="12.5" y="-206" font-family="Helvetica,sans-Serif" font-size="10.00">MiniBlogApp.Tests.Service</text>
<text text-anchor="start" x="12.5" y="-195" font-family="Helvetica,sans-Serif" font-size="10.00">Tests.BlogStorageAdvancedTests.</text>
<text text-anchor="middle" x="130" y="-184" font-family="Helvetica,sans-Serif" font-size="10.00">AddComment_ShouldAddToPostAndLogMessage</text>
</a>
</g>
</g>
<!-- Node1&#45;&gt;Node2 -->
<g id="edge1_Node000001_Node000002" class="edge">
<title>Node1&#45;&gt;Node2</title>
<g id="a_edge1_Node000001_Node000002"><a xlink:title=" ">
<path fill="none" stroke="#63b8ff" d="M341.27,-128.7C319.04,-141.66 288.59,-157.97 260,-168.5 251.6,-171.59 242.76,-174.42 233.82,-176.98"/>
<polygon fill="#63b8ff" stroke="#63b8ff" points="343.13,-131.66 349.96,-123.56 339.57,-125.63 343.13,-131.66"/>
</a>
</g>
</g>
<!-- Node3 -->
<g id="Node000003" class="node">
<title>Node3</title>
<g id="a_Node000003"><a xlink:href="classMiniBlogApp_1_1Tests_1_1ServiceTests_1_1BlogStorageAdvancedTests.html#ada5c45f0037e44547feb1500b704843d" target="_top" xlink:title="Tests adding likes to a post.">
<polygon fill="white" stroke="#666666" points="249.5,-159 10.5,-159 10.5,-118 249.5,-118 249.5,-159"/>
<text text-anchor="start" x="18.5" y="-147" font-family="Helvetica,sans-Serif" font-size="10.00">MiniBlogApp.Tests.Service</text>
<text text-anchor="start" x="18.5" y="-136" font-family="Helvetica,sans-Serif" font-size="10.00">Tests.BlogStorageAdvancedTests.</text>
<text text-anchor="middle" x="130" y="-125" font-family="Helvetica,sans-Serif" font-size="10.00">AddLike_ShouldLogMessageOnlyOncePerUser</text>
</a>
</g>
</g>
<!-- Node1&#45;&gt;Node3 -->
<g id="edge2_Node000001_Node000003" class="edge">
<title>Node1&#45;&gt;Node3</title>
<g id="a_edge2_Node000001_Node000003"><a xlink:title=" ">
<path fill="none" stroke="#63b8ff" d="M285.64,-119.41C273.97,-120.85 261.85,-122.35 249.77,-123.84"/>
<polygon fill="#63b8ff" stroke="#63b8ff" points="286.28,-122.86 295.78,-118.16 285.42,-115.91 286.28,-122.86"/>
</a>
</g>
</g>
<!-- Node4 -->
<g id="Node000004" class="node">
<title>Node4</title>
<g id="a_Node000004"><a xlink:href="classLoggerServiceAdvancedTests.html#a732dfd126f84d2c8c55e152ef542459f" target="_top" xlink:title="Verifies that LoggerService stores messages for different types of user actions.">
<polygon fill="white" stroke="#666666" points="241.5,-100 18.5,-100 18.5,-59 241.5,-59 241.5,-100"/>
<text text-anchor="start" x="26.5" y="-88" font-family="Helvetica,sans-Serif" font-size="10.00">LoggerServiceAdvancedTests.</text>
<text text-anchor="start" x="26.5" y="-77" font-family="Helvetica,sans-Serif" font-size="10.00">AddLog_ShouldStoreMessagesForDifferent</text>
<text text-anchor="middle" x="130" y="-66" font-family="Helvetica,sans-Serif" font-size="10.00">Actions</text>
</a>
</g>
</g>
<!-- Node1&#45;&gt;Node4 -->
<g id="edge3_Node000001_Node000004" class="edge">
<title>Node1&#45;&gt;Node4</title>
<g id="a_edge3_Node000001_Node000004"><a xlink:title=" ">
<path fill="none" stroke="#63b8ff" d="M285.56,-97.94C271.34,-96.25 256.48,-94.47 241.82,-92.73"/>
<polygon fill="#63b8ff" stroke="#63b8ff" points="285.43,-101.45 295.78,-99.16 286.26,-94.5 285.43,-101.45"/>
</a>
</g>
</g>
<!-- Node5 -->
<g id="Node000005" class="node">
<title>Node5</title>
<g id="a_Node000005"><a xlink:href="classMiniBlogApp_1_1Tests_1_1ServiceTests_1_1BlogStorageAdvancedTests.html#ae0300ebf08f5bd96b83210576857689f" target="_top" xlink:title="Tests adding multiple posts.">
<polygon fill="white" stroke="#666666" points="260,-41 0,-41 0,0 260,0 260,-41"/>
<text text-anchor="start" x="8" y="-29" font-family="Helvetica,sans-Serif" font-size="10.00">MiniBlogApp.Tests.Service</text>
<text text-anchor="start" x="8" y="-18" font-family="Helvetica,sans-Serif" font-size="10.00">Tests.BlogStorageAdvancedTests.</text>
<text text-anchor="middle" x="130" y="-7" font-family="Helvetica,sans-Serif" font-size="10.00">AddPost_ShouldAssignUniqueIdsAndLogMessages</text>
</a>
</g>
</g>
<!-- Node1&#45;&gt;Node5 -->
<g id="edge4_Node000001_Node000005" class="edge">
<title>Node1&#45;&gt;Node5</title>
<g id="a_edge4_Node000001_Node000005"><a xlink:title=" ">
<path fill="none" stroke="#63b8ff" d="M339.55,-88.2C317.43,-75.87 287.75,-60.62 260,-50.5 250.49,-47.03 240.45,-43.87 230.32,-41.02"/>
<polygon fill="#63b8ff" stroke="#63b8ff" points="338.12,-91.41 348.54,-93.28 341.56,-85.32 338.12,-91.41"/>
</a>
</g>
</g>
</g>
</svg>
