<?xml version="1.0" encoding="UTF-8" standalone="no"?>
<!DOCTYPE svg PUBLIC "-//W3C//DTD SVG 1.1//EN"
 "http://www.w3.org/Graphics/SVG/1.1/DTD/svg11.dtd">
<!-- Generated by graphviz version 2.43.0 (0)
 -->
<!-- Title: MiniBlogApp.Services.UserService.GetAll Pages: 1 -->
<svg width="392pt" height="108pt"
 viewBox="0.00 0.00 392.00 108.00" xmlns="http://www.w3.org/2000/svg" xmlns:xlink="http://www.w3.org/1999/xlink">
<g id="graph0" class="graph" transform="scale(1 1) rotate(0) translate(4 104)">
<title>MiniBlogApp.Services.UserService.GetAll</title>
<!-- Node1 -->
<g id="Node000001" class="node">
<title>Node1</title>
<g id="a_Node000001"><a xlink:title=" ">
<polygon fill="#999999" stroke="#666666" points="384,-64.5 236,-64.5 236,-34.5 384,-34.5 384,-64.5"/>
<text text-anchor="start" x="244" y="-52.5" font-family="Helvetica,sans-Serif" font-size="10.00">MiniBlogApp.Services.User</text>
<text text-anchor="middle" x="310" y="-41.5" font-family="Helvetica,sans-Serif" font-size="10.00">Service.GetAll</text>
</a>
</g>
</g>
<!-- Node2 -->
<g id="Node000002" class="node">
<title>Node2</title>
<g id="a_Node000002"><a xlink:href="classMiniBlogApp_1_1Tests_1_1ServiceTests_1_1UserServiceTests.html#a50833fd40e1d485a838d7981e3222107" target="_top" xlink:title=" ">
<polygon fill="white" stroke="#666666" points="180.5,-100 19.5,-100 19.5,-59 180.5,-59 180.5,-100"/>
<text text-anchor="start" x="27.5" y="-88" font-family="Helvetica,sans-Serif" font-size="10.00">MiniBlogApp.Tests.Service</text>
<text text-anchor="start" x="27.5" y="-77" font-family="Helvetica,sans-Serif" font-size="10.00">Tests.UserServiceTests.GetAll</text>
<text text-anchor="middle" x="100" y="-66" font-family="Helvetica,sans-Serif" font-size="10.00">_ShouldReturnAllUsers</text>
</a>
</g>
</g>
<!-- Node1&#45;&gt;Node2 -->
<g id="edge1_Node000001_Node000002" class="edge">
<title>Node1&#45;&gt;Node2</title>
<g id="a_edge1_Node000001_Node000002"><a xlink:title=" ">
<path fill="none" stroke="#63b8ff" d="M225.76,-61.51C210.87,-63.65 195.38,-65.89 180.59,-68.02"/>
<polygon fill="#63b8ff" stroke="#63b8ff" points="226.56,-64.93 235.96,-60.03 225.56,-58 226.56,-64.93"/>
</a>
</g>
</g>
<!-- Node3 -->
<g id="Node000003" class="node">
<title>Node3</title>
<g id="a_Node000003"><a xlink:href="classMiniBlogApp_1_1Tests_1_1ServiceTests_1_1UserServiceAdvancedTests.html#a29934d6cff564aab3b621bf2b194542a" target="_top" xlink:title=" ">
<polygon fill="white" stroke="#666666" points="200,-41 0,-41 0,0 200,0 200,-41"/>
<text text-anchor="start" x="8" y="-29" font-family="Helvetica,sans-Serif" font-size="10.00">MiniBlogApp.Tests.Service</text>
<text text-anchor="start" x="8" y="-18" font-family="Helvetica,sans-Serif" font-size="10.00">Tests.UserServiceAdvancedTests.</text>
<text text-anchor="middle" x="100" y="-7" font-family="Helvetica,sans-Serif" font-size="10.00">GetAll_ShouldReturnAtLeastTwoUsers</text>
</a>
</g>
</g>
<!-- Node1&#45;&gt;Node3 -->
<g id="edge2_Node000001_Node000003" class="edge">
<title>Node1&#45;&gt;Node3</title>
<g id="a_edge2_Node000001_Node000003"><a xlink:title=" ">
<path fill="none" stroke="#63b8ff" d="M225.78,-37.9C217.35,-36.72 208.73,-35.52 200.15,-34.32"/>
<polygon fill="#63b8ff" stroke="#63b8ff" points="225.57,-41.4 235.96,-39.32 226.54,-34.47 225.57,-41.4"/>
</a>
</g>
</g>
</g>
</svg>
