<?xml version="1.0" encoding="UTF-8" standalone="no"?>
<!DOCTYPE svg PUBLIC "-//W3C//DTD SVG 1.1//EN"
 "http://www.w3.org/Graphics/SVG/1.1/DTD/svg11.dtd">
<!-- Generated by graphviz version 2.43.0 (0)
 -->
<!-- Title: MiniBlogApp.Pages.PostAnalyticsModel Pages: 1 -->
<svg width="475pt" height="124pt"
 viewBox="0.00 0.00 475.00 123.50" xmlns="http://www.w3.org/2000/svg" xmlns:xlink="http://www.w3.org/1999/xlink">
<g id="graph0" class="graph" transform="scale(1 1) rotate(0) translate(4 119.5)">
<title>MiniBlogApp.Pages.PostAnalyticsModel</title>
<!-- Node1 -->
<g id="Node000001" class="node">
<title>Node1</title>
<g id="a_Node000001"><a xlink:title=" ">
<polygon fill="#999999" stroke="#666666" points="467,-78 288,-78 288,-48 467,-48 467,-78"/>
<text text-anchor="start" x="296" y="-66" font-family="Helvetica,sans-Serif" font-size="10.00">MiniBlogApp.Pages.PostAnalytics</text>
<text text-anchor="middle" x="377.5" y="-55" font-family="Helvetica,sans-Serif" font-size="10.00">Model</text>
</a>
</g>
</g>
<!-- Node2 -->
<g id="Node000002" class="node">
<title>Node2</title>
<g id="a_Node000002"><a xlink:title=" ">
<polygon fill="white" stroke="#666666" points="114,-115.5 44,-115.5 44,-96.5 114,-96.5 114,-115.5"/>
<text text-anchor="middle" x="79" y="-103.5" font-family="Helvetica,sans-Serif" font-size="10.00">PageModel</text>
</a>
</g>
</g>
<!-- Node2&#45;&gt;Node1 -->
<g id="edge1_Node000001_Node000002" class="edge">
<title>Node2&#45;&gt;Node1</title>
<g id="a_edge1_Node000001_Node000002"><a xlink:title=" ">
<path fill="none" stroke="#63b8ff" d="M124.16,-99.6C167.24,-93.35 233.97,-83.67 288,-75.83"/>
<polygon fill="#63b8ff" stroke="#63b8ff" points="123.41,-96.17 114.01,-101.07 124.41,-103.1 123.41,-96.17"/>
</a>
</g>
</g>
<!-- Node3 -->
<g id="Node000003" class="node">
<title>Node3</title>
<g id="a_Node000003"><a xlink:href="interfaceMiniBlogApp_1_1Services_1_1IBlogStorage.html" target="_top" xlink:title="Інтерфейс для роботи зі сховищем дописів.">
<polygon fill="white" stroke="#666666" points="154,-78 4,-78 4,-48 154,-48 154,-78"/>
<text text-anchor="start" x="12" y="-66" font-family="Helvetica,sans-Serif" font-size="10.00">MiniBlogApp.Services.IBlog</text>
<text text-anchor="middle" x="79" y="-55" font-family="Helvetica,sans-Serif" font-size="10.00">Storage</text>
</a>
</g>
</g>
<!-- Node3&#45;&gt;Node1 -->
<g id="edge2_Node000001_Node000003" class="edge">
<title>Node3&#45;&gt;Node1</title>
<g id="a_edge2_Node000001_Node000003"><a xlink:title=" ">
<path fill="none" stroke="#9a32cd" stroke-dasharray="5,2" d="M164.23,-63C202.86,-63 248.67,-63 287.83,-63"/>
<polygon fill="#9a32cd" stroke="#9a32cd" points="164.05,-59.5 154.05,-63 164.05,-66.5 164.05,-59.5"/>
</a>
</g>
<text text-anchor="middle" x="223" y="-66" font-family="Helvetica,sans-Serif" font-size="10.00" fill="grey"> _storage</text>
</g>
<!-- Node4 -->
<g id="Node000004" class="node">
<title>Node4</title>
<g id="a_Node000004"><a xlink:href="interfaceMiniBlogApp_1_1Strategies_1_1IPostAnalyticsStrategy.html" target="_top" xlink:title="Інтерфейс стратегії для аналітики постів блогу.">
<polygon fill="white" stroke="#666666" points="158,-30 0,-30 0,0 158,0 158,-30"/>
<text text-anchor="start" x="8" y="-18" font-family="Helvetica,sans-Serif" font-size="10.00">MiniBlogApp.Strategies.IPost</text>
<text text-anchor="middle" x="79" y="-7" font-family="Helvetica,sans-Serif" font-size="10.00">AnalyticsStrategy</text>
</a>
</g>
</g>
<!-- Node4&#45;&gt;Node1 -->
<g id="edge3_Node000001_Node000004" class="edge">
<title>Node4&#45;&gt;Node1</title>
<g id="a_edge3_Node000001_Node000004"><a xlink:title=" ">
<path fill="none" stroke="#9a32cd" stroke-dasharray="5,2" d="M168.25,-29.29C206.01,-35.4 250.01,-42.52 287.81,-48.64"/>
<polygon fill="#9a32cd" stroke="#9a32cd" points="168.72,-25.82 158.29,-27.67 167.6,-32.73 168.72,-25.82"/>
</a>
</g>
<text text-anchor="middle" x="223" y="-48" font-family="Helvetica,sans-Serif" font-size="10.00" fill="grey"> _analyticsStrategy</text>
</g>
</g>
</svg>
