<?xml version="1.0" encoding="UTF-8" standalone="no"?>
<!DOCTYPE svg PUBLIC "-//W3C//DTD SVG 1.1//EN"
 "http://www.w3.org/Graphics/SVG/1.1/DTD/svg11.dtd">
<!-- Generated by graphviz version 2.43.0 (0)
 -->
<!-- Title: MiniBlogApp.Tests.ServiceTests.BlogStorageAddLikeTests.AddLike_ShouldDoNothing_WhenPostDoesNotExist Pages: 1 -->
<svg width="606pt" height="60pt"
 viewBox="0.00 0.00 606.00 60.00" xmlns="http://www.w3.org/2000/svg" xmlns:xlink="http://www.w3.org/1999/xlink">
<g id="graph0" class="graph" transform="scale(1 1) rotate(0) translate(4 56)">
<title>MiniBlogApp.Tests.ServiceTests.BlogStorageAddLikeTests.AddLike_ShouldDoNothing_WhenPostDoesNotExist</title>
<!-- Node1 -->
<g id="Node000001" class="node">
<title>Node1</title>
<g id="a_Node000001"><a xlink:title="Verifies behavior when attempting to add a like to a non&#45;existent post.">
<polygon fill="#999999" stroke="#666666" points="224,-52 0,-52 0,0 224,0 224,-52"/>
<text text-anchor="start" x="8" y="-40" font-family="Helvetica,sans-Serif" font-size="10.00">MiniBlogApp.Tests.Service</text>
<text text-anchor="start" x="8" y="-29" font-family="Helvetica,sans-Serif" font-size="10.00">Tests.BlogStorageAddLikeTests.</text>
<text text-anchor="start" x="8" y="-18" font-family="Helvetica,sans-Serif" font-size="10.00">AddLike_ShouldDoNothing_WhenPostDoes</text>
<text text-anchor="middle" x="112" y="-7" font-family="Helvetica,sans-Serif" font-size="10.00">NotExist</text>
</a>
</g>
</g>
<!-- Node2 -->
<g id="Node000002" class="node">
<title>Node2</title>
<g id="a_Node000002"><a xlink:href="classMiniBlogApp_1_1Services_1_1BlogStorage.html#a1b858ba0dd0de0e695ea806daaf09fd7" target="_top" xlink:title=" ">
<polygon fill="white" stroke="#666666" points="407,-41 260,-41 260,-11 407,-11 407,-41"/>
<text text-anchor="start" x="268" y="-29" font-family="Helvetica,sans-Serif" font-size="10.00">MiniBlogApp.Services.Blog</text>
<text text-anchor="middle" x="333.5" y="-18" font-family="Helvetica,sans-Serif" font-size="10.00">Storage.AddLike</text>
</a>
</g>
</g>
<!-- Node1&#45;&gt;Node2 -->
<g id="edge1_Node000001_Node000002" class="edge">
<title>Node1&#45;&gt;Node2</title>
<g id="a_edge1_Node000001_Node000002"><a xlink:title=" ">
<path fill="none" stroke="#63b8ff" d="M224.04,-26C232.65,-26 241.26,-26 249.65,-26"/>
<polygon fill="#63b8ff" stroke="#63b8ff" points="249.75,-29.5 259.75,-26 249.75,-22.5 249.75,-29.5"/>
</a>
</g>
</g>
<!-- Node3 -->
<g id="Node000003" class="node">
<title>Node3</title>
<g id="a_Node000003"><a xlink:href="classMiniBlogApp_1_1Services_1_1BlogStorage.html#a170b5b0c311e8124d77dcc785672da16" target="_top" xlink:title=" ">
<polygon fill="white" stroke="#666666" points="598,-41 443,-41 443,-11 598,-11 598,-41"/>
<text text-anchor="start" x="451" y="-29" font-family="Helvetica,sans-Serif" font-size="10.00">MiniBlogApp.Services.Blog</text>
<text text-anchor="middle" x="520.5" y="-18" font-family="Helvetica,sans-Serif" font-size="10.00">Storage.GetPostByIdInternal</text>
</a>
</g>
</g>
<!-- Node2&#45;&gt;Node3 -->
<g id="edge2_Node000002_Node000003" class="edge">
<title>Node2&#45;&gt;Node3</title>
<g id="a_edge2_Node000002_Node000003"><a xlink:title=" ">
<path fill="none" stroke="#63b8ff" d="M407.09,-26C415.53,-26 424.2,-26 432.8,-26"/>
<polygon fill="#63b8ff" stroke="#63b8ff" points="432.86,-29.5 442.86,-26 432.86,-22.5 432.86,-29.5"/>
</a>
</g>
</g>
</g>
</svg>
