<?xml version="1.0" encoding="UTF-8" standalone="no"?>
<!DOCTYPE svg PUBLIC "-//W3C//DTD SVG 1.1//EN"
 "http://www.w3.org/Graphics/SVG/1.1/DTD/svg11.dtd">
<!-- Generated by graphviz version 2.43.0 (0)
 -->
<!-- Title: MiniBlogApp.Builders.PostBuilder Pages: 1 -->
<svg width="242pt" height="104pt"
 viewBox="0.00 0.00 241.50 104.00" xmlns="http://www.w3.org/2000/svg" xmlns:xlink="http://www.w3.org/1999/xlink">
<g id="graph0" class="graph" transform="scale(1 1) rotate(0) translate(4 100)">
<title>MiniBlogApp.Builders.PostBuilder</title>
<!-- Node1 -->
<g id="Node000001" class="node">
<title>Node1</title>
<g id="a_Node000001"><a xlink:title="Конкретна реалізація патерну Builder для класу Post.">
<polygon fill="#999999" stroke="#666666" points="173,-30 28,-30 28,0 173,0 173,-30"/>
<text text-anchor="start" x="36" y="-18" font-family="Helvetica,sans-Serif" font-size="10.00">MiniBlogApp.Builders.Post</text>
<text text-anchor="middle" x="100.5" y="-7" font-family="Helvetica,sans-Serif" font-size="10.00">Builder</text>
</a>
</g>
</g>
<!-- Node2 -->
<g id="Node000002" class="node">
<title>Node2</title>
<g id="a_Node000002"><a xlink:href="interfaceMiniBlogApp_1_1Builders_1_1IPostBuilder.html" target="_top" xlink:title=" ">
<polygon fill="white" stroke="#666666" points="75,-96 0,-96 0,-77 75,-77 75,-96"/>
<text text-anchor="middle" x="37.5" y="-84" font-family="Helvetica,sans-Serif" font-size="10.00">IPostBuilder</text>
</a>
</g>
</g>
<!-- Node2&#45;&gt;Node1 -->
<g id="edge1_Node000001_Node000002" class="edge">
<title>Node2&#45;&gt;Node1</title>
<g id="a_edge1_Node000001_Node000002"><a xlink:title=" ">
<path fill="none" stroke="#63b8ff" d="M51.98,-69.53C62.76,-57.64 77.33,-41.56 87.68,-30.14"/>
<polygon fill="#63b8ff" stroke="#63b8ff" points="49.35,-67.22 45.23,-76.98 54.53,-71.92 49.35,-67.22"/>
</a>
</g>
</g>
<!-- Node3 -->
<g id="Node000003" class="node">
<title>Node3</title>
<g id="a_Node000003"><a xlink:href="classMiniBlogApp_1_1Models_1_1Post.html" target="_top" xlink:title="Основна модель поста, яка керує своєю поведінкою через патерн State.">
<polygon fill="white" stroke="#666666" points="233.5,-96 93.5,-96 93.5,-77 233.5,-77 233.5,-96"/>
<text text-anchor="middle" x="163.5" y="-84" font-family="Helvetica,sans-Serif" font-size="10.00">MiniBlogApp.Models.Post</text>
</a>
</g>
</g>
<!-- Node3&#45;&gt;Node1 -->
<g id="edge2_Node000001_Node000003" class="edge">
<title>Node3&#45;&gt;Node1</title>
<g id="a_edge2_Node000001_Node000003"><a xlink:title=" ">
<path fill="none" stroke="#9a32cd" stroke-dasharray="5,2" d="M149.02,-69.53C138.24,-57.64 123.67,-41.56 113.32,-30.14"/>
<polygon fill="#9a32cd" stroke="#9a32cd" points="146.47,-71.92 155.77,-76.98 151.65,-67.22 146.47,-71.92"/>
</a>
</g>
<text text-anchor="middle" x="152.5" y="-51" font-family="Helvetica,sans-Serif" font-size="10.00" fill="grey"> _post</text>
</g>
</g>
</svg>
