<?xml version="1.0" encoding="UTF-8" standalone="no"?>
<!DOCTYPE svg PUBLIC "-//W3C//DTD SVG 1.1//EN"
 "http://www.w3.org/Graphics/SVG/1.1/DTD/svg11.dtd">
<!-- Generated by graphviz version 2.43.0 (0)
 -->
<!-- Title: MiniBlogApp.Models.BlogSettings Pages: 1 -->
<svg width="257pt" height="93pt"
 viewBox="0.00 0.00 257.00 93.00" xmlns="http://www.w3.org/2000/svg" xmlns:xlink="http://www.w3.org/1999/xlink">
<g id="graph0" class="graph" transform="scale(1 1) rotate(0) translate(4 89)">
<title>MiniBlogApp.Models.BlogSettings</title>
<!-- Node1 -->
<g id="Node000001" class="node">
<title>Node1</title>
<g id="a_Node000001"><a xlink:title="Реалізація патерну Singleton для керування глобальними налаштуваннями блогу.">
<polygon fill="#999999" stroke="#666666" points="181,-19 0,-19 0,0 181,0 181,-19"/>
<text text-anchor="middle" x="90.5" y="-7" font-family="Helvetica,sans-Serif" font-size="10.00">MiniBlogApp.Models.BlogSettings</text>
</a>
</g>
</g>
<!-- Node2 -->
<g id="Node000002" class="node">
<title>Node2</title>
<g id="a_Node000002"><a xlink:href="classMiniBlogApp_1_1Models_1_1BlogSettings.html" target="_top" xlink:title="Реалізація патерну Singleton для керування глобальними налаштуваннями блогу.">
<polygon fill="white" stroke="#666666" points="181,-85 0,-85 0,-66 181,-66 181,-85"/>
<text text-anchor="middle" x="90.5" y="-73" font-family="Helvetica,sans-Serif" font-size="10.00">MiniBlogApp.Models.BlogSettings</text>
</a>
</g>
</g>
<!-- Node2&#45;&gt;Node1 -->
<g id="edge1_Node000001_Node000002" class="edge">
<title>Node2&#45;&gt;Node1</title>
<g id="a_edge1_Node000001_Node000002"><a xlink:title=" ">
<path fill="none" stroke="#9a32cd" stroke-dasharray="5,2" d="M90.5,-55.58C90.5,-43.63 90.5,-28.72 90.5,-19.41"/>
<polygon fill="#9a32cd" stroke="#9a32cd" points="87,-55.87 90.5,-65.87 94,-55.87 87,-55.87"/>
</a>
</g>
<text text-anchor="middle" x="115.5" y="-40" font-family="Helvetica,sans-Serif" font-size="10.00" fill="grey"> _instance</text>
</g>
<!-- Node2&#45;&gt;Node2 -->
<g id="edge2_Node000002_Node000002" class="edge">
<title>Node2&#45;&gt;Node2</title>
<g id="a_edge2_Node000002_Node000002"><a xlink:title=" ">
<path fill="none" stroke="#9a32cd" stroke-dasharray="5,2" d="M191.17,-79.34C196.1,-78.38 199,-77.1 199,-75.5 199,-73 191.94,-71.28 181.12,-70.34"/>
<polygon fill="#9a32cd" stroke="#9a32cd" points="190.58,-75.89 181.12,-80.66 191.49,-82.83 190.58,-75.89"/>
</a>
</g>
<text text-anchor="middle" x="224" y="-73" font-family="Helvetica,sans-Serif" font-size="10.00" fill="grey"> _instance</text>
</g>
</g>
</svg>
