<?xml version="1.0" encoding="UTF-8" standalone="no"?>
<!DOCTYPE svg PUBLIC "-//W3C//DTD SVG 1.1//EN"
 "http://www.w3.org/Graphics/SVG/1.1/DTD/svg11.dtd">
<!-- Generated by graphviz version 2.43.0 (0)
 -->
<!-- Title: MiniBlogApp.Pages.ViewPostModel Pages: 1 -->
<svg width="244pt" height="115pt"
 viewBox="0.00 0.00 244.00 115.00" xmlns="http://www.w3.org/2000/svg" xmlns:xlink="http://www.w3.org/1999/xlink">
<g id="graph0" class="graph" transform="scale(1 1) rotate(0) translate(4 111)">
<title>MiniBlogApp.Pages.ViewPostModel</title>
<!-- Node1 -->
<g id="Node000001" class="node">
<title>Node1</title>
<g id="a_Node000001"><a xlink:title=" ">
<polygon fill="#999999" stroke="#666666" points="177,-30 19,-30 19,0 177,0 177,-30"/>
<text text-anchor="start" x="27" y="-18" font-family="Helvetica,sans-Serif" font-size="10.00">MiniBlogApp.Pages.ViewPost</text>
<text text-anchor="middle" x="98" y="-7" font-family="Helvetica,sans-Serif" font-size="10.00">Model</text>
</a>
</g>
</g>
<!-- Node2 -->
<g id="Node000002" class="node">
<title>Node2</title>
<g id="a_Node000002"><a xlink:title=" ">
<polygon fill="white" stroke="#666666" points="70,-101.5 0,-101.5 0,-82.5 70,-82.5 70,-101.5"/>
<text text-anchor="middle" x="35" y="-89.5" font-family="Helvetica,sans-Serif" font-size="10.00">PageModel</text>
</a>
</g>
</g>
<!-- Node2&#45;&gt;Node1 -->
<g id="edge1_Node000001_Node000002" class="edge">
<title>Node2&#45;&gt;Node1</title>
<g id="a_edge1_Node000001_Node000002"><a xlink:title=" ">
<path fill="none" stroke="#63b8ff" d="M48.84,-74.53C60,-61.23 75.54,-42.73 86.15,-30.11"/>
<polygon fill="#63b8ff" stroke="#63b8ff" points="45.98,-72.49 42.23,-82.4 51.34,-76.99 45.98,-72.49"/>
</a>
</g>
</g>
<!-- Node3 -->
<g id="Node000003" class="node">
<title>Node3</title>
<g id="a_Node000003"><a xlink:href="interfaceMiniBlogApp_1_1Facades_1_1IBlogFacade.html" target="_top" xlink:title="Контракт для Фасаду, що об&#39;єднує всі патерни.">
<polygon fill="white" stroke="#666666" points="236,-107 88,-107 88,-77 236,-77 236,-107"/>
<text text-anchor="start" x="96" y="-95" font-family="Helvetica,sans-Serif" font-size="10.00">MiniBlogApp.Facades.IBlog</text>
<text text-anchor="middle" x="162" y="-84" font-family="Helvetica,sans-Serif" font-size="10.00">Facade</text>
</a>
</g>
</g>
<!-- Node3&#45;&gt;Node1 -->
<g id="edge2_Node000001_Node000003" class="edge">
<title>Node3&#45;&gt;Node1</title>
<g id="a_edge2_Node000001_Node000003"><a xlink:title=" ">
<path fill="none" stroke="#9a32cd" stroke-dasharray="5,2" d="M143.31,-69.1C132.55,-56.49 119.36,-41.03 109.98,-30.04"/>
<polygon fill="#9a32cd" stroke="#9a32cd" points="140.81,-71.56 149.96,-76.89 146.13,-67.01 140.81,-71.56"/>
</a>
</g>
<text text-anchor="middle" x="165" y="-51" font-family="Helvetica,sans-Serif" font-size="10.00" fill="grey"> _blogFacade</text>
</g>
</g>
</svg>
