<?xml version="1.0" encoding="UTF-8" standalone="no"?>
<!DOCTYPE svg PUBLIC "-//W3C//DTD SVG 1.1//EN"
 "http://www.w3.org/Graphics/SVG/1.1/DTD/svg11.dtd">
<!-- Generated by graphviz version 2.43.0 (0)
 -->
<!-- Title: MiniBlogApp.Pages.IndexModel Pages: 1 -->
<svg width="442pt" height="104pt"
 viewBox="0.00 0.00 441.50 104.00" xmlns="http://www.w3.org/2000/svg" xmlns:xlink="http://www.w3.org/1999/xlink">
<g id="graph0" class="graph" transform="scale(1 1) rotate(0) translate(4 100)">
<title>MiniBlogApp.Pages.IndexModel</title>
<!-- Node1 -->
<g id="Node000001" class="node">
<title>Node1</title>
<g id="a_Node000001"><a xlink:title=" ">
<polygon fill="#999999" stroke="#666666" points="247,-19 77,-19 77,0 247,0 247,-19"/>
<text text-anchor="middle" x="162" y="-7" font-family="Helvetica,sans-Serif" font-size="10.00">MiniBlogApp.Pages.IndexModel</text>
</a>
</g>
</g>
<!-- Node2 -->
<g id="Node000002" class="node">
<title>Node2</title>
<g id="a_Node000002"><a xlink:title=" ">
<polygon fill="white" stroke="#666666" points="70,-90.5 0,-90.5 0,-71.5 70,-71.5 70,-90.5"/>
<text text-anchor="middle" x="35" y="-78.5" font-family="Helvetica,sans-Serif" font-size="10.00">PageModel</text>
</a>
</g>
</g>
<!-- Node2&#45;&gt;Node1 -->
<g id="edge1_Node000001_Node000002" class="edge">
<title>Node2&#45;&gt;Node1</title>
<g id="a_edge1_Node000001_Node000002"><a xlink:title=" ">
<path fill="none" stroke="#63b8ff" d="M59.66,-66.51C85.29,-52.48 124.62,-30.96 146.3,-19.09"/>
<polygon fill="#63b8ff" stroke="#63b8ff" points="57.66,-63.61 50.57,-71.48 61.03,-69.75 57.66,-63.61"/>
</a>
</g>
</g>
<!-- Node3 -->
<g id="Node000003" class="node">
<title>Node3</title>
<g id="a_Node000003"><a xlink:href="interfaceMiniBlogApp_1_1Facades_1_1IBlogFacade.html" target="_top" xlink:title="Контракт для Фасаду, що об&#39;єднує всі патерни.">
<polygon fill="white" stroke="#666666" points="236,-96 88,-96 88,-66 236,-66 236,-96"/>
<text text-anchor="start" x="96" y="-84" font-family="Helvetica,sans-Serif" font-size="10.00">MiniBlogApp.Facades.IBlog</text>
<text text-anchor="middle" x="162" y="-73" font-family="Helvetica,sans-Serif" font-size="10.00">Facade</text>
</a>
</g>
</g>
<!-- Node3&#45;&gt;Node1 -->
<g id="edge2_Node000001_Node000003" class="edge">
<title>Node3&#45;&gt;Node1</title>
<g id="a_edge2_Node000001_Node000003"><a xlink:title=" ">
<path fill="none" stroke="#9a32cd" stroke-dasharray="5,2" d="M162,-55.56C162,-42.95 162,-28.35 162,-19.27"/>
<polygon fill="#9a32cd" stroke="#9a32cd" points="158.5,-55.94 162,-65.94 165.5,-55.94 158.5,-55.94"/>
</a>
</g>
<text text-anchor="middle" x="194" y="-40" font-family="Helvetica,sans-Serif" font-size="10.00" fill="grey"> _blogFacade</text>
</g>
<!-- Node4 -->
<g id="Node000004" class="node">
<title>Node4</title>
<g id="a_Node000004"><a xlink:href="interfaceMiniBlogApp_1_1Services_1_1IMarkdownParser.html" target="_top" xlink:title="Інтерфейс для патерну Adapter.">
<polygon fill="white" stroke="#666666" points="433.5,-96 254.5,-96 254.5,-66 433.5,-66 433.5,-96"/>
<text text-anchor="start" x="262.5" y="-84" font-family="Helvetica,sans-Serif" font-size="10.00">MiniBlogApp.Services.IMarkdown</text>
<text text-anchor="middle" x="344" y="-73" font-family="Helvetica,sans-Serif" font-size="10.00">Parser</text>
</a>
</g>
</g>
<!-- Node4&#45;&gt;Node1 -->
<g id="edge3_Node000001_Node000004" class="edge">
<title>Node4&#45;&gt;Node1</title>
<g id="a_edge3_Node000001_Node000004"><a xlink:title=" ">
<path fill="none" stroke="#9a32cd" stroke-dasharray="5,2" d="M297.77,-62.35C261.49,-48.49 212.56,-29.81 184.44,-19.07"/>
<polygon fill="#9a32cd" stroke="#9a32cd" points="296.58,-65.64 307.17,-65.94 299.08,-59.1 296.58,-65.64"/>
</a>
</g>
<text text-anchor="middle" x="303.5" y="-40" font-family="Helvetica,sans-Serif" font-size="10.00" fill="grey"> _markdownParser</text>
</g>
</g>
</svg>
