<?xml version="1.0" encoding="UTF-8" standalone="no"?>
<!DOCTYPE svg PUBLIC "-//W3C//DTD SVG 1.1//EN"
 "http://www.w3.org/Graphics/SVG/1.1/DTD/svg11.dtd">
<!-- Generated by graphviz version 2.43.0 (0)
 -->
<!-- Title: MiniBlogApp.Services.LoggerService.ClearAll Pages: 1 -->
<svg width="381pt" height="275pt"
 viewBox="0.00 0.00 381.00 274.50" xmlns="http://www.w3.org/2000/svg" xmlns:xlink="http://www.w3.org/1999/xlink">
<g id="graph0" class="graph" transform="scale(1 1) rotate(0) translate(4 270.5)">
<title>MiniBlogApp.Services.LoggerService.ClearAll</title>
<!-- Node1 -->
<g id="Node000001" class="node">
<title>Node1</title>
<g id="a_Node000001"><a xlink:title=" ">
<polygon fill="#999999" stroke="#666666" points="373,-143 215,-143 215,-113 373,-113 373,-143"/>
<text text-anchor="start" x="223" y="-131" font-family="Helvetica,sans-Serif" font-size="10.00">MiniBlogApp.Services.Logger</text>
<text text-anchor="middle" x="294" y="-120" font-family="Helvetica,sans-Serif" font-size="10.00">Service.ClearAll</text>
</a>
</g>
</g>
<!-- Node2 -->
<g id="Node000002" class="node">
<title>Node2</title>
<g id="a_Node000002"><a xlink:href="classMiniBlogApp_1_1Tests_1_1ServiceTests_1_1BlogStorageAddLikeTests.html#acb3b992b14a55ffa5513f5898d7e4f02" target="_top" xlink:title="Constructor runs before each test.">
<polygon fill="white" stroke="#666666" points="174.5,-266.5 4.5,-266.5 4.5,-225.5 174.5,-225.5 174.5,-266.5"/>
<text text-anchor="start" x="12.5" y="-254.5" font-family="Helvetica,sans-Serif" font-size="10.00">MiniBlogApp.Tests.Service</text>
<text text-anchor="start" x="12.5" y="-243.5" font-family="Helvetica,sans-Serif" font-size="10.00">Tests.BlogStorageAddLikeTests.</text>
<text text-anchor="middle" x="89.5" y="-232.5" font-family="Helvetica,sans-Serif" font-size="10.00">BlogStorageAddLikeTests</text>
</a>
</g>
</g>
<!-- Node1&#45;&gt;Node2 -->
<g id="edge1_Node000001_Node000002" class="edge">
<title>Node1&#45;&gt;Node2</title>
<g id="a_edge1_Node000001_Node000002"><a xlink:title=" ">
<path fill="none" stroke="#63b8ff" d="M269.79,-150.09C247.88,-169.94 213.34,-198.7 179,-217 173.29,-220.04 167.21,-222.84 161,-225.4"/>
<polygon fill="#63b8ff" stroke="#63b8ff" points="272.28,-152.56 277.27,-143.22 267.54,-147.41 272.28,-152.56"/>
</a>
</g>
</g>
<!-- Node3 -->
<g id="Node000003" class="node">
<title>Node3</title>
<g id="a_Node000003"><a xlink:href="classMiniBlogApp_1_1Tests_1_1ServiceTests_1_1BlogStorageAddPostTests.html#a192d8d77f84b0fce7ba466677f3f8738" target="_top" xlink:title="Constructor runs before each test.">
<polygon fill="white" stroke="#666666" points="175,-207.5 4,-207.5 4,-166.5 175,-166.5 175,-207.5"/>
<text text-anchor="start" x="12" y="-195.5" font-family="Helvetica,sans-Serif" font-size="10.00">MiniBlogApp.Tests.Service</text>
<text text-anchor="start" x="12" y="-184.5" font-family="Helvetica,sans-Serif" font-size="10.00">Tests.BlogStorageAddPostTests.</text>
<text text-anchor="middle" x="89.5" y="-173.5" font-family="Helvetica,sans-Serif" font-size="10.00">BlogStorageAddPostTests</text>
</a>
</g>
</g>
<!-- Node1&#45;&gt;Node3 -->
<g id="edge2_Node000001_Node000003" class="edge">
<title>Node1&#45;&gt;Node3</title>
<g id="a_edge2_Node000001_Node000003"><a xlink:title=" ">
<path fill="none" stroke="#63b8ff" d="M231.71,-145.86C209.46,-152.34 184.13,-159.72 161.13,-166.42"/>
<polygon fill="#63b8ff" stroke="#63b8ff" points="232.76,-149.2 241.38,-143.04 230.8,-142.48 232.76,-149.2"/>
</a>
</g>
</g>
<!-- Node4 -->
<g id="Node000004" class="node">
<title>Node4</title>
<g id="a_Node000004"><a xlink:href="classMiniBlogApp_1_1Tests_1_1ServiceTests_1_1BlogStorageAdvancedTests.html#a70d052098f36403931973d134ea01a97" target="_top" xlink:title="Constructor runs before each test.">
<polygon fill="white" stroke="#666666" points="179,-148.5 0,-148.5 0,-107.5 179,-107.5 179,-148.5"/>
<text text-anchor="start" x="8" y="-136.5" font-family="Helvetica,sans-Serif" font-size="10.00">MiniBlogApp.Tests.Service</text>
<text text-anchor="start" x="8" y="-125.5" font-family="Helvetica,sans-Serif" font-size="10.00">Tests.BlogStorageAdvancedTests.</text>
<text text-anchor="middle" x="89.5" y="-114.5" font-family="Helvetica,sans-Serif" font-size="10.00">BlogStorageAdvancedTests</text>
</a>
</g>
</g>
<!-- Node1&#45;&gt;Node4 -->
<g id="edge3_Node000001_Node000004" class="edge">
<title>Node1&#45;&gt;Node4</title>
<g id="a_edge3_Node000001_Node000004"><a xlink:title=" ">
<path fill="none" stroke="#63b8ff" d="M204.76,-128C196.3,-128 187.72,-128 179.26,-128"/>
<polygon fill="#63b8ff" stroke="#63b8ff" points="205,-131.5 215,-128 205,-124.5 205,-131.5"/>
</a>
</g>
</g>
<!-- Node5 -->
<g id="Node000005" class="node">
<title>Node5</title>
<g id="a_Node000005"><a xlink:href="classMiniBlogApp_1_1Tests_1_1ServiceTests_1_1BlogStorageEdgeCaseTests.html#a9277aa134b3c458e991f232a36e5d252" target="_top" xlink:title="Constructor runs before each test.">
<polygon fill="white" stroke="#666666" points="179,-89.5 0,-89.5 0,-48.5 179,-48.5 179,-89.5"/>
<text text-anchor="start" x="8" y="-77.5" font-family="Helvetica,sans-Serif" font-size="10.00">MiniBlogApp.Tests.Service</text>
<text text-anchor="start" x="8" y="-66.5" font-family="Helvetica,sans-Serif" font-size="10.00">Tests.BlogStorageEdgeCaseTests.</text>
<text text-anchor="middle" x="89.5" y="-55.5" font-family="Helvetica,sans-Serif" font-size="10.00">BlogStorageEdgeCaseTests</text>
</a>
</g>
</g>
<!-- Node1&#45;&gt;Node5 -->
<g id="edge4_Node000001_Node000005" class="edge">
<title>Node1&#45;&gt;Node5</title>
<g id="a_edge4_Node000001_Node000005"><a xlink:title=" ">
<path fill="none" stroke="#63b8ff" d="M231.71,-110.14C209.46,-103.66 184.13,-96.28 161.13,-89.58"/>
<polygon fill="#63b8ff" stroke="#63b8ff" points="230.8,-113.52 241.38,-112.96 232.76,-106.8 230.8,-113.52"/>
</a>
</g>
</g>
<!-- Node6 -->
<g id="Node000006" class="node">
<title>Node6</title>
<g id="a_Node000006"><a xlink:href="classLoggerServiceAdvancedTests.html#a096e0bfb3ce67de2b5ce922e4405a36f" target="_top" xlink:title="Constructor for the test class.">
<polygon fill="white" stroke="#666666" points="170,-30 9,-30 9,0 170,0 170,-30"/>
<text text-anchor="start" x="17" y="-18" font-family="Helvetica,sans-Serif" font-size="10.00">LoggerServiceAdvancedTests.</text>
<text text-anchor="middle" x="89.5" y="-7" font-family="Helvetica,sans-Serif" font-size="10.00">LoggerServiceAdvancedTests</text>
</a>
</g>
</g>
<!-- Node1&#45;&gt;Node6 -->
<g id="edge5_Node000001_Node000006" class="edge">
<title>Node1&#45;&gt;Node6</title>
<g id="a_edge5_Node000001_Node000006"><a xlink:title=" ">
<path fill="none" stroke="#63b8ff" d="M269.92,-105.84C248.09,-86 213.61,-57.42 179,-40 171.44,-36.2 163.22,-32.89 154.93,-30.05"/>
<polygon fill="#63b8ff" stroke="#63b8ff" points="267.64,-108.5 277.36,-112.72 272.39,-103.36 267.64,-108.5"/>
</a>
</g>
</g>
</g>
</svg>
