<?xml version="1.0" encoding="UTF-8" standalone="no"?>
<!DOCTYPE svg PUBLIC "-//W3C//DTD SVG 1.1//EN"
 "http://www.w3.org/Graphics/SVG/1.1/DTD/svg11.dtd">
<!-- Generated by graphviz version 2.43.0 (0)
 -->
<!-- Title: MiniBlogApp.Tests.ServiceTests.BlogStorageAdvancedTests.AddPost_ShouldAssignUniqueIdsAndLogMessages Pages: 1 -->
<svg width="462pt" height="86pt"
 viewBox="0.00 0.00 462.00 86.00" xmlns="http://www.w3.org/2000/svg" xmlns:xlink="http://www.w3.org/1999/xlink">
<g id="graph0" class="graph" transform="scale(1 1) rotate(0) translate(4 82)">
<title>MiniBlogApp.Tests.ServiceTests.BlogStorageAdvancedTests.AddPost_ShouldAssignUniqueIdsAndLogMessages</title>
<!-- Node1 -->
<g id="Node000001" class="node">
<title>Node1</title>
<g id="a_Node000001"><a xlink:title="Tests adding multiple posts.">
<polygon fill="#999999" stroke="#666666" points="260,-59.5 0,-59.5 0,-18.5 260,-18.5 260,-59.5"/>
<text text-anchor="start" x="8" y="-47.5" font-family="Helvetica,sans-Serif" font-size="10.00">MiniBlogApp.Tests.Service</text>
<text text-anchor="start" x="8" y="-36.5" font-family="Helvetica,sans-Serif" font-size="10.00">Tests.BlogStorageAdvancedTests.</text>
<text text-anchor="middle" x="130" y="-25.5" font-family="Helvetica,sans-Serif" font-size="10.00">AddPost_ShouldAssignUniqueIdsAndLogMessages</text>
</a>
</g>
</g>
<!-- Node2 -->
<g id="Node000002" class="node">
<title>Node2</title>
<g id="a_Node000002"><a xlink:href="classMiniBlogApp_1_1Services_1_1BlogStorage.html#a4cdac58bbe3cef687f389421ad64d784" target="_top" xlink:title=" ">
<polygon fill="white" stroke="#666666" points="448.5,-78 301.5,-78 301.5,-48 448.5,-48 448.5,-78"/>
<text text-anchor="start" x="309.5" y="-66" font-family="Helvetica,sans-Serif" font-size="10.00">MiniBlogApp.Services.Blog</text>
<text text-anchor="middle" x="375" y="-55" font-family="Helvetica,sans-Serif" font-size="10.00">Storage.AddPost</text>
</a>
</g>
</g>
<!-- Node1&#45;&gt;Node2 -->
<g id="edge1_Node000001_Node000002" class="edge">
<title>Node1&#45;&gt;Node2</title>
<g id="a_edge1_Node000001_Node000002"><a xlink:title=" ">
<path fill="none" stroke="#63b8ff" d="M260.33,-51.77C270.76,-52.8 281.11,-53.83 291.08,-54.81"/>
<polygon fill="#63b8ff" stroke="#63b8ff" points="291.02,-58.32 301.31,-55.82 291.71,-51.36 291.02,-58.32"/>
</a>
</g>
</g>
<!-- Node3 -->
<g id="Node000003" class="node">
<title>Node3</title>
<g id="a_Node000003"><a xlink:href="classMiniBlogApp_1_1Services_1_1LoggerService.html#ae78818587f366479feac87ec7b0c33f5" target="_top" xlink:title=" ">
<polygon fill="white" stroke="#666666" points="454,-30 296,-30 296,0 454,0 454,-30"/>
<text text-anchor="start" x="304" y="-18" font-family="Helvetica,sans-Serif" font-size="10.00">MiniBlogApp.Services.Logger</text>
<text text-anchor="middle" x="375" y="-7" font-family="Helvetica,sans-Serif" font-size="10.00">Service.GetLogs</text>
</a>
</g>
</g>
<!-- Node1&#45;&gt;Node3 -->
<g id="edge2_Node000001_Node000003" class="edge">
<title>Node1&#45;&gt;Node3</title>
<g id="a_edge2_Node000001_Node000003"><a xlink:title=" ">
<path fill="none" stroke="#63b8ff" d="M260.33,-26.23C268.95,-25.38 277.52,-24.53 285.86,-23.71"/>
<polygon fill="#63b8ff" stroke="#63b8ff" points="286.3,-27.18 295.91,-22.71 285.61,-20.21 286.3,-27.18"/>
</a>
</g>
</g>
</g>
</svg>
