<?xml version="1.0" encoding="UTF-8" standalone="no"?>
<!DOCTYPE svg PUBLIC "-//W3C//DTD SVG 1.1//EN"
 "http://www.w3.org/Graphics/SVG/1.1/DTD/svg11.dtd">
<!-- Generated by graphviz version 2.43.0 (0)
 -->
<!-- Title: MiniBlogApp.Factories.LogFactory Pages: 1 -->
<svg width="365pt" height="134pt"
 viewBox="0.00 0.00 365.00 134.00" xmlns="http://www.w3.org/2000/svg" xmlns:xlink="http://www.w3.org/1999/xlink">
<g id="graph0" class="graph" transform="scale(1 1) rotate(0) translate(4 130)">
<title>MiniBlogApp.Factories.LogFactory</title>
<!-- Node1 -->
<g id="Node000001" class="node">
<title>Node1</title>
<g id="a_Node000001"><a xlink:title="Абстрактна фабрика для створення логів.">
<polygon fill="#999999" stroke="#666666" points="145,-78 0,-78 0,-48 145,-48 145,-78"/>
<text text-anchor="start" x="8" y="-66" font-family="Helvetica,sans-Serif" font-size="10.00">MiniBlogApp.Factories.Log</text>
<text text-anchor="middle" x="72.5" y="-55" font-family="Helvetica,sans-Serif" font-size="10.00">Factory</text>
</a>
</g>
</g>
<!-- Node2 -->
<g id="Node000002" class="node">
<title>Node2</title>
<g id="a_Node000002"><a xlink:href="classMiniBlogApp_1_1Factories_1_1CommentLogFactory.html" target="_top" xlink:title=" ">
<polygon fill="white" stroke="#666666" points="357,-126 181,-126 181,-96 357,-96 357,-126"/>
<text text-anchor="start" x="189" y="-114" font-family="Helvetica,sans-Serif" font-size="10.00">MiniBlogApp.Factories.Comment</text>
<text text-anchor="middle" x="269" y="-103" font-family="Helvetica,sans-Serif" font-size="10.00">LogFactory</text>
</a>
</g>
</g>
<!-- Node1&#45;&gt;Node2 -->
<g id="edge1_Node000001_Node000002" class="edge">
<title>Node1&#45;&gt;Node2</title>
<g id="a_edge1_Node000001_Node000002"><a xlink:title=" ">
<path fill="none" stroke="#63b8ff" d="M144.46,-80.51C165.03,-85.59 187.31,-91.09 207.21,-96"/>
<polygon fill="#63b8ff" stroke="#63b8ff" points="145.05,-77.05 134.51,-78.06 143.38,-83.85 145.05,-77.05"/>
</a>
</g>
</g>
<!-- Node3 -->
<g id="Node000003" class="node">
<title>Node3</title>
<g id="a_Node000003"><a xlink:href="classMiniBlogApp_1_1Factories_1_1LikeLogFactory.html" target="_top" xlink:title=" ">
<polygon fill="white" stroke="#666666" points="342.5,-78 195.5,-78 195.5,-48 342.5,-48 342.5,-78"/>
<text text-anchor="start" x="203.5" y="-66" font-family="Helvetica,sans-Serif" font-size="10.00">MiniBlogApp.Factories.Like</text>
<text text-anchor="middle" x="269" y="-55" font-family="Helvetica,sans-Serif" font-size="10.00">LogFactory</text>
</a>
</g>
</g>
<!-- Node1&#45;&gt;Node3 -->
<g id="edge2_Node000001_Node000003" class="edge">
<title>Node1&#45;&gt;Node3</title>
<g id="a_edge2_Node000001_Node000003"><a xlink:title=" ">
<path fill="none" stroke="#63b8ff" d="M155.17,-63C168.48,-63 182.18,-63 195.25,-63"/>
<polygon fill="#63b8ff" stroke="#63b8ff" points="155.1,-59.5 145.1,-63 155.1,-66.5 155.1,-59.5"/>
</a>
</g>
</g>
<!-- Node4 -->
<g id="Node000004" class="node">
<title>Node4</title>
<g id="a_Node000004"><a xlink:href="classMiniBlogApp_1_1Factories_1_1PostLogFactory.html" target="_top" xlink:title="Фабрика для створення логів нових постів.">
<polygon fill="white" stroke="#666666" points="343.5,-30 194.5,-30 194.5,0 343.5,0 343.5,-30"/>
<text text-anchor="start" x="202.5" y="-18" font-family="Helvetica,sans-Serif" font-size="10.00">MiniBlogApp.Factories.Post</text>
<text text-anchor="middle" x="269" y="-7" font-family="Helvetica,sans-Serif" font-size="10.00">LogFactory</text>
</a>
</g>
</g>
<!-- Node1&#45;&gt;Node4 -->
<g id="edge3_Node000001_Node000004" class="edge">
<title>Node1&#45;&gt;Node4</title>
<g id="a_edge3_Node000001_Node000004"><a xlink:title=" ">
<path fill="none" stroke="#63b8ff" d="M144.46,-45.49C165.03,-40.41 187.31,-34.91 207.21,-30"/>
<polygon fill="#63b8ff" stroke="#63b8ff" points="143.38,-42.15 134.51,-47.94 145.05,-48.95 143.38,-42.15"/>
</a>
</g>
</g>
</g>
</svg>
