<?xml version="1.0" encoding="UTF-8" standalone="no"?>
<!DOCTYPE svg PUBLIC "-//W3C//DTD SVG 1.1//EN"
 "http://www.w3.org/Graphics/SVG/1.1/DTD/svg11.dtd">
<!-- Generated by graphviz version 2.43.0 (0)
 -->
<!-- Title: MiniBlogApp.Services.BotSimulationService Pages: 1 -->
<svg width="286pt" height="115pt"
 viewBox="0.00 0.00 286.00 115.00" xmlns="http://www.w3.org/2000/svg" xmlns:xlink="http://www.w3.org/1999/xlink">
<g id="graph0" class="graph" transform="scale(1 1) rotate(0) translate(4 111)">
<title>MiniBlogApp.Services.BotSimulationService</title>
<!-- Node1 -->
<g id="Node000001" class="node">
<title>Node1</title>
<g id="a_Node000001"><a xlink:title="Фоновий сервіс, що імітує активність користувачів (ботів) у системі.">
<polygon fill="#999999" stroke="#666666" points="200,-30 58,-30 58,0 200,0 200,-30"/>
<text text-anchor="start" x="66" y="-18" font-family="Helvetica,sans-Serif" font-size="10.00">MiniBlogApp.Services.Bot</text>
<text text-anchor="middle" x="129" y="-7" font-family="Helvetica,sans-Serif" font-size="10.00">SimulationService</text>
</a>
</g>
</g>
<!-- Node2 -->
<g id="Node000002" class="node">
<title>Node2</title>
<g id="a_Node000002"><a xlink:title=" ">
<polygon fill="white" stroke="#666666" points="110,-101.5 0,-101.5 0,-82.5 110,-82.5 110,-101.5"/>
<text text-anchor="middle" x="55" y="-89.5" font-family="Helvetica,sans-Serif" font-size="10.00">BackgroundService</text>
</a>
</g>
</g>
<!-- Node2&#45;&gt;Node1 -->
<g id="edge1_Node000001_Node000002" class="edge">
<title>Node2&#45;&gt;Node1</title>
<g id="a_edge1_Node000001_Node000002"><a xlink:title=" ">
<path fill="none" stroke="#63b8ff" d="M70.88,-74.91C84.02,-61.59 102.51,-42.85 115.08,-30.11"/>
<polygon fill="#63b8ff" stroke="#63b8ff" points="68.02,-72.82 63.49,-82.4 73,-77.74 68.02,-72.82"/>
</a>
</g>
</g>
<!-- Node3 -->
<g id="Node000003" class="node">
<title>Node3</title>
<g id="a_Node000003"><a xlink:href="interfaceMiniBlogApp_1_1Services_1_1IBlogStorage.html" target="_top" xlink:title="Інтерфейс для роботи зі сховищем дописів.">
<polygon fill="white" stroke="#666666" points="278,-107 128,-107 128,-77 278,-77 278,-107"/>
<text text-anchor="start" x="136" y="-95" font-family="Helvetica,sans-Serif" font-size="10.00">MiniBlogApp.Services.IBlog</text>
<text text-anchor="middle" x="203" y="-84" font-family="Helvetica,sans-Serif" font-size="10.00">Storage</text>
</a>
</g>
</g>
<!-- Node3&#45;&gt;Node1 -->
<g id="edge2_Node000001_Node000003" class="edge">
<title>Node3&#45;&gt;Node1</title>
<g id="a_edge2_Node000001_Node000003"><a xlink:title=" ">
<path fill="none" stroke="#9a32cd" stroke-dasharray="5,2" d="M181.75,-69.46C169.24,-56.79 153.8,-41.13 142.86,-30.04"/>
<polygon fill="#9a32cd" stroke="#9a32cd" points="179.57,-72.23 189.08,-76.89 184.55,-67.32 179.57,-72.23"/>
</a>
</g>
<text text-anchor="middle" x="193" y="-51" font-family="Helvetica,sans-Serif" font-size="10.00" fill="grey"> _storage</text>
</g>
</g>
</svg>
