<?xml version="1.0" encoding="UTF-8" standalone="no"?>
<!DOCTYPE svg PUBLIC "-//W3C//DTD SVG 1.1//EN"
 "http://www.w3.org/Graphics/SVG/1.1/DTD/svg11.dtd">
<!-- Generated by graphviz version 2.43.0 (0)
 -->
<!-- Title: MiniBlogApp.Commands.LikeCommand Pages: 1 -->
<svg width="246pt" height="115pt"
 viewBox="0.00 0.00 246.00 115.00" xmlns="http://www.w3.org/2000/svg" xmlns:xlink="http://www.w3.org/1999/xlink">
<g id="graph0" class="graph" transform="scale(1 1) rotate(0) translate(4 111)">
<title>MiniBlogApp.Commands.LikeCommand</title>
<!-- Node1 -->
<g id="Node000001" class="node">
<title>Node1</title>
<g id="a_Node000001"><a xlink:title=" ">
<polygon fill="#999999" stroke="#666666" points="178.5,-30 19.5,-30 19.5,0 178.5,0 178.5,-30"/>
<text text-anchor="start" x="27.5" y="-18" font-family="Helvetica,sans-Serif" font-size="10.00">MiniBlogApp.Commands.Like</text>
<text text-anchor="middle" x="99" y="-7" font-family="Helvetica,sans-Serif" font-size="10.00">Command</text>
</a>
</g>
</g>
<!-- Node2 -->
<g id="Node000002" class="node">
<title>Node2</title>
<g id="a_Node000002"><a xlink:href="interfaceMiniBlogApp_1_1Commands_1_1ICommand.html" target="_top" xlink:title=" ">
<polygon fill="white" stroke="#666666" points="70,-101.5 0,-101.5 0,-82.5 70,-82.5 70,-101.5"/>
<text text-anchor="middle" x="35" y="-89.5" font-family="Helvetica,sans-Serif" font-size="10.00">ICommand</text>
</a>
</g>
</g>
<!-- Node2&#45;&gt;Node1 -->
<g id="edge1_Node000001_Node000002" class="edge">
<title>Node2&#45;&gt;Node1</title>
<g id="a_edge1_Node000001_Node000002"><a xlink:title=" ">
<path fill="none" stroke="#63b8ff" d="M49.06,-74.53C60.4,-61.23 76.19,-42.73 86.96,-30.11"/>
<polygon fill="#63b8ff" stroke="#63b8ff" points="46.17,-72.52 42.34,-82.4 51.5,-77.06 46.17,-72.52"/>
</a>
</g>
</g>
<!-- Node3 -->
<g id="Node000003" class="node">
<title>Node3</title>
<g id="a_Node000003"><a xlink:href="interfaceMiniBlogApp_1_1Services_1_1IBlogStorage.html" target="_top" xlink:title="Інтерфейс для роботи зі сховищем дописів.">
<polygon fill="white" stroke="#666666" points="238,-107 88,-107 88,-77 238,-77 238,-107"/>
<text text-anchor="start" x="96" y="-95" font-family="Helvetica,sans-Serif" font-size="10.00">MiniBlogApp.Services.IBlog</text>
<text text-anchor="middle" x="163" y="-84" font-family="Helvetica,sans-Serif" font-size="10.00">Storage</text>
</a>
</g>
</g>
<!-- Node3&#45;&gt;Node1 -->
<g id="edge2_Node000001_Node000003" class="edge">
<title>Node3&#45;&gt;Node1</title>
<g id="a_edge2_Node000001_Node000003"><a xlink:title=" ">
<path fill="none" stroke="#9a32cd" stroke-dasharray="5,2" d="M144.31,-69.1C133.55,-56.49 120.36,-41.03 110.98,-30.04"/>
<polygon fill="#9a32cd" stroke="#9a32cd" points="141.81,-71.56 150.96,-76.89 147.13,-67.01 141.81,-71.56"/>
</a>
</g>
<text text-anchor="middle" x="157" y="-51" font-family="Helvetica,sans-Serif" font-size="10.00" fill="grey"> _storage</text>
</g>
</g>
</svg>
