<?xml version="1.0" encoding="UTF-8" standalone="no"?>
<!DOCTYPE svg PUBLIC "-//W3C//DTD SVG 1.1//EN"
 "http://www.w3.org/Graphics/SVG/1.1/DTD/svg11.dtd">
<!-- Generated by graphviz version 2.43.0 (0)
 -->
<!-- Title: MiniBlogApp.Pages.SettingsModel Pages: 1 -->
<svg width="292pt" height="248pt"
 viewBox="0.00 0.00 291.50 248.00" xmlns="http://www.w3.org/2000/svg" xmlns:xlink="http://www.w3.org/1999/xlink">
<g id="graph0" class="graph" transform="scale(1 1) rotate(0) translate(4 244)">
<title>MiniBlogApp.Pages.SettingsModel</title>
<!-- Node1 -->
<g id="Node000001" class="node">
<title>Node1</title>
<g id="a_Node000001"><a xlink:title=" ">
<polygon fill="#999999" stroke="#666666" points="152,-30 0,-30 0,0 152,0 152,-30"/>
<text text-anchor="start" x="8" y="-18" font-family="Helvetica,sans-Serif" font-size="10.00">MiniBlogApp.Pages.Settings</text>
<text text-anchor="middle" x="76" y="-7" font-family="Helvetica,sans-Serif" font-size="10.00">Model</text>
</a>
</g>
</g>
<!-- Node2 -->
<g id="Node000002" class="node">
<title>Node2</title>
<g id="a_Node000002"><a xlink:title=" ">
<polygon fill="white" stroke="#666666" points="95,-101.5 25,-101.5 25,-82.5 95,-82.5 95,-101.5"/>
<text text-anchor="middle" x="60" y="-89.5" font-family="Helvetica,sans-Serif" font-size="10.00">PageModel</text>
</a>
</g>
</g>
<!-- Node2&#45;&gt;Node1 -->
<g id="edge1_Node000001_Node000002" class="edge">
<title>Node2&#45;&gt;Node1</title>
<g id="a_edge1_Node000001_Node000002"><a xlink:title=" ">
<path fill="none" stroke="#63b8ff" d="M63.93,-72.59C66.72,-59.49 70.43,-42.13 72.99,-30.11"/>
<polygon fill="#63b8ff" stroke="#63b8ff" points="60.5,-71.89 61.84,-82.4 67.34,-73.35 60.5,-71.89"/>
</a>
</g>
</g>
<!-- Node3 -->
<g id="Node000003" class="node">
<title>Node3</title>
<g id="a_Node000003"><a xlink:href="classMiniBlogApp_1_1Services_1_1BackupService.html" target="_top" xlink:title=" ">
<polygon fill="white" stroke="#666666" points="274.5,-107 113.5,-107 113.5,-77 274.5,-77 274.5,-107"/>
<text text-anchor="start" x="121.5" y="-95" font-family="Helvetica,sans-Serif" font-size="10.00">MiniBlogApp.Services.Backup</text>
<text text-anchor="middle" x="194" y="-84" font-family="Helvetica,sans-Serif" font-size="10.00">Service</text>
</a>
</g>
</g>
<!-- Node3&#45;&gt;Node1 -->
<g id="edge2_Node000001_Node000003" class="edge">
<title>Node3&#45;&gt;Node1</title>
<g id="a_edge2_Node000001_Node000003"><a xlink:title=" ">
<path fill="none" stroke="#9a32cd" stroke-dasharray="5,2" d="M163.17,-71.4C142.75,-58.43 116.44,-41.71 98.1,-30.04"/>
<polygon fill="#9a32cd" stroke="#9a32cd" points="161.49,-74.48 171.81,-76.89 165.24,-68.58 161.49,-74.48"/>
</a>
</g>
<text text-anchor="middle" x="181.5" y="-51" font-family="Helvetica,sans-Serif" font-size="10.00" fill="grey"> _backupService</text>
</g>
<!-- Node4 -->
<g id="Node000004" class="node">
<title>Node4</title>
<g id="a_Node000004"><a xlink:href="classMiniBlogApp_1_1Services_1_1ConcurrentBlogStorage.html" target="_top" xlink:title=" ">
<polygon fill="white" stroke="#666666" points="283.5,-184 104.5,-184 104.5,-154 283.5,-154 283.5,-184"/>
<text text-anchor="start" x="112.5" y="-172" font-family="Helvetica,sans-Serif" font-size="10.00">MiniBlogApp.Services.Concurrent</text>
<text text-anchor="middle" x="194" y="-161" font-family="Helvetica,sans-Serif" font-size="10.00">BlogStorage</text>
</a>
</g>
</g>
<!-- Node4&#45;&gt;Node3 -->
<g id="edge3_Node000003_Node000004" class="edge">
<title>Node4&#45;&gt;Node3</title>
<g id="a_edge3_Node000003_Node000004"><a xlink:title=" ">
<path fill="none" stroke="#9a32cd" stroke-dasharray="5,2" d="M194,-143.54C194,-131.45 194,-117.29 194,-107.04"/>
<polygon fill="#9a32cd" stroke="#9a32cd" points="190.5,-143.89 194,-153.89 197.5,-143.89 190.5,-143.89"/>
</a>
</g>
<text text-anchor="middle" x="217" y="-128" font-family="Helvetica,sans-Serif" font-size="10.00" fill="grey"> _storage</text>
</g>
<!-- Node5 -->
<g id="Node000005" class="node">
<title>Node5</title>
<g id="a_Node000005"><a xlink:href="interfaceMiniBlogApp_1_1Services_1_1IBlogStorage.html" target="_top" xlink:title="Інтерфейс для роботи зі сховищем дописів.">
<polygon fill="white" stroke="#666666" points="233.5,-240 154.5,-240 154.5,-221 233.5,-221 233.5,-240"/>
<text text-anchor="middle" x="194" y="-228" font-family="Helvetica,sans-Serif" font-size="10.00">IBlogStorage</text>
</a>
</g>
</g>
<!-- Node5&#45;&gt;Node4 -->
<g id="edge4_Node000004_Node000005" class="edge">
<title>Node5&#45;&gt;Node4</title>
<g id="a_edge4_Node000004_Node000005"><a xlink:title=" ">
<path fill="none" stroke="#63b8ff" d="M194,-210.73C194,-202.09 194,-192 194,-184.02"/>
<polygon fill="#63b8ff" stroke="#63b8ff" points="190.5,-210.98 194,-220.98 197.5,-210.98 190.5,-210.98"/>
</a>
</g>
</g>
</g>
</svg>
