<?xml version="1.0" encoding="UTF-8" standalone="no"?>
<!DOCTYPE svg PUBLIC "-//W3C//DTD SVG 1.1//EN"
 "http://www.w3.org/Graphics/SVG/1.1/DTD/svg11.dtd">
<!-- Generated by graphviz version 2.43.0 (0)
 -->
<!-- Title: MiniBlogApp.Pages.LoginModel Pages: 1 -->
<svg width="244pt" height="104pt"
 viewBox="0.00 0.00 244.00 104.00" xmlns="http://www.w3.org/2000/svg" xmlns:xlink="http://www.w3.org/1999/xlink">
<g id="graph0" class="graph" transform="scale(1 1) rotate(0) translate(4 100)">
<title>MiniBlogApp.Pages.LoginModel</title>
<!-- Node1 -->
<g id="Node000001" class="node">
<title>Node1</title>
<g id="a_Node000001"><a xlink:title=" ">
<polygon fill="#999999" stroke="#666666" points="182.5,-19 13.5,-19 13.5,0 182.5,0 182.5,-19"/>
<text text-anchor="middle" x="98" y="-7" font-family="Helvetica,sans-Serif" font-size="10.00">MiniBlogApp.Pages.LoginModel</text>
</a>
</g>
</g>
<!-- Node2 -->
<g id="Node000002" class="node">
<title>Node2</title>
<g id="a_Node000002"><a xlink:title=" ">
<polygon fill="white" stroke="#666666" points="70,-90.5 0,-90.5 0,-71.5 70,-71.5 70,-90.5"/>
<text text-anchor="middle" x="35" y="-78.5" font-family="Helvetica,sans-Serif" font-size="10.00">PageModel</text>
</a>
</g>
</g>
<!-- Node2&#45;&gt;Node1 -->
<g id="edge1_Node000001_Node000002" class="edge">
<title>Node2&#45;&gt;Node1</title>
<g id="a_edge1_Node000001_Node000002"><a xlink:title=" ">
<path fill="none" stroke="#63b8ff" d="M49.48,-64.03C62.15,-50.05 80.07,-30.28 90.21,-19.09"/>
<polygon fill="#63b8ff" stroke="#63b8ff" points="46.85,-61.72 42.73,-71.48 52.03,-66.42 46.85,-61.72"/>
</a>
</g>
</g>
<!-- Node3 -->
<g id="Node000003" class="node">
<title>Node3</title>
<g id="a_Node000003"><a xlink:href="classMiniBlogApp_1_1Services_1_1UserService.html" target="_top" xlink:title=" ">
<polygon fill="white" stroke="#666666" points="236,-96 88,-96 88,-66 236,-66 236,-96"/>
<text text-anchor="start" x="96" y="-84" font-family="Helvetica,sans-Serif" font-size="10.00">MiniBlogApp.Services.User</text>
<text text-anchor="middle" x="162" y="-73" font-family="Helvetica,sans-Serif" font-size="10.00">Service</text>
</a>
</g>
</g>
<!-- Node3&#45;&gt;Node1 -->
<g id="edge2_Node000001_Node000003" class="edge">
<title>Node3&#45;&gt;Node1</title>
<g id="a_edge2_Node000001_Node000003"><a xlink:title=" ">
<path fill="none" stroke="#9a32cd" stroke-dasharray="5,2" d="M142.27,-58.57C130.09,-45.34 115.11,-29.08 106.07,-19.27"/>
<polygon fill="#9a32cd" stroke="#9a32cd" points="139.7,-60.95 149.05,-65.94 144.85,-56.21 139.7,-60.95"/>
</a>
</g>
<text text-anchor="middle" x="164" y="-40" font-family="Helvetica,sans-Serif" font-size="10.00" fill="grey"> _userService</text>
</g>
</g>
</svg>
