<?xml version="1.0" encoding="UTF-8" standalone="no"?>
<!DOCTYPE svg PUBLIC "-//W3C//DTD SVG 1.1//EN"
 "http://www.w3.org/Graphics/SVG/1.1/DTD/svg11.dtd">
<!-- Generated by graphviz version 2.43.0 (0)
 -->
<!-- Title: MiniBlogApp.Services.PostAnalyzer.Analyze Pages: 1 -->
<svg width="447pt" height="157pt"
 viewBox="0.00 0.00 447.00 156.50" xmlns="http://www.w3.org/2000/svg" xmlns:xlink="http://www.w3.org/1999/xlink">
<g id="graph0" class="graph" transform="scale(1 1) rotate(0) translate(4 152.5)">
<title>MiniBlogApp.Services.PostAnalyzer.Analyze</title>
<!-- Node1 -->
<g id="Node000001" class="node">
<title>Node1</title>
<g id="a_Node000001"><a xlink:title="Analyzes a single post.">
<polygon fill="#999999" stroke="#666666" points="439,-84 293,-84 293,-54 439,-54 439,-84"/>
<text text-anchor="start" x="301" y="-72" font-family="Helvetica,sans-Serif" font-size="10.00">MiniBlogApp.Services.Post</text>
<text text-anchor="middle" x="366" y="-61" font-family="Helvetica,sans-Serif" font-size="10.00">Analyzer.Analyze</text>
</a>
</g>
</g>
<!-- Node2 -->
<g id="Node000002" class="node">
<title>Node2</title>
<g id="a_Node000002"><a xlink:href="classMiniBlogApp_1_1Tests_1_1UtilsTests_1_1PostAnalyzerTests.html#a99dcb37188bd29747f86f3c3cc104d5c" target="_top" xlink:title="Tests PostAnalyzer with posts that have multiple likes and comments.">
<polygon fill="white" stroke="#666666" points="257,-148.5 0,-148.5 0,-107.5 257,-107.5 257,-148.5"/>
<text text-anchor="start" x="8" y="-136.5" font-family="Helvetica,sans-Serif" font-size="10.00">MiniBlogApp.Tests.UtilsTests.</text>
<text text-anchor="start" x="8" y="-125.5" font-family="Helvetica,sans-Serif" font-size="10.00">PostAnalyzerTests.Analyze</text>
<text text-anchor="middle" x="128.5" y="-114.5" font-family="Helvetica,sans-Serif" font-size="10.00">_ShouldHandlePostWithManyLikesAndComments</text>
</a>
</g>
</g>
<!-- Node1&#45;&gt;Node2 -->
<g id="edge1_Node000001_Node000002" class="edge">
<title>Node1&#45;&gt;Node2</title>
<g id="a_edge1_Node000001_Node000002"><a xlink:title=" ">
<path fill="none" stroke="#63b8ff" d="M302.97,-86.77C287.96,-90.92 271.94,-95.23 257,-99 245.77,-101.83 233.96,-104.69 222.24,-107.45"/>
<polygon fill="#63b8ff" stroke="#63b8ff" points="303.98,-90.12 312.67,-84.07 302.1,-83.38 303.98,-90.12"/>
</a>
</g>
</g>
<!-- Node3 -->
<g id="Node000003" class="node">
<title>Node3</title>
<g id="a_Node000003"><a xlink:href="classMiniBlogApp_1_1Tests_1_1UtilsTests_1_1PostAnalyzerTests.html#a02a8edca28d64fba780deeb46d0042e7" target="_top" xlink:title="Tests PostAnalyzer with posts that have null author or title.">
<polygon fill="white" stroke="#666666" points="237.5,-89.5 19.5,-89.5 19.5,-48.5 237.5,-48.5 237.5,-89.5"/>
<text text-anchor="start" x="27.5" y="-77.5" font-family="Helvetica,sans-Serif" font-size="10.00">MiniBlogApp.Tests.UtilsTests.</text>
<text text-anchor="start" x="27.5" y="-66.5" font-family="Helvetica,sans-Serif" font-size="10.00">PostAnalyzerTests.Analyze</text>
<text text-anchor="middle" x="128.5" y="-55.5" font-family="Helvetica,sans-Serif" font-size="10.00">_ShouldHandlePostWithNullAuthorOrTitle</text>
</a>
</g>
</g>
<!-- Node1&#45;&gt;Node3 -->
<g id="edge2_Node000001_Node000003" class="edge">
<title>Node1&#45;&gt;Node3</title>
<g id="a_edge2_Node000001_Node000003"><a xlink:title=" ">
<path fill="none" stroke="#63b8ff" d="M282.36,-69C267.88,-69 252.63,-69 237.6,-69"/>
<polygon fill="#63b8ff" stroke="#63b8ff" points="282.74,-72.5 292.74,-69 282.74,-65.5 282.74,-72.5"/>
</a>
</g>
</g>
<!-- Node4 -->
<g id="Node000004" class="node">
<title>Node4</title>
<g id="a_Node000004"><a xlink:href="classMiniBlogApp_1_1Pages_1_1PostAnalyticsModel.html#a6a1f56cc501fed821319661fb1d67fec" target="_top" xlink:title="Handles GET request for the post analytics page.">
<polygon fill="white" stroke="#666666" points="218,-30 39,-30 39,0 218,0 218,-30"/>
<text text-anchor="start" x="47" y="-18" font-family="Helvetica,sans-Serif" font-size="10.00">MiniBlogApp.Pages.PostAnalytics</text>
<text text-anchor="middle" x="128.5" y="-7" font-family="Helvetica,sans-Serif" font-size="10.00">Model.OnGet</text>
</a>
</g>
</g>
<!-- Node1&#45;&gt;Node4 -->
<g id="edge3_Node000001_Node000004" class="edge">
<title>Node1&#45;&gt;Node4</title>
<g id="a_edge3_Node000001_Node000004"><a xlink:title=" ">
<path fill="none" stroke="#63b8ff" d="M301.9,-51.28C287.21,-47.37 271.6,-43.39 257,-40 242.06,-36.53 226.06,-33.14 210.62,-30.04"/>
<polygon fill="#63b8ff" stroke="#63b8ff" points="301.33,-54.75 311.9,-53.96 303.15,-47.99 301.33,-54.75"/>
</a>
</g>
</g>
</g>
</svg>
