<?xml version="1.0" encoding="UTF-8" standalone="no"?>
<!DOCTYPE svg PUBLIC "-//W3C//DTD SVG 1.1//EN"
 "http://www.w3.org/Graphics/SVG/1.1/DTD/svg11.dtd">
<!-- Generated by graphviz version 2.43.0 (0)
 -->
<!-- Title: MiniBlogApp.Tests.ServiceTests.BlogStorageEdgeCaseTests.AddLike_ShouldBeCaseSensitive_Usernames Pages: 1 -->
<svg width="561pt" height="86pt"
 viewBox="0.00 0.00 561.00 86.00" xmlns="http://www.w3.org/2000/svg" xmlns:xlink="http://www.w3.org/1999/xlink">
<g id="graph0" class="graph" transform="scale(1 1) rotate(0) translate(4 82)">
<title>MiniBlogApp.Tests.ServiceTests.BlogStorageEdgeCaseTests.AddLike_ShouldBeCaseSensitive_Usernames</title>
<!-- Node1 -->
<g id="Node000001" class="node">
<title>Node1</title>
<g id="a_Node000001"><a xlink:title="Tests case sensitivity for usernames when adding likes.">
<polygon fill="#999999" stroke="#666666" points="179,-65 0,-65 0,-13 179,-13 179,-65"/>
<text text-anchor="start" x="8" y="-53" font-family="Helvetica,sans-Serif" font-size="10.00">MiniBlogApp.Tests.Service</text>
<text text-anchor="start" x="8" y="-42" font-family="Helvetica,sans-Serif" font-size="10.00">Tests.BlogStorageEdgeCaseTests.</text>
<text text-anchor="start" x="8" y="-31" font-family="Helvetica,sans-Serif" font-size="10.00">AddLike_ShouldBeCaseSensitive</text>
<text text-anchor="middle" x="89.5" y="-20" font-family="Helvetica,sans-Serif" font-size="10.00">_Usernames</text>
</a>
</g>
</g>
<!-- Node2 -->
<g id="Node000002" class="node">
<title>Node2</title>
<g id="a_Node000002"><a xlink:href="classMiniBlogApp_1_1Services_1_1BlogStorage.html#a1b858ba0dd0de0e695ea806daaf09fd7" target="_top" xlink:title=" ">
<polygon fill="white" stroke="#666666" points="362,-78 215,-78 215,-48 362,-48 362,-78"/>
<text text-anchor="start" x="223" y="-66" font-family="Helvetica,sans-Serif" font-size="10.00">MiniBlogApp.Services.Blog</text>
<text text-anchor="middle" x="288.5" y="-55" font-family="Helvetica,sans-Serif" font-size="10.00">Storage.AddLike</text>
</a>
</g>
</g>
<!-- Node1&#45;&gt;Node2 -->
<g id="edge1_Node000001_Node000002" class="edge">
<title>Node1&#45;&gt;Node2</title>
<g id="a_edge1_Node000001_Node000002"><a xlink:title=" ">
<path fill="none" stroke="#63b8ff" d="M179.2,-49.81C187.7,-50.84 196.29,-51.89 204.73,-52.92"/>
<polygon fill="#63b8ff" stroke="#63b8ff" points="204.57,-56.42 214.92,-54.16 205.42,-49.47 204.57,-56.42"/>
</a>
</g>
</g>
<!-- Node4 -->
<g id="Node000004" class="node">
<title>Node4</title>
<g id="a_Node000004"><a xlink:href="classMiniBlogApp_1_1Services_1_1BlogStorage.html#a4cdac58bbe3cef687f389421ad64d784" target="_top" xlink:title=" ">
<polygon fill="white" stroke="#666666" points="362,-30 215,-30 215,0 362,0 362,-30"/>
<text text-anchor="start" x="223" y="-18" font-family="Helvetica,sans-Serif" font-size="10.00">MiniBlogApp.Services.Blog</text>
<text text-anchor="middle" x="288.5" y="-7" font-family="Helvetica,sans-Serif" font-size="10.00">Storage.AddPost</text>
</a>
</g>
</g>
<!-- Node1&#45;&gt;Node4 -->
<g id="edge3_Node000001_Node000004" class="edge">
<title>Node1&#45;&gt;Node4</title>
<g id="a_edge3_Node000001_Node000004"><a xlink:title=" ">
<path fill="none" stroke="#63b8ff" d="M179.2,-28.19C187.7,-27.16 196.29,-26.11 204.73,-25.08"/>
<polygon fill="#63b8ff" stroke="#63b8ff" points="205.42,-28.53 214.92,-23.84 204.57,-21.58 205.42,-28.53"/>
</a>
</g>
</g>
<!-- Node3 -->
<g id="Node000003" class="node">
<title>Node3</title>
<g id="a_Node000003"><a xlink:href="classMiniBlogApp_1_1Services_1_1BlogStorage.html#a170b5b0c311e8124d77dcc785672da16" target="_top" xlink:title=" ">
<polygon fill="white" stroke="#666666" points="553,-78 398,-78 398,-48 553,-48 553,-78"/>
<text text-anchor="start" x="406" y="-66" font-family="Helvetica,sans-Serif" font-size="10.00">MiniBlogApp.Services.Blog</text>
<text text-anchor="middle" x="475.5" y="-55" font-family="Helvetica,sans-Serif" font-size="10.00">Storage.GetPostByIdInternal</text>
</a>
</g>
</g>
<!-- Node2&#45;&gt;Node3 -->
<g id="edge2_Node000002_Node000003" class="edge">
<title>Node2&#45;&gt;Node3</title>
<g id="a_edge2_Node000002_Node000003"><a xlink:title=" ">
<path fill="none" stroke="#63b8ff" d="M362.09,-63C370.53,-63 379.2,-63 387.8,-63"/>
<polygon fill="#63b8ff" stroke="#63b8ff" points="387.86,-66.5 397.86,-63 387.86,-59.5 387.86,-66.5"/>
</a>
</g>
</g>
</g>
</svg>
