<?xml version="1.0" encoding="UTF-8" standalone="no"?>
<!DOCTYPE svg PUBLIC "-//W3C//DTD SVG 1.1//EN"
 "http://www.w3.org/Graphics/SVG/1.1/DTD/svg11.dtd">
<!-- Generated by graphviz version 2.43.0 (0)
 -->
<!-- Title: MiniBlogApp.Services.BackupService Pages: 1 -->
<svg width="187pt" height="171pt"
 viewBox="0.00 0.00 187.00 171.00" xmlns="http://www.w3.org/2000/svg" xmlns:xlink="http://www.w3.org/1999/xlink">
<g id="graph0" class="graph" transform="scale(1 1) rotate(0) translate(4 167)">
<title>MiniBlogApp.Services.BackupService</title>
<!-- Node1 -->
<g id="Node000001" class="node">
<title>Node1</title>
<g id="a_Node000001"><a xlink:title=" ">
<polygon fill="#999999" stroke="#666666" points="170,-30 9,-30 9,0 170,0 170,-30"/>
<text text-anchor="start" x="17" y="-18" font-family="Helvetica,sans-Serif" font-size="10.00">MiniBlogApp.Services.Backup</text>
<text text-anchor="middle" x="89.5" y="-7" font-family="Helvetica,sans-Serif" font-size="10.00">Service</text>
</a>
</g>
</g>
<!-- Node2 -->
<g id="Node000002" class="node">
<title>Node2</title>
<g id="a_Node000002"><a xlink:href="classMiniBlogApp_1_1Services_1_1ConcurrentBlogStorage.html" target="_top" xlink:title=" ">
<polygon fill="white" stroke="#666666" points="179,-107 0,-107 0,-77 179,-77 179,-107"/>
<text text-anchor="start" x="8" y="-95" font-family="Helvetica,sans-Serif" font-size="10.00">MiniBlogApp.Services.Concurrent</text>
<text text-anchor="middle" x="89.5" y="-84" font-family="Helvetica,sans-Serif" font-size="10.00">BlogStorage</text>
</a>
</g>
</g>
<!-- Node2&#45;&gt;Node1 -->
<g id="edge1_Node000001_Node000002" class="edge">
<title>Node2&#45;&gt;Node1</title>
<g id="a_edge1_Node000001_Node000002"><a xlink:title=" ">
<path fill="none" stroke="#9a32cd" stroke-dasharray="5,2" d="M89.5,-66.54C89.5,-54.45 89.5,-40.29 89.5,-30.04"/>
<polygon fill="#9a32cd" stroke="#9a32cd" points="86,-66.89 89.5,-76.89 93,-66.89 86,-66.89"/>
</a>
</g>
<text text-anchor="middle" x="112.5" y="-51" font-family="Helvetica,sans-Serif" font-size="10.00" fill="grey"> _storage</text>
</g>
<!-- Node3 -->
<g id="Node000003" class="node">
<title>Node3</title>
<g id="a_Node000003"><a xlink:href="interfaceMiniBlogApp_1_1Services_1_1IBlogStorage.html" target="_top" xlink:title="Інтерфейс для роботи зі сховищем дописів.">
<polygon fill="white" stroke="#666666" points="129,-163 50,-163 50,-144 129,-144 129,-163"/>
<text text-anchor="middle" x="89.5" y="-151" font-family="Helvetica,sans-Serif" font-size="10.00">IBlogStorage</text>
</a>
</g>
</g>
<!-- Node3&#45;&gt;Node2 -->
<g id="edge2_Node000002_Node000003" class="edge">
<title>Node3&#45;&gt;Node2</title>
<g id="a_edge2_Node000002_Node000003"><a xlink:title=" ">
<path fill="none" stroke="#63b8ff" d="M89.5,-133.73C89.5,-125.09 89.5,-115 89.5,-107.02"/>
<polygon fill="#63b8ff" stroke="#63b8ff" points="86,-133.98 89.5,-143.98 93,-133.98 86,-133.98"/>
</a>
</g>
</g>
</g>
</svg>
