<?xml version="1.0" encoding="UTF-8" standalone="no"?>
<!DOCTYPE svg PUBLIC "-//W3C//DTD SVG 1.1//EN"
 "http://www.w3.org/Graphics/SVG/1.1/DTD/svg11.dtd">
<!-- Generated by graphviz version 2.43.0 (0)
 -->
<!-- Title: MiniBlogApp.Services.BlogStorage.AddReply Pages: 1 -->
<svg width="364pt" height="104pt"
 viewBox="0.00 0.00 364.00 104.00" xmlns="http://www.w3.org/2000/svg" xmlns:xlink="http://www.w3.org/1999/xlink">
<g id="graph0" class="graph" transform="scale(1 1) rotate(0) translate(4 100)">
<title>MiniBlogApp.Services.BlogStorage.AddReply</title>
<!-- Node1 -->
<g id="Node000001" class="node">
<title>Node1</title>
<g id="a_Node000001"><a xlink:title=" ">
<polygon fill="#999999" stroke="#666666" points="147,-54 0,-54 0,-24 147,-24 147,-54"/>
<text text-anchor="start" x="8" y="-42" font-family="Helvetica,sans-Serif" font-size="10.00">MiniBlogApp.Services.Blog</text>
<text text-anchor="middle" x="73.5" y="-31" font-family="Helvetica,sans-Serif" font-size="10.00">Storage.AddReply</text>
</a>
</g>
</g>
<!-- Node2 -->
<g id="Node000002" class="node">
<title>Node2</title>
<g id="a_Node000002"><a xlink:href="classMiniBlogApp_1_1Services_1_1BlogStorage.html#a145664f7598ff11e7f4e847001d6e12e" target="_top" xlink:title=" ">
<polygon fill="white" stroke="#666666" points="356,-78 183,-78 183,-48 356,-48 356,-78"/>
<text text-anchor="start" x="191" y="-66" font-family="Helvetica,sans-Serif" font-size="10.00">MiniBlogApp.Services.Blog</text>
<text text-anchor="middle" x="269.5" y="-55" font-family="Helvetica,sans-Serif" font-size="10.00">Storage.FindCommentRecursive</text>
</a>
</g>
</g>
<!-- Node1&#45;&gt;Node2 -->
<g id="edge1_Node000001_Node000002" class="edge">
<title>Node1&#45;&gt;Node2</title>
<g id="a_edge1_Node000001_Node000002"><a xlink:title=" ">
<path fill="none" stroke="#63b8ff" d="M147.01,-47.97C155.45,-49.01 164.14,-50.09 172.82,-51.16"/>
<polygon fill="#63b8ff" stroke="#63b8ff" points="172.64,-54.67 182.99,-52.42 173.5,-47.72 172.64,-54.67"/>
</a>
</g>
</g>
<!-- Node3 -->
<g id="Node000003" class="node">
<title>Node3</title>
<g id="a_Node000003"><a xlink:href="classMiniBlogApp_1_1Services_1_1BlogStorage.html#a170b5b0c311e8124d77dcc785672da16" target="_top" xlink:title=" ">
<polygon fill="white" stroke="#666666" points="347,-30 192,-30 192,0 347,0 347,-30"/>
<text text-anchor="start" x="200" y="-18" font-family="Helvetica,sans-Serif" font-size="10.00">MiniBlogApp.Services.Blog</text>
<text text-anchor="middle" x="269.5" y="-7" font-family="Helvetica,sans-Serif" font-size="10.00">Storage.GetPostByIdInternal</text>
</a>
</g>
</g>
<!-- Node1&#45;&gt;Node3 -->
<g id="edge3_Node000001_Node000003" class="edge">
<title>Node1&#45;&gt;Node3</title>
<g id="a_edge3_Node000001_Node000003"><a xlink:title=" ">
<path fill="none" stroke="#63b8ff" d="M147.01,-30.03C158.33,-28.63 170.13,-27.17 181.73,-25.73"/>
<polygon fill="#63b8ff" stroke="#63b8ff" points="182.36,-29.18 191.86,-24.48 181.5,-22.24 182.36,-29.18"/>
</a>
</g>
</g>
<!-- Node2&#45;&gt;Node2 -->
<g id="edge2_Node000002_Node000002" class="edge">
<title>Node2&#45;&gt;Node2</title>
<g id="a_edge2_Node000002_Node000002"><a xlink:title=" ">
<path fill="none" stroke="#63b8ff" d="M235.05,-78.28C227.39,-87.41 238.88,-96 269.5,-96 287.68,-96 299.12,-92.97 303.81,-88.6"/>
<polygon fill="#63b8ff" stroke="#63b8ff" points="307.31,-88.32 303.95,-78.28 300.31,-88.22 307.31,-88.32"/>
</a>
</g>
</g>
</g>
</svg>
