<?xml version="1.0" encoding="UTF-8" standalone="no"?>
<!DOCTYPE svg PUBLIC "-//W3C//DTD SVG 1.1//EN"
 "http://www.w3.org/Graphics/SVG/1.1/DTD/svg11.dtd">
<!-- Generated by graphviz version 2.43.0 (0)
 -->
<!-- Title: MiniBlogApp.Pages.LogsModel Pages: 1 -->
<svg width="262pt" height="104pt"
 viewBox="0.00 0.00 262.00 104.00" xmlns="http://www.w3.org/2000/svg" xmlns:xlink="http://www.w3.org/1999/xlink">
<g id="graph0" class="graph" transform="scale(1 1) rotate(0) translate(4 100)">
<title>MiniBlogApp.Pages.LogsModel</title>
<!-- Node1 -->
<g id="Node000001" class="node">
<title>Node1</title>
<g id="a_Node000001"><a xlink:title=" ">
<polygon fill="#999999" stroke="#666666" points="185.5,-19 20.5,-19 20.5,0 185.5,0 185.5,-19"/>
<text text-anchor="middle" x="103" y="-7" font-family="Helvetica,sans-Serif" font-size="10.00">MiniBlogApp.Pages.LogsModel</text>
</a>
</g>
</g>
<!-- Node2 -->
<g id="Node000002" class="node">
<title>Node2</title>
<g id="a_Node000002"><a xlink:title=" ">
<polygon fill="white" stroke="#666666" points="70,-90.5 0,-90.5 0,-71.5 70,-71.5 70,-90.5"/>
<text text-anchor="middle" x="35" y="-78.5" font-family="Helvetica,sans-Serif" font-size="10.00">PageModel</text>
</a>
</g>
</g>
<!-- Node2&#45;&gt;Node1 -->
<g id="edge1_Node000001_Node000002" class="edge">
<title>Node2&#45;&gt;Node1</title>
<g id="a_edge1_Node000001_Node000002"><a xlink:title=" ">
<path fill="none" stroke="#63b8ff" d="M50.63,-64.03C64.31,-50.05 83.65,-30.28 94.59,-19.09"/>
<polygon fill="#63b8ff" stroke="#63b8ff" points="47.83,-61.88 43.34,-71.48 52.83,-66.78 47.83,-61.88"/>
</a>
</g>
</g>
<!-- Node3 -->
<g id="Node000003" class="node">
<title>Node3</title>
<g id="a_Node000003"><a xlink:href="interfaceMiniBlogApp_1_1Services_1_1IActivityLogger.html" target="_top" xlink:title=" ">
<polygon fill="white" stroke="#666666" points="254,-96 88,-96 88,-66 254,-66 254,-96"/>
<text text-anchor="start" x="96" y="-84" font-family="Helvetica,sans-Serif" font-size="10.00">MiniBlogApp.Services.IActivity</text>
<text text-anchor="middle" x="171" y="-73" font-family="Helvetica,sans-Serif" font-size="10.00">Logger</text>
</a>
</g>
</g>
<!-- Node3&#45;&gt;Node1 -->
<g id="edge2_Node000001_Node000003" class="edge">
<title>Node3&#45;&gt;Node1</title>
<g id="a_edge2_Node000001_Node000003"><a xlink:title=" ">
<path fill="none" stroke="#9a32cd" stroke-dasharray="5,2" d="M150.03,-58.57C137.09,-45.34 121.18,-29.08 111.58,-19.27"/>
<polygon fill="#9a32cd" stroke="#9a32cd" points="147.74,-61.24 157.24,-65.94 152.75,-56.34 147.74,-61.24"/>
</a>
</g>
<text text-anchor="middle" x="178.5" y="-40" font-family="Helvetica,sans-Serif" font-size="10.00" fill="grey"> _activityLogger</text>
</g>
</g>
</svg>
