<?xml version="1.0" encoding="UTF-8" standalone="no"?>
<!DOCTYPE svg PUBLIC "-//W3C//DTD SVG 1.1//EN"
 "http://www.w3.org/Graphics/SVG/1.1/DTD/svg11.dtd">
<!-- Generated by graphviz version 2.43.0 (0)
 -->
<!-- Title: Graphical Class Hierarchy Pages: 1 -->
<svg width="293pt" height="427pt"
 viewBox="0.00 0.00 293.00 427.00" xmlns="http://www.w3.org/2000/svg" xmlns:xlink="http://www.w3.org/1999/xlink">
<g id="graph0" class="graph" transform="scale(1 1) rotate(0) translate(4 423)">
<title>Graphical Class Hierarchy</title>
<!-- Node0 -->
<g id="Node000000" class="node">
<title>Node0</title>
<g id="a_Node000000"><a xlink:title=" ">
<polygon fill="#e0e0e0" stroke="#999999" points="70,-229.5 0,-229.5 0,-210.5 70,-210.5 70,-229.5"/>
<text text-anchor="middle" x="35" y="-217.5" font-family="Helvetica,sans-Serif" font-size="10.00">PageModel</text>
</a>
</g>
</g>
<!-- Node1 -->
<g id="Node000001" class="node">
<title>Node1</title>
<g id="a_Node000001"><a xlink:href="classMiniBlogApp_1_1Pages_1_1CreatePostModel.html" target="_top" xlink:title=" ">
<polygon fill="white" stroke="#666666" points="268,-419 123,-419 123,-389 268,-389 268,-419"/>
<text text-anchor="start" x="131" y="-407" font-family="Helvetica,sans-Serif" font-size="10.00">MiniBlogApp.Pages.Create</text>
<text text-anchor="middle" x="195.5" y="-396" font-family="Helvetica,sans-Serif" font-size="10.00">PostModel</text>
</a>
</g>
</g>
<!-- Node0&#45;&gt;Node1 -->
<g id="edge4_Node000000_Node000001" class="edge">
<title>Node0&#45;&gt;Node1</title>
<g id="a_edge4_Node000000_Node000001"><a xlink:title=" ">
<path fill="none" stroke="#63b8ff" d="M38.99,-239.63C45.19,-273.44 62.68,-342.64 106,-380 111.06,-384.37 116.85,-387.95 122.98,-390.88"/>
<polygon fill="#63b8ff" stroke="#63b8ff" points="42.41,-238.89 37.3,-229.61 35.51,-240.06 42.41,-238.89"/>
</a>
</g>
</g>
<!-- Node2 -->
<g id="Node000002" class="node">
<title>Node2</title>
<g id="a_Node000002"><a xlink:href="classMiniBlogApp_1_1Pages_1_1EditPostModel.html" target="_top" xlink:title=" ">
<polygon fill="white" stroke="#666666" points="271.5,-371 119.5,-371 119.5,-341 271.5,-341 271.5,-371"/>
<text text-anchor="start" x="127.5" y="-359" font-family="Helvetica,sans-Serif" font-size="10.00">MiniBlogApp.Pages.EditPost</text>
<text text-anchor="middle" x="195.5" y="-348" font-family="Helvetica,sans-Serif" font-size="10.00">Model</text>
</a>
</g>
</g>
<!-- Node0&#45;&gt;Node2 -->
<g id="edge5_Node000000_Node000002" class="edge">
<title>Node0&#45;&gt;Node2</title>
<g id="a_edge5_Node000000_Node000002"><a xlink:title=" ">
<path fill="none" stroke="#63b8ff" d="M42.91,-239.36C52.9,-264.53 73.78,-308.08 106,-332 110.6,-335.42 115.66,-338.35 120.95,-340.86"/>
<polygon fill="#63b8ff" stroke="#63b8ff" points="46.11,-237.92 39.3,-229.81 39.56,-240.4 46.11,-237.92"/>
</a>
</g>
</g>
<!-- Node3 -->
<g id="Node000003" class="node">
<title>Node3</title>
<g id="a_Node000003"><a xlink:href="classMiniBlogApp_1_1Pages_1_1ErrorModel.html" target="_top" xlink:title=" ">
<polygon fill="white" stroke="#666666" points="278.5,-322.5 112.5,-322.5 112.5,-303.5 278.5,-303.5 278.5,-322.5"/>
<text text-anchor="middle" x="195.5" y="-310.5" font-family="Helvetica,sans-Serif" font-size="10.00">MiniBlogApp.Pages.ErrorModel</text>
</a>
</g>
</g>
<!-- Node0&#45;&gt;Node3 -->
<g id="edge6_Node000000_Node000003" class="edge">
<title>Node0&#45;&gt;Node3</title>
<g id="a_edge6_Node000000_Node000003"><a xlink:title=" ">
<path fill="none" stroke="#63b8ff" d="M47.98,-238.31C60.37,-255.71 81.35,-281.2 106,-295 112.16,-298.45 118.88,-301.24 125.79,-303.5"/>
<polygon fill="#63b8ff" stroke="#63b8ff" points="50.55,-235.87 42.01,-229.6 44.78,-239.83 50.55,-235.87"/>
</a>
</g>
</g>
<!-- Node4 -->
<g id="Node000004" class="node">
<title>Node4</title>
<g id="a_Node000004"><a xlink:href="classMiniBlogApp_1_1Pages_1_1IndexModel.html" target="_top" xlink:title=" ">
<polygon fill="white" stroke="#666666" points="280.5,-285.5 110.5,-285.5 110.5,-266.5 280.5,-266.5 280.5,-285.5"/>
<text text-anchor="middle" x="195.5" y="-273.5" font-family="Helvetica,sans-Serif" font-size="10.00">MiniBlogApp.Pages.IndexModel</text>
</a>
</g>
</g>
<!-- Node0&#45;&gt;Node4 -->
<g id="edge7_Node000000_Node000004" class="edge">
<title>Node0&#45;&gt;Node4</title>
<g id="a_edge7_Node000000_Node000004"><a xlink:title=" ">
<path fill="none" stroke="#63b8ff" d="M59.56,-235.08C72.76,-242.93 89.79,-252.1 106,-258 115.28,-261.38 125.36,-264.18 135.27,-266.49"/>
<polygon fill="#63b8ff" stroke="#63b8ff" points="61.04,-231.88 50.68,-229.65 57.39,-237.86 61.04,-231.88"/>
</a>
</g>
</g>
<!-- Node5 -->
<g id="Node000005" class="node">
<title>Node5</title>
<g id="a_Node000005"><a xlink:href="classMiniBlogApp_1_1Pages_1_1LoginModel.html" target="_top" xlink:title=" ">
<polygon fill="white" stroke="#666666" points="280,-248.5 111,-248.5 111,-229.5 280,-229.5 280,-248.5"/>
<text text-anchor="middle" x="195.5" y="-236.5" font-family="Helvetica,sans-Serif" font-size="10.00">MiniBlogApp.Pages.LoginModel</text>
</a>
</g>
</g>
<!-- Node0&#45;&gt;Node5 -->
<g id="edge8_Node000000_Node000005" class="edge">
<title>Node0&#45;&gt;Node5</title>
<g id="a_edge8_Node000000_Node000005"><a xlink:title=" ">
<path fill="none" stroke="#63b8ff" d="M80.06,-225.28C90.95,-226.59 102.95,-228.03 114.96,-229.46"/>
<polygon fill="#63b8ff" stroke="#63b8ff" points="80.35,-221.79 70,-224.08 79.51,-228.74 80.35,-221.79"/>
</a>
</g>
</g>
<!-- Node6 -->
<g id="Node000006" class="node">
<title>Node6</title>
<g id="a_Node000006"><a xlink:href="classMiniBlogApp_1_1Pages_1_1LogsModel.html" target="_top" xlink:title=" ">
<polygon fill="white" stroke="#666666" points="278,-211.5 113,-211.5 113,-192.5 278,-192.5 278,-211.5"/>
<text text-anchor="middle" x="195.5" y="-199.5" font-family="Helvetica,sans-Serif" font-size="10.00">MiniBlogApp.Pages.LogsModel</text>
</a>
</g>
</g>
<!-- Node0&#45;&gt;Node6 -->
<g id="edge9_Node000000_Node000006" class="edge">
<title>Node0&#45;&gt;Node6</title>
<g id="a_edge9_Node000000_Node000006"><a xlink:title=" ">
<path fill="none" stroke="#63b8ff" d="M80.2,-214.98C90.37,-213.83 101.49,-212.56 112.68,-211.29"/>
<polygon fill="#63b8ff" stroke="#63b8ff" points="79.54,-211.53 70,-216.14 80.33,-218.49 79.54,-211.53"/>
</a>
</g>
</g>
<!-- Node7 -->
<g id="Node000007" class="node">
<title>Node7</title>
<g id="a_Node000007"><a xlink:href="classMiniBlogApp_1_1Pages_1_1MyPostsModel.html" target="_top" xlink:title=" ">
<polygon fill="white" stroke="#666666" points="272.5,-174 118.5,-174 118.5,-144 272.5,-144 272.5,-174"/>
<text text-anchor="start" x="126.5" y="-162" font-family="Helvetica,sans-Serif" font-size="10.00">MiniBlogApp.Pages.MyPosts</text>
<text text-anchor="middle" x="195.5" y="-151" font-family="Helvetica,sans-Serif" font-size="10.00">Model</text>
</a>
</g>
</g>
<!-- Node0&#45;&gt;Node7 -->
<g id="edge10_Node000000_Node000007" class="edge">
<title>Node0&#45;&gt;Node7</title>
<g id="a_edge10_Node000000_Node000007"><a xlink:title=" ">
<path fill="none" stroke="#63b8ff" d="M61.13,-205.53C74.22,-198.39 90.65,-190.04 106,-184 115.21,-180.37 125.15,-177.04 134.93,-174.06"/>
<polygon fill="#63b8ff" stroke="#63b8ff" points="59.3,-202.54 52.26,-210.46 62.7,-208.66 59.3,-202.54"/>
</a>
</g>
</g>
<!-- Node8 -->
<g id="Node000008" class="node">
<title>Node8</title>
<g id="a_Node000008"><a xlink:href="classMiniBlogApp_1_1Pages_1_1PostAnalyticsModel.html" target="_top" xlink:title=" ">
<polygon fill="white" stroke="#666666" points="285,-126 106,-126 106,-96 285,-96 285,-126"/>
<text text-anchor="start" x="114" y="-114" font-family="Helvetica,sans-Serif" font-size="10.00">MiniBlogApp.Pages.PostAnalytics</text>
<text text-anchor="middle" x="195.5" y="-103" font-family="Helvetica,sans-Serif" font-size="10.00">Model</text>
</a>
</g>
</g>
<!-- Node0&#45;&gt;Node8 -->
<g id="edge11_Node000000_Node000008" class="edge">
<title>Node0&#45;&gt;Node8</title>
<g id="a_edge11_Node000000_Node000008"><a xlink:title=" ">
<path fill="none" stroke="#63b8ff" d="M46.36,-201.63C58.28,-182.2 79.62,-152.03 106,-135 111.35,-131.55 117.19,-128.59 123.23,-126.05"/>
<polygon fill="#63b8ff" stroke="#63b8ff" points="43.23,-200.06 41.16,-210.45 49.26,-203.62 43.23,-200.06"/>
</a>
</g>
</g>
<!-- Node9 -->
<g id="Node000009" class="node">
<title>Node9</title>
<g id="a_Node000009"><a xlink:href="classMiniBlogApp_1_1Pages_1_1PrivacyModel.html" target="_top" xlink:title=" ">
<polygon fill="white" stroke="#666666" points="270,-78 121,-78 121,-48 270,-48 270,-78"/>
<text text-anchor="start" x="129" y="-66" font-family="Helvetica,sans-Serif" font-size="10.00">MiniBlogApp.Pages.Privacy</text>
<text text-anchor="middle" x="195.5" y="-55" font-family="Helvetica,sans-Serif" font-size="10.00">Model</text>
</a>
</g>
</g>
<!-- Node0&#45;&gt;Node9 -->
<g id="edge12_Node000000_Node000009" class="edge">
<title>Node0&#45;&gt;Node9</title>
<g id="a_edge12_Node000000_Node000009"><a xlink:title=" ">
<path fill="none" stroke="#63b8ff" d="M40.91,-200.42C49.24,-171.26 68.99,-116.66 106,-87 110.47,-83.42 115.44,-80.37 120.67,-77.77"/>
<polygon fill="#63b8ff" stroke="#63b8ff" points="37.48,-199.68 38.26,-210.25 44.24,-201.51 37.48,-199.68"/>
</a>
</g>
</g>
<!-- Node10 -->
<g id="Node000010" class="node">
<title>Node10</title>
<g id="a_Node000010"><a xlink:href="classMiniBlogApp_1_1Pages_1_1ViewPostModel.html" target="_top" xlink:title=" ">
<polygon fill="white" stroke="#666666" points="274.5,-30 116.5,-30 116.5,0 274.5,0 274.5,-30"/>
<text text-anchor="start" x="124.5" y="-18" font-family="Helvetica,sans-Serif" font-size="10.00">MiniBlogApp.Pages.ViewPost</text>
<text text-anchor="middle" x="195.5" y="-7" font-family="Helvetica,sans-Serif" font-size="10.00">Model</text>
</a>
</g>
</g>
<!-- Node0&#45;&gt;Node10 -->
<g id="edge13_Node000000_Node000010" class="edge">
<title>Node0&#45;&gt;Node10</title>
<g id="a_edge13_Node000000_Node000010"><a xlink:title=" ">
<path fill="none" stroke="#63b8ff" d="M37.85,-200.44C42.43,-163.32 57.68,-82.53 106,-39 109.78,-35.59 114.01,-32.66 118.5,-30.14"/>
<polygon fill="#63b8ff" stroke="#63b8ff" points="34.36,-200.14 36.75,-210.46 41.32,-200.9 34.36,-200.14"/>
</a>
</g>
</g>
</g>
</svg>
