<?xml version="1.0" encoding="UTF-8" standalone="no"?>
<!DOCTYPE svg PUBLIC "-//W3C//DTD SVG 1.1//EN"
 "http://www.w3.org/Graphics/SVG/1.1/DTD/svg11.dtd">
<!-- Generated by graphviz version 2.43.0 (0)
 -->
<!-- Title: Graphical Class Hierarchy Pages: 1 -->
<svg width="548pt" height="134pt"
 viewBox="0.00 0.00 548.00 134.00" xmlns="http://www.w3.org/2000/svg" xmlns:xlink="http://www.w3.org/1999/xlink">
<g id="graph0" class="graph" transform="scale(1 1) rotate(0) translate(4 130)">
<title>Graphical Class Hierarchy</title>
<!-- Node0 -->
<g id="Node000000" class="node">
<title>Node0</title>
<g id="a_Node000000"><a xlink:href="interfaceMiniBlogApp_1_1Services_1_1ILogEntry.html" target="_top" xlink:title="Інтерфейс для об&#39;єктів записів у лог.">
<polygon fill="white" stroke="#666666" points="146,-78 0,-78 0,-48 146,-48 146,-78"/>
<text text-anchor="start" x="8" y="-66" font-family="Helvetica,sans-Serif" font-size="10.00">MiniBlogApp.Services.ILog</text>
<text text-anchor="middle" x="73" y="-55" font-family="Helvetica,sans-Serif" font-size="10.00">Entry</text>
</a>
</g>
</g>
<!-- Node1 -->
<g id="Node000001" class="node">
<title>Node1</title>
<g id="a_Node000001"><a xlink:href="classMiniBlogApp_1_1Services_1_1BaseLogEntry.html" target="_top" xlink:title="ПАТЕРН TEMPLATE METHOD (Шаблонний метод).">
<polygon fill="white" stroke="#666666" points="331,-78 182,-78 182,-48 331,-48 331,-78"/>
<text text-anchor="start" x="190" y="-66" font-family="Helvetica,sans-Serif" font-size="10.00">MiniBlogApp.Services.Base</text>
<text text-anchor="middle" x="256.5" y="-55" font-family="Helvetica,sans-Serif" font-size="10.00">LogEntry</text>
</a>
</g>
</g>
<!-- Node0&#45;&gt;Node1 -->
<g id="edge15_Node000000_Node000001" class="edge">
<title>Node0&#45;&gt;Node1</title>
<g id="a_edge15_Node000000_Node000001"><a xlink:title=" ">
<path fill="none" stroke="#63b8ff" d="M156.46,-63C164.88,-63 173.39,-63 181.71,-63"/>
<polygon fill="#63b8ff" stroke="#63b8ff" points="156.26,-59.5 146.26,-63 156.26,-66.5 156.26,-59.5"/>
</a>
</g>
</g>
<!-- Node2 -->
<g id="Node000002" class="node">
<title>Node2</title>
<g id="a_Node000002"><a xlink:href="classMiniBlogApp_1_1Services_1_1CommentLogger.html" target="_top" xlink:title=" ">
<polygon fill="white" stroke="#666666" points="540,-126 367,-126 367,-96 540,-96 540,-126"/>
<text text-anchor="start" x="375" y="-114" font-family="Helvetica,sans-Serif" font-size="10.00">MiniBlogApp.Services.Comment</text>
<text text-anchor="middle" x="453.5" y="-103" font-family="Helvetica,sans-Serif" font-size="10.00">Logger</text>
</a>
</g>
</g>
<!-- Node1&#45;&gt;Node2 -->
<g id="edge16_Node000001_Node000002" class="edge">
<title>Node1&#45;&gt;Node2</title>
<g id="a_edge16_Node000001_Node000002"><a xlink:title=" ">
<path fill="none" stroke="#63b8ff" d="M328.64,-80.51C349.27,-85.59 371.6,-91.09 391.55,-96"/>
<polygon fill="#63b8ff" stroke="#63b8ff" points="329.21,-77.05 318.66,-78.06 327.54,-83.84 329.21,-77.05"/>
</a>
</g>
</g>
<!-- Node3 -->
<g id="Node000003" class="node">
<title>Node3</title>
<g id="a_Node000003"><a xlink:href="classMiniBlogApp_1_1Services_1_1LikeLogger.html" target="_top" xlink:title=" ">
<polygon fill="white" stroke="#666666" points="526,-78 381,-78 381,-48 526,-48 526,-78"/>
<text text-anchor="start" x="389" y="-66" font-family="Helvetica,sans-Serif" font-size="10.00">MiniBlogApp.Services.Like</text>
<text text-anchor="middle" x="453.5" y="-55" font-family="Helvetica,sans-Serif" font-size="10.00">Logger</text>
</a>
</g>
</g>
<!-- Node1&#45;&gt;Node3 -->
<g id="edge17_Node000001_Node000003" class="edge">
<title>Node1&#45;&gt;Node3</title>
<g id="a_edge17_Node000001_Node000003"><a xlink:title=" ">
<path fill="none" stroke="#63b8ff" d="M341.25,-63C354.46,-63 368.03,-63 380.93,-63"/>
<polygon fill="#63b8ff" stroke="#63b8ff" points="341.22,-59.5 331.22,-63 341.22,-66.5 341.22,-59.5"/>
</a>
</g>
</g>
<!-- Node4 -->
<g id="Node000004" class="node">
<title>Node4</title>
<g id="a_Node000004"><a xlink:href="classMiniBlogApp_1_1Services_1_1PostLogger.html" target="_top" xlink:title=" ">
<polygon fill="white" stroke="#666666" points="526.5,-30 380.5,-30 380.5,0 526.5,0 526.5,-30"/>
<text text-anchor="start" x="388.5" y="-18" font-family="Helvetica,sans-Serif" font-size="10.00">MiniBlogApp.Services.Post</text>
<text text-anchor="middle" x="453.5" y="-7" font-family="Helvetica,sans-Serif" font-size="10.00">Logger</text>
</a>
</g>
</g>
<!-- Node1&#45;&gt;Node4 -->
<g id="edge18_Node000001_Node000004" class="edge">
<title>Node1&#45;&gt;Node4</title>
<g id="a_edge18_Node000001_Node000004"><a xlink:title=" ">
<path fill="none" stroke="#63b8ff" d="M328.64,-45.49C349.27,-40.41 371.6,-34.91 391.55,-30"/>
<polygon fill="#63b8ff" stroke="#63b8ff" points="327.54,-42.16 318.66,-47.94 329.21,-48.95 327.54,-42.16"/>
</a>
</g>
</g>
</g>
</svg>
