<?xml version="1.0" encoding="UTF-8" standalone="no"?>
<!DOCTYPE svg PUBLIC "-//W3C//DTD SVG 1.1//EN"
 "http://www.w3.org/Graphics/SVG/1.1/DTD/svg11.dtd">
<!-- Generated by graphviz version 2.43.0 (0)
 -->
<!-- Title: Graphical Class Hierarchy Pages: 1 -->
<svg width="293pt" height="475pt"
 viewBox="0.00 0.00 293.00 475.00" xmlns="http://www.w3.org/2000/svg" xmlns:xlink="http://www.w3.org/1999/xlink">
<g id="graph0" class="graph" transform="scale(1 1) rotate(0) translate(4 471)">
<title>Graphical Class Hierarchy</title>
<!-- Node0 -->
<g id="Node000000" class="node">
<title>Node0</title>
<g id="a_Node000000"><a xlink:title=" ">
<polygon fill="#e0e0e0" stroke="#999999" points="70,-259.5 0,-259.5 0,-240.5 70,-240.5 70,-259.5"/>
<text text-anchor="middle" x="35" y="-247.5" font-family="Helvetica,sans-Serif" font-size="10.00">PageModel</text>
</a>
</g>
</g>
<!-- Node1 -->
<g id="Node000001" class="node">
<title>Node1</title>
<g id="a_Node000001"><a xlink:href="classMiniBlogApp_1_1Pages_1_1CreatePostModel.html" target="_top" xlink:title=" ">
<polygon fill="white" stroke="#666666" points="268,-467 123,-467 123,-437 268,-437 268,-467"/>
<text text-anchor="start" x="131" y="-455" font-family="Helvetica,sans-Serif" font-size="10.00">MiniBlogApp.Pages.Create</text>
<text text-anchor="middle" x="195.5" y="-444" font-family="Helvetica,sans-Serif" font-size="10.00">PostModel</text>
</a>
</g>
</g>
<!-- Node0&#45;&gt;Node1 -->
<g id="edge27_Node000000_Node000001" class="edge">
<title>Node0&#45;&gt;Node1</title>
<g id="a_edge27_Node000000_Node000001"><a xlink:title=" ">
<path fill="none" stroke="#63b8ff" d="M38.02,-269.76C42.86,-306.5 58.48,-385.43 106,-428 110.98,-432.46 116.71,-436.1 122.81,-439.08"/>
<polygon fill="#63b8ff" stroke="#63b8ff" points="41.5,-269.32 36.85,-259.8 34.54,-270.15 41.5,-269.32"/>
</a>
</g>
</g>
<!-- Node2 -->
<g id="Node000002" class="node">
<title>Node2</title>
<g id="a_Node000002"><a xlink:href="classMiniBlogApp_1_1Pages_1_1EditPostModel.html" target="_top" xlink:title=" ">
<polygon fill="white" stroke="#666666" points="271.5,-419 119.5,-419 119.5,-389 271.5,-389 271.5,-419"/>
<text text-anchor="start" x="127.5" y="-407" font-family="Helvetica,sans-Serif" font-size="10.00">MiniBlogApp.Pages.EditPost</text>
<text text-anchor="middle" x="195.5" y="-396" font-family="Helvetica,sans-Serif" font-size="10.00">Model</text>
</a>
</g>
</g>
<!-- Node0&#45;&gt;Node2 -->
<g id="edge28_Node000000_Node000002" class="edge">
<title>Node0&#45;&gt;Node2</title>
<g id="a_edge28_Node000000_Node000002"><a xlink:title=" ">
<path fill="none" stroke="#63b8ff" d="M41.15,-269.52C49.72,-298.13 69.66,-351.16 106,-380 110.36,-383.46 115.19,-386.43 120.27,-388.97"/>
<polygon fill="#63b8ff" stroke="#63b8ff" points="44.41,-268.2 38.33,-259.53 37.68,-270.11 44.41,-268.2"/>
</a>
</g>
</g>
<!-- Node3 -->
<g id="Node000003" class="node">
<title>Node3</title>
<g id="a_Node000003"><a xlink:href="classMiniBlogApp_1_1Pages_1_1ErrorModel.html" target="_top" xlink:title=" ">
<polygon fill="white" stroke="#666666" points="278.5,-370.5 112.5,-370.5 112.5,-351.5 278.5,-351.5 278.5,-370.5"/>
<text text-anchor="middle" x="195.5" y="-358.5" font-family="Helvetica,sans-Serif" font-size="10.00">MiniBlogApp.Pages.ErrorModel</text>
</a>
</g>
</g>
<!-- Node0&#45;&gt;Node3 -->
<g id="edge29_Node000000_Node000003" class="edge">
<title>Node0&#45;&gt;Node3</title>
<g id="a_edge29_Node000000_Node000003"><a xlink:title=" ">
<path fill="none" stroke="#63b8ff" d="M44.88,-268.86C56.03,-290.35 77.23,-324.84 106,-343 111.44,-346.43 117.4,-349.23 123.59,-351.5"/>
<polygon fill="#63b8ff" stroke="#63b8ff" points="47.94,-267.14 40.35,-259.74 41.67,-270.25 47.94,-267.14"/>
</a>
</g>
</g>
<!-- Node4 -->
<g id="Node000004" class="node">
<title>Node4</title>
<g id="a_Node000004"><a xlink:href="classMiniBlogApp_1_1Pages_1_1IndexModel.html" target="_top" xlink:title=" ">
<polygon fill="white" stroke="#666666" points="280.5,-333.5 110.5,-333.5 110.5,-314.5 280.5,-314.5 280.5,-333.5"/>
<text text-anchor="middle" x="195.5" y="-321.5" font-family="Helvetica,sans-Serif" font-size="10.00">MiniBlogApp.Pages.IndexModel</text>
</a>
</g>
</g>
<!-- Node0&#45;&gt;Node4 -->
<g id="edge30_Node000000_Node000004" class="edge">
<title>Node0&#45;&gt;Node4</title>
<g id="a_edge30_Node000000_Node000004"><a xlink:title=" ">
<path fill="none" stroke="#63b8ff" d="M52.33,-266.86C65.61,-279.57 85.46,-296.39 106,-306 113.24,-309.39 121.11,-312.14 129.07,-314.38"/>
<polygon fill="#63b8ff" stroke="#63b8ff" points="54.54,-264.12 44.97,-259.59 49.62,-269.1 54.54,-264.12"/>
</a>
</g>
</g>
<!-- Node5 -->
<g id="Node000005" class="node">
<title>Node5</title>
<g id="a_Node000005"><a xlink:href="classMiniBlogApp_1_1Pages_1_1LoginModel.html" target="_top" xlink:title=" ">
<polygon fill="white" stroke="#666666" points="280,-296.5 111,-296.5 111,-277.5 280,-277.5 280,-296.5"/>
<text text-anchor="middle" x="195.5" y="-284.5" font-family="Helvetica,sans-Serif" font-size="10.00">MiniBlogApp.Pages.LoginModel</text>
</a>
</g>
</g>
<!-- Node0&#45;&gt;Node5 -->
<g id="edge31_Node000000_Node000005" class="edge">
<title>Node0&#45;&gt;Node5</title>
<g id="a_edge31_Node000000_Node000005"><a xlink:title=" ">
<path fill="none" stroke="#63b8ff" d="M79.13,-262.17C87.99,-264.54 97.28,-266.93 106,-269 118.51,-271.97 132.09,-274.88 144.76,-277.47"/>
<polygon fill="#63b8ff" stroke="#63b8ff" points="79.93,-258.76 69.36,-259.52 78.09,-265.52 79.93,-258.76"/>
</a>
</g>
</g>
<!-- Node6 -->
<g id="Node000006" class="node">
<title>Node6</title>
<g id="a_Node000006"><a xlink:href="classMiniBlogApp_1_1Pages_1_1LogsModel.html" target="_top" xlink:title=" ">
<polygon fill="white" stroke="#666666" points="278,-259.5 113,-259.5 113,-240.5 278,-240.5 278,-259.5"/>
<text text-anchor="middle" x="195.5" y="-247.5" font-family="Helvetica,sans-Serif" font-size="10.00">MiniBlogApp.Pages.LogsModel</text>
</a>
</g>
</g>
<!-- Node0&#45;&gt;Node6 -->
<g id="edge32_Node000000_Node000006" class="edge">
<title>Node0&#45;&gt;Node6</title>
<g id="a_edge32_Node000000_Node000006"><a xlink:title=" ">
<path fill="none" stroke="#63b8ff" d="M80.2,-250C90.37,-250 101.49,-250 112.68,-250"/>
<polygon fill="#63b8ff" stroke="#63b8ff" points="80,-246.5 70,-250 80,-253.5 80,-246.5"/>
</a>
</g>
</g>
<!-- Node7 -->
<g id="Node000007" class="node">
<title>Node7</title>
<g id="a_Node000007"><a xlink:href="classMiniBlogApp_1_1Pages_1_1MyPostsModel.html" target="_top" xlink:title=" ">
<polygon fill="white" stroke="#666666" points="272.5,-222 118.5,-222 118.5,-192 272.5,-192 272.5,-222"/>
<text text-anchor="start" x="126.5" y="-210" font-family="Helvetica,sans-Serif" font-size="10.00">MiniBlogApp.Pages.MyPosts</text>
<text text-anchor="middle" x="195.5" y="-199" font-family="Helvetica,sans-Serif" font-size="10.00">Model</text>
</a>
</g>
</g>
<!-- Node0&#45;&gt;Node7 -->
<g id="edge33_Node000000_Node000007" class="edge">
<title>Node0&#45;&gt;Node7</title>
<g id="a_edge33_Node000000_Node000007"><a xlink:title=" ">
<path fill="none" stroke="#63b8ff" d="M79.82,-238.11C98.14,-233.14 119.64,-227.31 139.05,-222.04"/>
<polygon fill="#63b8ff" stroke="#63b8ff" points="78.74,-234.78 70,-240.78 80.57,-241.53 78.74,-234.78"/>
</a>
</g>
</g>
<!-- Node8 -->
<g id="Node000008" class="node">
<title>Node8</title>
<g id="a_Node000008"><a xlink:href="classMiniBlogApp_1_1Pages_1_1PostAnalyticsModel.html" target="_top" xlink:title=" ">
<polygon fill="white" stroke="#666666" points="285,-174 106,-174 106,-144 285,-144 285,-174"/>
<text text-anchor="start" x="114" y="-162" font-family="Helvetica,sans-Serif" font-size="10.00">MiniBlogApp.Pages.PostAnalytics</text>
<text text-anchor="middle" x="195.5" y="-151" font-family="Helvetica,sans-Serif" font-size="10.00">Model</text>
</a>
</g>
</g>
<!-- Node0&#45;&gt;Node8 -->
<g id="edge34_Node000000_Node000008" class="edge">
<title>Node0&#45;&gt;Node8</title>
<g id="a_edge34_Node000000_Node000008"><a xlink:title=" ">
<path fill="none" stroke="#63b8ff" d="M49.85,-232.5C62.81,-217.28 83.51,-195.7 106,-183 112.1,-179.56 118.72,-176.59 125.49,-174.03"/>
<polygon fill="#63b8ff" stroke="#63b8ff" points="47.15,-230.28 43.48,-240.22 52.55,-234.73 47.15,-230.28"/>
</a>
</g>
</g>
<!-- Node9 -->
<g id="Node000009" class="node">
<title>Node9</title>
<g id="a_Node000009"><a xlink:href="classMiniBlogApp_1_1Pages_1_1PrivacyModel.html" target="_top" xlink:title=" ">
<polygon fill="white" stroke="#666666" points="270,-126 121,-126 121,-96 270,-96 270,-126"/>
<text text-anchor="start" x="129" y="-114" font-family="Helvetica,sans-Serif" font-size="10.00">MiniBlogApp.Pages.Privacy</text>
<text text-anchor="middle" x="195.5" y="-103" font-family="Helvetica,sans-Serif" font-size="10.00">Model</text>
</a>
</g>
</g>
<!-- Node0&#45;&gt;Node9 -->
<g id="edge35_Node000000_Node000009" class="edge">
<title>Node0&#45;&gt;Node9</title>
<g id="a_edge35_Node000000_Node000009"><a xlink:title=" ">
<path fill="none" stroke="#63b8ff" d="M42.62,-230.51C52.39,-204.74 73.14,-159.69 106,-135 110.58,-131.56 115.62,-128.61 120.91,-126.08"/>
<polygon fill="#63b8ff" stroke="#63b8ff" points="39.2,-229.67 39.1,-240.26 45.79,-232.05 39.2,-229.67"/>
</a>
</g>
</g>
<!-- Node10 -->
<g id="Node000010" class="node">
<title>Node10</title>
<g id="a_Node000010"><a xlink:href="classMiniBlogApp_1_1Pages_1_1SettingsModel.html" target="_top" xlink:title=" ">
<polygon fill="white" stroke="#666666" points="271.5,-78 119.5,-78 119.5,-48 271.5,-48 271.5,-78"/>
<text text-anchor="start" x="127.5" y="-66" font-family="Helvetica,sans-Serif" font-size="10.00">MiniBlogApp.Pages.Settings</text>
<text text-anchor="middle" x="195.5" y="-55" font-family="Helvetica,sans-Serif" font-size="10.00">Model</text>
</a>
</g>
</g>
<!-- Node0&#45;&gt;Node10 -->
<g id="edge36_Node000000_Node000010" class="edge">
<title>Node0&#45;&gt;Node10</title>
<g id="a_edge36_Node000000_Node000010"><a xlink:title=" ">
<path fill="none" stroke="#63b8ff" d="M38.87,-230.01C44.9,-195.57 62.12,-125.1 106,-87 110.09,-83.45 114.65,-80.42 119.49,-77.84"/>
<polygon fill="#63b8ff" stroke="#63b8ff" points="35.37,-229.78 37.24,-240.21 42.28,-230.89 35.37,-229.78"/>
</a>
</g>
</g>
<!-- Node11 -->
<g id="Node000011" class="node">
<title>Node11</title>
<g id="a_Node000011"><a xlink:href="classMiniBlogApp_1_1Pages_1_1ViewPostModel.html" target="_top" xlink:title=" ">
<polygon fill="white" stroke="#666666" points="274.5,-30 116.5,-30 116.5,0 274.5,0 274.5,-30"/>
<text text-anchor="start" x="124.5" y="-18" font-family="Helvetica,sans-Serif" font-size="10.00">MiniBlogApp.Pages.ViewPost</text>
<text text-anchor="middle" x="195.5" y="-7" font-family="Helvetica,sans-Serif" font-size="10.00">Model</text>
</a>
</g>
</g>
<!-- Node0&#45;&gt;Node11 -->
<g id="edge37_Node000000_Node000011" class="edge">
<title>Node0&#45;&gt;Node11</title>
<g id="a_edge37_Node000000_Node000011"><a xlink:title=" ">
<path fill="none" stroke="#63b8ff" d="M36.62,-230.15C39.04,-188.46 50.64,-91.37 106,-39 109.59,-35.61 113.6,-32.69 117.89,-30.17"/>
<polygon fill="#63b8ff" stroke="#63b8ff" points="33.12,-230.2 36.16,-240.35 40.11,-230.52 33.12,-230.2"/>
</a>
</g>
</g>
</g>
</svg>
