<?xml version="1.0" encoding="UTF-8" standalone="no"?>
<!DOCTYPE svg PUBLIC "-//W3C//DTD SVG 1.1//EN"
 "http://www.w3.org/Graphics/SVG/1.1/DTD/svg11.dtd">
<!-- Generated by graphviz version 2.43.0 (0)
 -->
<!-- Title: Graphical Class Hierarchy Pages: 1 -->
<svg width="385pt" height="86pt"
 viewBox="0.00 0.00 385.00 86.00" xmlns="http://www.w3.org/2000/svg" xmlns:xlink="http://www.w3.org/1999/xlink">
<g id="graph0" class="graph" transform="scale(1 1) rotate(0) translate(4 82)">
<title>Graphical Class Hierarchy</title>
<!-- Node0 -->
<g id="Node000000" class="node">
<title>Node0</title>
<g id="a_Node000000"><a xlink:href="interfaceMiniBlogApp_1_1Strategies_1_1IPostSortStrategy.html" target="_top" xlink:title="Інтерфейс для патерну Strategy.">
<polygon fill="white" stroke="#666666" points="158,-54 0,-54 0,-24 158,-24 158,-54"/>
<text text-anchor="start" x="8" y="-42" font-family="Helvetica,sans-Serif" font-size="10.00">MiniBlogApp.Strategies.IPost</text>
<text text-anchor="middle" x="79" y="-31" font-family="Helvetica,sans-Serif" font-size="10.00">SortStrategy</text>
</a>
</g>
</g>
<!-- Node1 -->
<g id="Node000001" class="node">
<title>Node1</title>
<g id="a_Node000001"><a xlink:href="classMiniBlogApp_1_1Strategies_1_1DateSortStrategy.html" target="_top" xlink:title="Конкретна стратегія: сортування постів за датою створення (найновіші перші).">
<polygon fill="white" stroke="#666666" points="364,-78 207,-78 207,-48 364,-48 364,-78"/>
<text text-anchor="start" x="215" y="-66" font-family="Helvetica,sans-Serif" font-size="10.00">MiniBlogApp.Strategies.Date</text>
<text text-anchor="middle" x="285.5" y="-55" font-family="Helvetica,sans-Serif" font-size="10.00">SortStrategy</text>
</a>
</g>
</g>
<!-- Node0&#45;&gt;Node1 -->
<g id="edge25_Node000000_Node000001" class="edge">
<title>Node0&#45;&gt;Node1</title>
<g id="a_edge25_Node000000_Node000001"><a xlink:title=" ">
<path fill="none" stroke="#63b8ff" d="M168.34,-49.37C181.1,-50.87 194.16,-52.4 206.69,-53.87"/>
<polygon fill="#63b8ff" stroke="#63b8ff" points="168.53,-45.87 158.19,-48.18 167.71,-52.82 168.53,-45.87"/>
</a>
</g>
</g>
<!-- Node2 -->
<g id="Node000002" class="node">
<title>Node2</title>
<g id="a_Node000002"><a xlink:href="classMiniBlogApp_1_1Strategies_1_1PopularitySortStrategy.html" target="_top" xlink:title="Конкретна стратегія: сортування постів за кількістю лайків (найпопулярніші перші).">
<polygon fill="white" stroke="#666666" points="377,-30 194,-30 194,0 377,0 377,-30"/>
<text text-anchor="start" x="202" y="-18" font-family="Helvetica,sans-Serif" font-size="10.00">MiniBlogApp.Strategies.Popularity</text>
<text text-anchor="middle" x="285.5" y="-7" font-family="Helvetica,sans-Serif" font-size="10.00">SortStrategy</text>
</a>
</g>
</g>
<!-- Node0&#45;&gt;Node2 -->
<g id="edge26_Node000000_Node000002" class="edge">
<title>Node0&#45;&gt;Node2</title>
<g id="a_edge26_Node000000_Node000002"><a xlink:title=" ">
<path fill="none" stroke="#63b8ff" d="M168.35,-28.63C176.75,-27.65 185.28,-26.64 193.7,-25.66"/>
<polygon fill="#63b8ff" stroke="#63b8ff" points="167.71,-25.18 158.19,-29.82 168.53,-32.13 167.71,-25.18"/>
</a>
</g>
</g>
</g>
</svg>
