<?xml version="1.0" encoding="UTF-8" standalone="no"?>
<!DOCTYPE svg PUBLIC "-//W3C//DTD SVG 1.1//EN"
 "http://www.w3.org/Graphics/SVG/1.1/DTD/svg11.dtd">
<!-- Generated by graphviz version 2.43.0 (0)
 -->
<!-- Title: Graphical Class Hierarchy Pages: 1 -->
<svg width="373pt" height="134pt"
 viewBox="0.00 0.00 373.00 134.00" xmlns="http://www.w3.org/2000/svg" xmlns:xlink="http://www.w3.org/1999/xlink">
<g id="graph0" class="graph" transform="scale(1 1) rotate(0) translate(4 130)">
<title>Graphical Class Hierarchy</title>
<!-- Node0 -->
<g id="Node000000" class="node">
<title>Node0</title>
<g id="a_Node000000"><a xlink:href="classMiniBlogApp_1_1Services_1_1ActionLogger.html" target="_top" xlink:title="Abstract base class for logging user actions.">
<polygon fill="white" stroke="#666666" points="156,-78 0,-78 0,-48 156,-48 156,-78"/>
<text text-anchor="start" x="8" y="-66" font-family="Helvetica,sans-Serif" font-size="10.00">MiniBlogApp.Services.Action</text>
<text text-anchor="middle" x="78" y="-55" font-family="Helvetica,sans-Serif" font-size="10.00">Logger</text>
</a>
</g>
</g>
<!-- Node1 -->
<g id="Node000001" class="node">
<title>Node1</title>
<g id="a_Node000001"><a xlink:href="classMiniBlogApp_1_1Services_1_1CommentLogger.html" target="_top" xlink:title="Logs when a user leaves a comment.">
<polygon fill="white" stroke="#666666" points="365,-126 192,-126 192,-96 365,-96 365,-126"/>
<text text-anchor="start" x="200" y="-114" font-family="Helvetica,sans-Serif" font-size="10.00">MiniBlogApp.Services.Comment</text>
<text text-anchor="middle" x="278.5" y="-103" font-family="Helvetica,sans-Serif" font-size="10.00">Logger</text>
</a>
</g>
</g>
<!-- Node0&#45;&gt;Node1 -->
<g id="edge1_Node000000_Node000001" class="edge">
<title>Node0&#45;&gt;Node1</title>
<g id="a_edge1_Node000000_Node000001"><a xlink:title=" ">
<path fill="none" stroke="#63b8ff" d="M151.13,-80.44C172.21,-85.54 195.06,-91.07 215.46,-96"/>
<polygon fill="#63b8ff" stroke="#63b8ff" points="151.8,-77 141.26,-78.06 150.16,-83.81 151.8,-77"/>
</a>
</g>
</g>
<!-- Node2 -->
<g id="Node000002" class="node">
<title>Node2</title>
<g id="a_Node000002"><a xlink:href="classMiniBlogApp_1_1Services_1_1LikeLogger.html" target="_top" xlink:title="Logs when a user likes a post.">
<polygon fill="white" stroke="#666666" points="351,-78 206,-78 206,-48 351,-48 351,-78"/>
<text text-anchor="start" x="214" y="-66" font-family="Helvetica,sans-Serif" font-size="10.00">MiniBlogApp.Services.Like</text>
<text text-anchor="middle" x="278.5" y="-55" font-family="Helvetica,sans-Serif" font-size="10.00">Logger</text>
</a>
</g>
</g>
<!-- Node0&#45;&gt;Node2 -->
<g id="edge2_Node000000_Node000002" class="edge">
<title>Node0&#45;&gt;Node2</title>
<g id="a_edge2_Node000000_Node000002"><a xlink:title=" ">
<path fill="none" stroke="#63b8ff" d="M166.08,-63C179.32,-63 192.85,-63 205.71,-63"/>
<polygon fill="#63b8ff" stroke="#63b8ff" points="166.03,-59.5 156.03,-63 166.03,-66.5 166.03,-59.5"/>
</a>
</g>
</g>
<!-- Node3 -->
<g id="Node000003" class="node">
<title>Node3</title>
<g id="a_Node000003"><a xlink:href="classMiniBlogApp_1_1Services_1_1PostLogger.html" target="_top" xlink:title="Logs creation of a post by a user.">
<polygon fill="white" stroke="#666666" points="351.5,-30 205.5,-30 205.5,0 351.5,0 351.5,-30"/>
<text text-anchor="start" x="213.5" y="-18" font-family="Helvetica,sans-Serif" font-size="10.00">MiniBlogApp.Services.Post</text>
<text text-anchor="middle" x="278.5" y="-7" font-family="Helvetica,sans-Serif" font-size="10.00">Logger</text>
</a>
</g>
</g>
<!-- Node0&#45;&gt;Node3 -->
<g id="edge3_Node000000_Node000003" class="edge">
<title>Node0&#45;&gt;Node3</title>
<g id="a_edge3_Node000000_Node000003"><a xlink:title=" ">
<path fill="none" stroke="#63b8ff" d="M151.13,-45.56C172.21,-40.46 195.06,-34.93 215.46,-30"/>
<polygon fill="#63b8ff" stroke="#63b8ff" points="150.16,-42.19 141.26,-47.94 151.8,-49 150.16,-42.19"/>
</a>
</g>
</g>
</g>
</svg>
