<?xml version="1.0" encoding="UTF-8" standalone="no"?>
<!DOCTYPE svg PUBLIC "-//W3C//DTD SVG 1.1//EN"
 "http://www.w3.org/Graphics/SVG/1.1/DTD/svg11.dtd">
<!-- Generated by graphviz version 2.43.0 (0)
 -->
<!-- Title: MiniBlogApp.States.IPostState Pages: 1 -->
<svg width="353pt" height="134pt"
 viewBox="0.00 0.00 353.00 134.00" xmlns="http://www.w3.org/2000/svg" xmlns:xlink="http://www.w3.org/1999/xlink">
<g id="graph0" class="graph" transform="scale(1 1) rotate(0) translate(4 130)">
<title>MiniBlogApp.States.IPostState</title>
<!-- Node1 -->
<g id="Node000001" class="node">
<title>Node1</title>
<g id="a_Node000001"><a xlink:title="Патерн State: Загальний інтерфейс для всіх станів поста.">
<polygon fill="#999999" stroke="#666666" points="139,-78 0,-78 0,-48 139,-48 139,-78"/>
<text text-anchor="start" x="8" y="-66" font-family="Helvetica,sans-Serif" font-size="10.00">MiniBlogApp.States.IPost</text>
<text text-anchor="middle" x="69.5" y="-55" font-family="Helvetica,sans-Serif" font-size="10.00">State</text>
</a>
</g>
</g>
<!-- Node2 -->
<g id="Node000002" class="node">
<title>Node2</title>
<g id="a_Node000002"><a xlink:href="classMiniBlogApp_1_1States_1_1DraftState.html" target="_top" xlink:title=" ">
<polygon fill="white" stroke="#666666" points="329.5,-126 190.5,-126 190.5,-96 329.5,-96 329.5,-126"/>
<text text-anchor="start" x="198.5" y="-114" font-family="Helvetica,sans-Serif" font-size="10.00">MiniBlogApp.States.Draft</text>
<text text-anchor="middle" x="260" y="-103" font-family="Helvetica,sans-Serif" font-size="10.00">State</text>
</a>
</g>
</g>
<!-- Node1&#45;&gt;Node2 -->
<g id="edge1_Node000001_Node000002" class="edge">
<title>Node1&#45;&gt;Node2</title>
<g id="a_edge1_Node000001_Node000002"><a xlink:title=" ">
<path fill="none" stroke="#63b8ff" d="M139.54,-80.58C159.41,-85.64 180.89,-91.11 200.08,-96"/>
<polygon fill="#63b8ff" stroke="#63b8ff" points="140.18,-77.13 129.63,-78.06 138.45,-83.92 140.18,-77.13"/>
</a>
</g>
</g>
<!-- Node3 -->
<g id="Node000003" class="node">
<title>Node3</title>
<g id="a_Node000003"><a xlink:href="classMiniBlogApp_1_1States_1_1ModerationState.html" target="_top" xlink:title=" ">
<polygon fill="white" stroke="#666666" points="345,-78 175,-78 175,-48 345,-48 345,-78"/>
<text text-anchor="start" x="183" y="-66" font-family="Helvetica,sans-Serif" font-size="10.00">MiniBlogApp.States.Moderation</text>
<text text-anchor="middle" x="260" y="-55" font-family="Helvetica,sans-Serif" font-size="10.00">State</text>
</a>
</g>
</g>
<!-- Node1&#45;&gt;Node3 -->
<g id="edge2_Node000001_Node000003" class="edge">
<title>Node1&#45;&gt;Node3</title>
<g id="a_edge2_Node000001_Node000003"><a xlink:title=" ">
<path fill="none" stroke="#63b8ff" d="M149.25,-63C157.67,-63 166.25,-63 174.73,-63"/>
<polygon fill="#63b8ff" stroke="#63b8ff" points="149.09,-59.5 139.09,-63 149.09,-66.5 149.09,-59.5"/>
</a>
</g>
</g>
<!-- Node4 -->
<g id="Node000004" class="node">
<title>Node4</title>
<g id="a_Node000004"><a xlink:href="classMiniBlogApp_1_1States_1_1PublishedState.html" target="_top" xlink:title=" ">
<polygon fill="white" stroke="#666666" points="341,-30 179,-30 179,0 341,0 341,-30"/>
<text text-anchor="start" x="187" y="-18" font-family="Helvetica,sans-Serif" font-size="10.00">MiniBlogApp.States.Published</text>
<text text-anchor="middle" x="260" y="-7" font-family="Helvetica,sans-Serif" font-size="10.00">State</text>
</a>
</g>
</g>
<!-- Node1&#45;&gt;Node4 -->
<g id="edge3_Node000001_Node000004" class="edge">
<title>Node1&#45;&gt;Node4</title>
<g id="a_edge3_Node000001_Node000004"><a xlink:title=" ">
<path fill="none" stroke="#63b8ff" d="M139.54,-45.42C159.41,-40.36 180.89,-34.89 200.08,-30"/>
<polygon fill="#63b8ff" stroke="#63b8ff" points="138.45,-42.08 129.63,-47.94 140.18,-48.87 138.45,-42.08"/>
</a>
</g>
</g>
</g>
</svg>
