<?xml version="1.0" encoding="UTF-8" standalone="no"?>
<!DOCTYPE svg PUBLIC "-//W3C//DTD SVG 1.1//EN"
 "http://www.w3.org/Graphics/SVG/1.1/DTD/svg11.dtd">
<!-- Generated by graphviz version 2.43.0 (0)
 -->
<!-- Title: MiniBlogApp.Services.IBlogStorage Pages: 1 -->
<svg width="373pt" height="182pt"
 viewBox="0.00 0.00 373.00 182.00" xmlns="http://www.w3.org/2000/svg" xmlns:xlink="http://www.w3.org/1999/xlink">
<g id="graph0" class="graph" transform="scale(1 1) rotate(0) translate(4 178)">
<title>MiniBlogApp.Services.IBlogStorage</title>
<!-- Node1 -->
<g id="Node000001" class="node">
<title>Node1</title>
<g id="a_Node000001"><a xlink:title="Інтерфейс для роботи зі сховищем дописів.">
<polygon fill="#999999" stroke="#666666" points="150,-102 0,-102 0,-72 150,-72 150,-102"/>
<text text-anchor="start" x="8" y="-90" font-family="Helvetica,sans-Serif" font-size="10.00">MiniBlogApp.Services.IBlog</text>
<text text-anchor="middle" x="75" y="-79" font-family="Helvetica,sans-Serif" font-size="10.00">Storage</text>
</a>
</g>
</g>
<!-- Node2 -->
<g id="Node000002" class="node">
<title>Node2</title>
<g id="a_Node000002"><a xlink:href="classMiniBlogApp_1_1Proxies_1_1CachedBlogStorageProxy.html" target="_top" xlink:title="ПАТЕРН PROXY (Замісник &#45; Кешуючий).">
<polygon fill="white" stroke="#666666" points="353.5,-174 197.5,-174 197.5,-144 353.5,-144 353.5,-174"/>
<text text-anchor="start" x="205.5" y="-162" font-family="Helvetica,sans-Serif" font-size="10.00">MiniBlogApp.Proxies.Cached</text>
<text text-anchor="middle" x="275.5" y="-151" font-family="Helvetica,sans-Serif" font-size="10.00">BlogStorageProxy</text>
</a>
</g>
</g>
<!-- Node1&#45;&gt;Node2 -->
<g id="edge1_Node000001_Node000002" class="edge">
<title>Node1&#45;&gt;Node2</title>
<g id="a_edge1_Node000001_Node000002"><a xlink:title=" ">
<path fill="none" stroke="#63b8ff" d="M116.63,-106.43C137.14,-115.8 162.58,-126.77 186,-135 195.01,-138.17 204.66,-141.17 214.15,-143.91"/>
<polygon fill="#63b8ff" stroke="#63b8ff" points="117.82,-103.13 107.28,-102.11 114.89,-109.48 117.82,-103.13"/>
</a>
</g>
</g>
<!-- Node3 -->
<g id="Node000003" class="node">
<title>Node3</title>
<g id="a_Node000003"><a xlink:href="classMiniBlogApp_1_1Services_1_1BlogStorage.html" target="_top" xlink:title="In&#45;memory storage for blog posts and related operations.">
<polygon fill="white" stroke="#666666" points="349,-126 202,-126 202,-96 349,-96 349,-126"/>
<text text-anchor="start" x="210" y="-114" font-family="Helvetica,sans-Serif" font-size="10.00">MiniBlogApp.Services.Blog</text>
<text text-anchor="middle" x="275.5" y="-103" font-family="Helvetica,sans-Serif" font-size="10.00">Storage</text>
</a>
</g>
</g>
<!-- Node1&#45;&gt;Node3 -->
<g id="edge2_Node000001_Node000003" class="edge">
<title>Node1&#45;&gt;Node3</title>
<g id="a_edge2_Node000001_Node000003"><a xlink:title=" ">
<path fill="none" stroke="#63b8ff" d="M160.17,-97.18C173.99,-98.85 188.2,-100.57 201.71,-102.2"/>
<polygon fill="#63b8ff" stroke="#63b8ff" points="160.54,-93.7 150.2,-95.97 159.7,-100.65 160.54,-93.7"/>
</a>
</g>
</g>
<!-- Node4 -->
<g id="Node000004" class="node">
<title>Node4</title>
<g id="a_Node000004"><a xlink:href="classMiniBlogApp_1_1Services_1_1ConcurrentBlogStorage.html" target="_top" xlink:title="Потокобезпечне сховище дописів на основі ReaderWriterLockSlim.">
<polygon fill="white" stroke="#666666" points="365,-78 186,-78 186,-48 365,-48 365,-78"/>
<text text-anchor="start" x="194" y="-66" font-family="Helvetica,sans-Serif" font-size="10.00">MiniBlogApp.Services.Concurrent</text>
<text text-anchor="middle" x="275.5" y="-55" font-family="Helvetica,sans-Serif" font-size="10.00">BlogStorage</text>
</a>
</g>
</g>
<!-- Node1&#45;&gt;Node4 -->
<g id="edge3_Node000001_Node000004" class="edge">
<title>Node1&#45;&gt;Node4</title>
<g id="a_edge3_Node000001_Node000004"><a xlink:title=" ">
<path fill="none" stroke="#63b8ff" d="M160.15,-76.83C168.7,-75.79 177.4,-74.74 185.99,-73.7"/>
<polygon fill="#63b8ff" stroke="#63b8ff" points="159.7,-73.35 150.2,-78.03 160.54,-80.3 159.7,-73.35"/>
</a>
</g>
</g>
<!-- Node5 -->
<g id="Node000005" class="node">
<title>Node5</title>
<g id="a_Node000005"><a xlink:href="classMiniBlogApp_1_1Services_1_1LoggingBlogStorageDecorator.html" target="_top" xlink:title=" ">
<polygon fill="white" stroke="#666666" points="357.5,-30 193.5,-30 193.5,0 357.5,0 357.5,-30"/>
<text text-anchor="start" x="201.5" y="-18" font-family="Helvetica,sans-Serif" font-size="10.00">MiniBlogApp.Services.Logging</text>
<text text-anchor="middle" x="275.5" y="-7" font-family="Helvetica,sans-Serif" font-size="10.00">BlogStorageDecorator</text>
</a>
</g>
</g>
<!-- Node1&#45;&gt;Node5 -->
<g id="edge4_Node000001_Node000005" class="edge">
<title>Node1&#45;&gt;Node5</title>
<g id="a_edge4_Node000001_Node000005"><a xlink:title=" ">
<path fill="none" stroke="#63b8ff" d="M116.63,-67.57C137.14,-58.2 162.58,-47.23 186,-39 195.01,-35.83 204.66,-32.83 214.15,-30.09"/>
<polygon fill="#63b8ff" stroke="#63b8ff" points="114.89,-64.52 107.28,-71.89 117.82,-70.87 114.89,-64.52"/>
</a>
</g>
</g>
</g>
</svg>
