<?xml version="1.0" encoding="UTF-8" standalone="no"?>
<!DOCTYPE svg PUBLIC "-//W3C//DTD SVG 1.1//EN"
 "http://www.w3.org/Graphics/SVG/1.1/DTD/svg11.dtd">
<!-- Generated by graphviz version 2.43.0 (0)
 -->
<!-- Title: MiniBlogApp.Strategies.IPostAnalyticsStrategy Pages: 1 -->
<svg width="387pt" height="86pt"
 viewBox="0.00 0.00 387.00 86.00" xmlns="http://www.w3.org/2000/svg" xmlns:xlink="http://www.w3.org/1999/xlink">
<g id="graph0" class="graph" transform="scale(1 1) rotate(0) translate(4 82)">
<title>MiniBlogApp.Strategies.IPostAnalyticsStrategy</title>
<!-- Node1 -->
<g id="Node000001" class="node">
<title>Node1</title>
<g id="a_Node000001"><a xlink:title="Інтерфейс стратегії для аналітики постів блогу.">
<polygon fill="#999999" stroke="#666666" points="158,-54 0,-54 0,-24 158,-24 158,-54"/>
<text text-anchor="start" x="8" y="-42" font-family="Helvetica,sans-Serif" font-size="10.00">MiniBlogApp.Strategies.IPost</text>
<text text-anchor="middle" x="79" y="-31" font-family="Helvetica,sans-Serif" font-size="10.00">AnalyticsStrategy</text>
</a>
</g>
</g>
<!-- Node2 -->
<g id="Node000002" class="node">
<title>Node2</title>
<g id="a_Node000002"><a xlink:href="classMiniBlogApp_1_1Strategies_1_1ParallelPostAnalyticsStrategy.html" target="_top" xlink:title="Паралельна мультипоточна стратегія обчислення аналітики за допомогою PLINQ.">
<polygon fill="white" stroke="#666666" points="371.5,-78 201.5,-78 201.5,-48 371.5,-48 371.5,-78"/>
<text text-anchor="start" x="209.5" y="-66" font-family="Helvetica,sans-Serif" font-size="10.00">MiniBlogApp.Strategies.Parallel</text>
<text text-anchor="middle" x="286.5" y="-55" font-family="Helvetica,sans-Serif" font-size="10.00">PostAnalyticsStrategy</text>
</a>
</g>
</g>
<!-- Node1&#45;&gt;Node2 -->
<g id="edge1_Node000001_Node000002" class="edge">
<title>Node1&#45;&gt;Node2</title>
<g id="a_edge1_Node000001_Node000002"><a xlink:title=" ">
<path fill="none" stroke="#63b8ff" d="M168.26,-49.31C179.21,-50.59 190.39,-51.89 201.28,-53.16"/>
<polygon fill="#63b8ff" stroke="#63b8ff" points="168.62,-45.83 158.28,-48.14 167.8,-52.78 168.62,-45.83"/>
</a>
</g>
</g>
<!-- Node3 -->
<g id="Node000003" class="node">
<title>Node3</title>
<g id="a_Node000003"><a xlink:href="classMiniBlogApp_1_1Strategies_1_1SequentialPostAnalyticsStrategy.html" target="_top" xlink:title="Послідовна стратегія обчислення аналітики.">
<polygon fill="white" stroke="#666666" points="379,-30 194,-30 194,0 379,0 379,-30"/>
<text text-anchor="start" x="202" y="-18" font-family="Helvetica,sans-Serif" font-size="10.00">MiniBlogApp.Strategies.Sequential</text>
<text text-anchor="middle" x="286.5" y="-7" font-family="Helvetica,sans-Serif" font-size="10.00">PostAnalyticsStrategy</text>
</a>
</g>
</g>
<!-- Node1&#45;&gt;Node3 -->
<g id="edge2_Node000001_Node000003" class="edge">
<title>Node1&#45;&gt;Node3</title>
<g id="a_edge2_Node000001_Node000003"><a xlink:title=" ">
<path fill="none" stroke="#63b8ff" d="M168.4,-28.68C176.77,-27.7 185.27,-26.71 193.67,-25.72"/>
<polygon fill="#63b8ff" stroke="#63b8ff" points="167.8,-25.22 158.28,-29.86 168.62,-32.17 167.8,-25.22"/>
</a>
</g>
</g>
</g>
</svg>
